<?xml version="1.0" encoding="utf-8"?>
<!-- Generator: Adobe Illustrator 19.0.0, SVG Export Plug-In . SVG Version: 6.00 Build 0)  -->
<svg version="1.1" id="Layer_2" xmlns="http://www.w3.org/2000/svg" xmlns:xlink="http://www.w3.org/1999/xlink" x="0px" y="0px"
	 viewBox="-48 -514 514 514" style="enable-background:new -48 -514 514 514;" xml:space="preserve">
<style type="text/css">
	.st0{fill:url(#SVGID_1_);}
	.st1{fill:url(#SVGID_2_);}
</style>
<g>

		<linearGradient id="SVGID_1_" gradientUnits="userSpaceOnUse" x1="446.1539" y1="-18.4709" x2="-23.518" y2="-488.1433" gradientTransform="matrix(1 0 0 -1 0 -512)">
		<stop  offset="0" style="stop-color:#FFAA2A"/>
		<stop  offset="1" style="stop-color:#FFC06C"/>
	</linearGradient>
	<rect x="-30.6" y="-491" class="st0" width="479.2" height="469.3"/>

		<linearGradient id="SVGID_2_" gradientUnits="userSpaceOnUse" x1="209.3325" y1="-57.044" x2="209.3325" y2="-451.711" gradientTransform="matrix(1 0 0 -1 0 -512)">
		<stop  offset="0" style="stop-color:#251200"/>
		<stop  offset="1" style="stop-color:#000000"/>
	</linearGradient>
	<path class="st1" d="M144.2-252.1h42.5l-21.2-82.4L144.2-252.1z M5.7-454.3v396H413v-396H5.7z M210-161.8l-15.5-53.5H137
		l-15.5,53.5H82.1l55.4-189.3v-20.7h52.8l63.2,210H210z M314.7-161.8h-42.5v-159.7h42.5V-161.8z M293.7-340.7
		c-12.2,0-22-9.7-22-21.8c0-12,9.9-21.8,22-21.8s22,9.7,22,21.8C315.7-350.5,305.9-340.7,293.7-340.7z"/>
</g>
</svg>
