<?xml version="1.0" encoding="utf-8"?>
<!-- Generator: Adobe Illustrator 18.1.1, SVG Export Plug-In . SVG Version: 6.00 Build 0)  -->
<svg version="1.0" id="Calque_1" xmlns="http://www.w3.org/2000/svg" xmlns:xlink="http://www.w3.org/1999/xlink" x="0px" y="0px"
	 viewBox="0 0 600 600" enable-background="new 0 0 600 600" xml:space="preserve">
<rect fill="#465478" width="600" height="600"/>
<circle fill="#ECF0F1" cx="300" cy="300" r="182.7"/>
<g>
	<polygon fill="#E74C3C" points="288.4,442.8 323.8,407.4 323.8,210.7 288.4,246.1 	"/>
	<polygon fill="#E74C3C" points="135.1,407.4 170.5,442.8 170.5,246.1 135.1,210.7 	"/>
	<polygon fill="#E74C3C" points="256.5,275.1 342.9,188.8 311.8,188.8 240.2,260.4 131.6,151.9 81.6,151.9 220.6,291 270.7,290.9 
		254.9,275.1 	"/>
	<polygon fill="#E74C3C" points="379.5,448.1 355.7,424.4 355.7,292.3 379.5,316 	"/>
	<polygon fill="#E74C3C" points="482.5,424.4 458.7,448.1 458.7,316 482.5,292.3 	"/>
	<polygon fill="#E74C3C" points="400.9,335.5 342.9,277.5 363.8,277.5 411.9,325.6 484.8,252.7 518.4,252.7 425,346.1 391.4,346.1 
		402,335.5 	"/>
</g>
<polygon opacity="0.1" fill="#465478" points="600,600 0,600 600,0 "/>
</svg>
