<?xml version="1.0" encoding="utf-8"?>
<!-- Generator: Adobe Illustrator 18.1.1, SVG Export Plug-In . SVG Version: 6.00 Build 0)  -->
<svg version="1.0"
	 id="svg2" xmlns:dc="http://purl.org/dc/elements/1.1/" xmlns:cc="http://creativecommons.org/ns#" xmlns:rdf="http://www.w3.org/1999/02/22-rdf-syntax-ns#" xmlns:svg="http://www.w3.org/2000/svg" xmlns:sodipodi="http://sodipodi.sourceforge.net/DTD/sodipodi-0.dtd" xmlns:inkscape="http://www.inkscape.org/namespaces/inkscape" inkscape:version="0.48.1 " sodipodi:docname="TV Fil 78 Logo.svg"
	 xmlns="http://www.w3.org/2000/svg" xmlns:xlink="http://www.w3.org/1999/xlink" x="0px" y="0px" viewBox="-144 322.3 510 156.7"
	 enable-background="new -144 322.3 510 156.7" xml:space="preserve">
<rect x="-144" y="322.3" fill="#ECF0F1" width="510" height="156.7"/>
<sodipodi:namedview  bordercolor="#666666" pagecolor="#ffffff" fit-margin-top="5" fit-margin-left="5" showgrid="false" inkscape:cy="-69.16318" borderopacity="1.0" inkscape:cx="589.52997" inkscape:zoom="1.1826455" id="base" inkscape:document-units="px" inkscape:window-maximized="1" inkscape:window-height="1018" inkscape:current-layer="layer1" fit-margin-right="5" inkscape:window-x="-8" inkscape:pageshadow="2" fit-margin-bottom="5" inkscape:pageopacity="0.0" inkscape:window-y="-8" inkscape:window-width="1920">
	</sodipodi:namedview>
<g id="layer1" transform="translate(287.11813,15.329992)" inkscape:label="Calque 1" inkscape:groupmode="layer">
	<g id="g3052">
		<g id="text3098" transform="scale(0.93987532,1.0639709)">
			<path id="path3010" stroke="#FFFFFF" stroke-width="0.501" d="M-416.5,414.7l-2.1,15.8h-6.3l-2.4-15.8h4.3
				c0.5,4.4,0.9,8.1,1.1,11.1c0.2-3,0.4-5.8,0.7-8.1l0.3-2.9H-416.5z"/>
			<path id="path3012" stroke="#FFFFFF" stroke-width="0.501" d="M-400,424c0,1.6,0,2.7-0.1,3.4c-0.1,0.7-0.3,1.3-0.7,1.8
				s-0.9,1-1.6,1.3c-0.7,0.3-1.5,0.4-2.3,0.4c-0.8,0-1.6-0.1-2.3-0.4c-0.7-0.3-1.2-0.7-1.6-1.2c-0.4-0.6-0.7-1.2-0.7-1.8
				c-0.1-0.7-0.1-1.8-0.1-3.4v-2.7c0-1.6,0-2.7,0.1-3.4c0.1-0.7,0.3-1.3,0.7-1.8c0.4-0.5,0.9-1,1.6-1.3c0.7-0.3,1.5-0.4,2.3-0.4
				c0.8,0,1.6,0.1,2.3,0.4c0.7,0.3,1.2,0.7,1.6,1.2c0.4,0.6,0.7,1.2,0.7,1.8c0.1,0.7,0.1,1.8,0.1,3.4V424z M-404.1,418.8
				c0-0.7,0-1.2-0.1-1.4c-0.1-0.2-0.2-0.3-0.5-0.3c-0.2,0-0.4,0.1-0.5,0.2c-0.1,0.2-0.2,0.7-0.2,1.5v7.4c0,0.9,0,1.5,0.1,1.7
				c0.1,0.2,0.2,0.3,0.5,0.3c0.3,0,0.5-0.1,0.5-0.4c0.1-0.2,0.1-0.8,0.1-1.8V418.8z"/>
			<path id="path3014" stroke="#FFFFFF" stroke-width="0.501" d="M-383.8,414.7v3.2h-2.4v12.7h-4.1v-12.7h-2.4v-3.2H-383.8z"/>
			<path id="path3016" stroke="#FFFFFF" stroke-width="0.501" d="M-376.5,414.7h2.9c1.9,0,3.3,0.1,3.9,0.2c0.7,0.1,1.2,0.5,1.7,1.1
				c0.4,0.6,0.7,1.6,0.7,2.9c0,1.2-0.2,2.1-0.5,2.5s-0.9,0.7-1.8,0.8c0.8,0.2,1.4,0.5,1.6,0.8c0.3,0.3,0.5,0.7,0.5,0.9
				c0.1,0.3,0.1,1.1,0.1,2.3v4.2h-3.8v-5.3c0-0.8-0.1-1.4-0.2-1.6c-0.1-0.2-0.5-0.3-1.1-0.3v7.1h-4.1L-376.5,414.7z M-372.3,417.4
				v3.5c0.5,0,0.8-0.1,1-0.2c0.2-0.1,0.3-0.5,0.3-1.2v-0.9c0-0.5-0.1-0.8-0.3-1C-371.5,417.5-371.9,417.4-372.3,417.4L-372.3,417.4z
				"/>
			<path id="path3018" stroke="#FFFFFF" stroke-width="0.501" d="M-359.3,414.7h6.9v3.2h-2.7v3h2.6v3h-2.6v3.5h3v3.2h-7.1V414.7z"/>
			<path id="path3020" stroke="#FFFFFF" stroke-width="0.501" d="M-326.3,414.7v3.2h-2.4v12.7h-4.1v-12.7h-2.4v-3.2H-326.3z"/>
			<path id="path3022" stroke="#FFFFFF" stroke-width="0.501" d="M-319,414.7h6.9v3.2h-2.7v3h2.6v3h-2.6v3.5h3v3.2h-7.1V414.7z
				 M-312.3,411.5l-3.2,2.7h-2l1.7-2.7H-312.3z"/>
			<path id="path3024" stroke="#FFFFFF" stroke-width="0.501" d="M-300.2,414.7v12.7h2.5v3.2h-6.6v-15.8H-300.2z"/>
			<path id="path3026" stroke="#FFFFFF" stroke-width="0.501" d="M-290.3,414.7h6.9v3.2h-2.7v3h2.6v3h-2.6v3.5h3v3.2h-7.1V414.7z
				 M-283.6,411.5l-3.2,2.7h-2l1.7-2.7H-283.6z"/>
			<path id="path3028" stroke="#FFFFFF" stroke-width="0.501" d="M-265.8,414.7l-2.1,15.8h-6.3l-2.4-15.8h4.3
				c0.5,4.4,0.9,8.1,1.1,11.1c0.2-3,0.4-5.8,0.7-8.1l0.3-2.9H-265.8z"/>
			<path id="path3030" stroke="#FFFFFF" stroke-width="0.501" d="M-254.6,414.7v15.8h-4.1v-15.8H-254.6z"/>
			<path id="path3032" stroke="#FFFFFF" stroke-width="0.501" d="M-237.8,419.5h-3.8v-1.2c0-0.5,0-0.9-0.1-1
				c-0.1-0.1-0.3-0.2-0.5-0.2c-0.2,0-0.4,0.1-0.6,0.3c-0.1,0.2-0.2,0.5-0.2,0.9c0,0.5,0.1,0.9,0.2,1.2c0.1,0.3,0.5,0.6,1.2,1
				c1.8,1.1,3,2,3.5,2.7c0.5,0.7,0.7,1.8,0.7,3.4c0,1.1-0.1,2-0.4,2.5c-0.3,0.5-0.8,1-1.5,1.3s-1.6,0.5-2.6,0.5
				c-1.1,0-2-0.2-2.8-0.6c-0.8-0.4-1.3-0.9-1.5-1.6s-0.4-1.6-0.4-2.7v-1h3.8v1.9c0,0.6,0.1,1,0.2,1.1c0.1,0.2,0.3,0.3,0.6,0.3
				c0.3,0,0.5-0.1,0.6-0.3s0.2-0.5,0.2-1c0-0.9-0.1-1.5-0.4-1.8c-0.3-0.3-0.9-0.8-1.9-1.4c-1-0.7-1.7-1.2-2-1.5s-0.6-0.7-0.8-1.3
				c-0.2-0.5-0.3-1.2-0.3-2.1c0-1.2,0.2-2.1,0.5-2.7c0.3-0.6,0.8-1,1.5-1.3c0.7-0.3,1.5-0.5,2.5-0.5c1.1,0,2,0.2,2.7,0.5
				c0.8,0.3,1.3,0.8,1.5,1.3c0.2,0.5,0.4,1.4,0.4,2.7V419.5z"/>
			<path id="path3034" stroke="#FFFFFF" stroke-width="0.501" d="M-225.6,414.7v15.8h-4.1v-15.8H-225.6z"/>
			<path id="path3036" stroke="#FFFFFF" stroke-width="0.501" d="M-208.1,424c0,1.6,0,2.7-0.1,3.4c-0.1,0.7-0.3,1.3-0.7,1.8
				c-0.4,0.5-0.9,1-1.6,1.3c-0.7,0.3-1.5,0.4-2.3,0.4c-0.8,0-1.6-0.1-2.3-0.4c-0.7-0.3-1.2-0.7-1.6-1.2c-0.4-0.6-0.7-1.2-0.7-1.8
				c-0.1-0.7-0.1-1.8-0.1-3.4v-2.7c0-1.6,0-2.7,0.1-3.4c0.1-0.7,0.3-1.3,0.7-1.8c0.4-0.5,0.9-1,1.6-1.3c0.7-0.3,1.5-0.4,2.3-0.4
				c0.8,0,1.6,0.1,2.3,0.4c0.7,0.3,1.2,0.7,1.6,1.2c0.4,0.6,0.7,1.2,0.7,1.8c0.1,0.7,0.1,1.8,0.1,3.4V424z M-212.3,418.8
				c0-0.7,0-1.2-0.1-1.4c-0.1-0.2-0.2-0.3-0.5-0.3c-0.2,0-0.4,0.1-0.5,0.2c-0.1,0.2-0.2,0.7-0.2,1.5v7.4c0,0.9,0,1.5,0.1,1.7
				c0.1,0.2,0.2,0.3,0.5,0.3c0.3,0,0.5-0.1,0.5-0.4c0.1-0.2,0.1-0.8,0.1-1.8L-212.3,418.8z"/>
			<path id="path3038" stroke="#FFFFFF" stroke-width="0.501" d="M-191,414.7v15.8h-3.6l-2.1-7.2v7.2h-3.4v-15.8h3.4l2.3,7.1v-7.1
				H-191z"/>
			<path id="path3040" stroke="#FFFFFF" stroke-width="0.501" d="M-168.9,414.7v12.7h2.5v3.2h-6.6v-15.8H-168.9z"/>
			<path id="path3042" stroke="#FFFFFF" stroke-width="0.501" d="M-149.6,424c0,1.6,0,2.7-0.1,3.4c-0.1,0.7-0.3,1.3-0.7,1.8
				c-0.4,0.5-0.9,1-1.6,1.3c-0.7,0.3-1.5,0.4-2.3,0.4c-0.8,0-1.6-0.1-2.3-0.4c-0.7-0.3-1.2-0.7-1.6-1.2c-0.4-0.6-0.7-1.2-0.7-1.8
				c-0.1-0.7-0.1-1.8-0.1-3.4v-2.7c0-1.6,0-2.7,0.1-3.4c0.1-0.7,0.3-1.3,0.7-1.8c0.4-0.5,0.9-1,1.6-1.3c0.7-0.3,1.5-0.4,2.3-0.4
				c0.8,0,1.6,0.1,2.3,0.4c0.7,0.3,1.2,0.7,1.6,1.2c0.4,0.6,0.7,1.2,0.7,1.8c0.1,0.7,0.1,1.8,0.1,3.4V424z M-153.8,418.8
				c0-0.7,0-1.2-0.1-1.4c-0.1-0.2-0.2-0.3-0.5-0.3c-0.2,0-0.4,0.1-0.5,0.2c-0.1,0.2-0.2,0.7-0.2,1.5v7.4c0,0.9,0,1.5,0.1,1.7
				c0.1,0.2,0.2,0.3,0.5,0.3c0.3,0,0.5-0.1,0.5-0.4c0.1-0.2,0.1-0.8,0.1-1.8V418.8z"/>
			<path id="path3044" stroke="#FFFFFF" stroke-width="0.501" d="M-132.1,421.6h-4.1v-2.8c0-0.8,0-1.3-0.1-1.5
				c-0.1-0.2-0.3-0.3-0.6-0.3c-0.3,0-0.6,0.1-0.6,0.4c-0.1,0.2-0.1,0.8-0.1,1.6v7.4c0,0.8,0,1.3,0.1,1.5c0.1,0.2,0.3,0.4,0.6,0.4
				c0.3,0,0.5-0.1,0.6-0.4c0.1-0.2,0.1-0.8,0.1-1.7v-2h4.1v0.6c0,1.6-0.1,2.8-0.3,3.5s-0.7,1.3-1.5,1.8c-0.8,0.5-1.8,0.8-2.9,0.8
				c-1.2,0-2.2-0.2-3-0.7c-0.8-0.4-1.3-1-1.6-1.8c-0.3-0.8-0.4-1.9-0.4-3.5v-4.6c0-1.1,0-2,0.1-2.6c0.1-0.6,0.3-1.1,0.7-1.6
				c0.4-0.5,0.9-0.9,1.6-1.2c0.7-0.3,1.5-0.5,2.4-0.5c1.2,0,2.2,0.2,3,0.7c0.8,0.5,1.3,1.1,1.6,1.8c0.2,0.7,0.4,1.8,0.4,3.3V421.6z"
				/>
			<path id="path3046" stroke="#FFFFFF" stroke-width="0.501" d="M-117.1,414.7l2.4,15.8h-4.2l-0.2-2.8h-1.5l-0.2,2.8h-4.3l2.1-15.8
				H-117.1z M-119.3,424.9c-0.2-1.8-0.4-4-0.6-6.6c-0.4,3-0.7,5.2-0.8,6.6H-119.3z"/>
			<path id="path3048" stroke="#FFFFFF" stroke-width="0.501" d="M-103.5,414.7v12.7h2.5v3.2h-6.6v-15.8H-103.5z"/>
			<path id="path3050" stroke="#FFFFFF" stroke-width="0.501" d="M-93.6,414.7h6.9v3.2h-2.7v3h2.6v3h-2.6v3.5h3v3.2h-7.1V414.7z"/>
		</g>
		<path id="path4010" sodipodi:nodetypes="ccccccccsssscscsccccccccccccccc" inkscape:connector-curvature="0" fill="#F29400" d="
			M-400.7,400.1v-32.7h-12.7h-12.7v-15.8v-15.8l71.4,0.1l71.4,0.1l9.4,24.6c5.1,13.6,9.6,25.3,9.9,26.2c0.5,1.5,0.6,1.5,2.3-2.6
			c1-2.3,5.5-14.1,10.1-26.2l8.4-22l24.2-0.1c13.3-0.1,23.9-0.2,23.8,0c-0.2,0.4-4.4,9.7-35.9,71.9l-12.4,24.6l-19.7,0.1l-19.7,0.1
			l-23.3-46.3l-23.3-46.3l0,13.6l0,13.6h-12.4h-12.4v32.7v32.7h-23.1h-23.1L-400.7,400.1L-400.7,400.1z"/>
		<path id="path3990" sodipodi:nodetypes="ccsssssscccc" inkscape:connector-curvature="0" fill="#008ED0" d="M-71.1,396.7v-60.9
			l4-3.4c11.8-10.1,26.3-16.8,41.9-19.4c5.8-1,8-1.1,16.3-0.9c10.5,0.3,15.4,1.1,24.2,4c24,7.9,43.8,26.7,53,50.5
			c11.5,29.6,4.9,64.6-16.5,88l-2.7,3H-11h-60.1L-71.1,396.7z"/>
		<path id="path3988" sodipodi:nodetypes="sssssssssss" inkscape:connector-curvature="0" fill="#FFFFFF" d="M16.1,440.3
			c16.4-4.3,30.3-15.8,37.8-31.2c11.1-22.8,6.2-50.1-12.2-67.6c-8.4-7.9-17.8-12.9-29.1-15.2c-6.8-1.4-19-1.2-25.2,0.5
			c-21.7,5.8-37.6,21.8-43,43.4c-1,4-1.2,5.9-1.1,13.7c0,8.1,0.2,9.6,1.4,14.3c4.5,16.7,16.3,31.1,31.7,38.3
			c9.1,4.3,15.1,5.5,26.2,5.3C9.7,441.7,11.9,441.5,16.1,440.3L16.1,440.3z"/>
		<path id="path3986" sodipodi:nodetypes="sssssss" inkscape:connector-curvature="0" d="M14.4,397.1c-10.1-1.7-18.9-9.7-21.5-19.6
			c-1.6-6.2-0.8-13.8,2.1-19.6c1.9-3.8,8-9.7,11.8-11.5c15.5-7.3,33.1,0.5,37.9,16.8c1,3.5,1.1,10.7,0.1,14.4
			C41.3,390.6,27.8,399.3,14.4,397.1z"/>
		<path id="path3984" sodipodi:nodetypes="sscssssssssssssssss" inkscape:connector-curvature="0" fill="#008ED0" d="M-115.7,433.2
			c-4.4-0.5-9.1-1.6-12.2-2.9c-1.1-0.5-2-0.8-2-0.7c0,0.1-0.7-0.5-1.5-1.2s-1.7-1.4-1.9-1.4c-0.6,0-2.9-4.2-3.2-6
			c-0.9-4.2,2.9-9.7,7.5-11.1c2.4-0.7,2.6-1.2,0.8-1.7c-1.6-0.4-4.8-3.1-5.7-5c-1.6-3.1-0.4-8.1,2.7-10.9c2.1-2,6.2-3.9,10.9-5.2
			c5.8-1.6,16.8-1.6,22.7,0c2.3,0.6,5.2,1.6,6.4,2.2c6.7,3.2,9.6,9.4,6.8,14.4c-1.1,1.9-4.7,4.7-6,4.7c-1.4,0-0.6,0.9,1.4,1.5
			c2.9,0.9,6.4,4.4,7.3,7.2c1.6,5.5-1.9,10.6-9.3,13.5C-97.1,432.9-108.1,434.1-115.7,433.2z"/>
		<path id="path3982" sodipodi:nodetypes="csscc" inkscape:connector-curvature="0" fill="#FFFFFF" d="M-105.3,420.5
			c4.6-3.8-2.1-9.2-7.2-5.8c-2.5,1.7-2.7,3.9-0.5,5.8C-110.8,422.4-107.6,422.4-105.3,420.5L-105.3,420.5z"/>
		<path id="path3980" sodipodi:nodetypes="sssss" inkscape:connector-curvature="0" fill="#FFFFFF" d="M-106.9,403.5
			c2-1,2.4-2.3,1.2-3.9c-1.3-1.7-4.9-2.1-6.4-0.8c-1.5,1.4-1.3,3.6,0.4,4.6C-109.8,404.4-108.7,404.4-106.9,403.5z"/>
		<path id="path3978" sodipodi:nodetypes="sscsscccsssccs" inkscape:connector-curvature="0" fill="#008ED0" d="M-194.5,432.4
			c0.6-1.1,19.7-26.2,22.3-29.2l2.4-2.8l-1.8,0.3c-1,0.2-6.6,0.5-12.5,0.7l-10.8,0.4v-7.6v-7.6h29.3c24.7,0,29.2,0.1,28.9,0.7
			c-0.2,0.4-7.9,10.8-17,23.1l-16.6,22.3l-12.3,0C-192.4,432.7-194.8,433-194.5,432.4L-194.5,432.4z"/>
		<path id="path3976" sodipodi:nodetypes="ccccccccccccccccccccc" inkscape:connector-curvature="0" fill="#008ED0" d="M-195,358.9
			v-23.1h20.2h20.2v6.7v6.7h-9.1h-9.1v2.1v2.1h8h8v6.2v6.2h-8h-8v8v8h-11.1H-195V358.9z"/>
		<path id="path3974" sodipodi:nodetypes="ccccccccc" inkscape:connector-curvature="0" fill="#008ED0" d="M-150.4,358.9v-23.1h11.1
			h11.1v23.1v23.1h-11.1h-11.1V358.9z"/>
		<path id="path3970" sodipodi:nodetypes="ccccccccccccc" inkscape:connector-curvature="0" fill="#008ED0" d="M-122.4,358.9v-23.1
			h11.1h11.1v15.5v15.5h9.1h9.1v7.5v7.5h-20.2h-20.2V358.9z"/>
	</g>
</g>
</svg>
