<?xml version="1.0" encoding="utf-8"?>
<!-- Generator: Adobe Illustrator 19.2.1, SVG Export Plug-In . SVG Version: 6.00 Build 0)  -->
<svg version="1.1" xmlns="http://www.w3.org/2000/svg" xmlns:xlink="http://www.w3.org/1999/xlink" x="0px" y="0px"
	 viewBox="0 0 598 494.3" style="enable-background:new 0 0 598 494.3;" xml:space="preserve">
<style type="text/css">
	.st0{opacity:0.1;}
	.st1{fill:#D3E0F0;}
	.st2{fill:#242424;}
	.st3{fill:#F2F1EF;}
	.st4{fill:#59ABE3;}
	.st5{fill:#EFEFEE;}
	.st6{fill:#89CCF0;}
	.st7{fill:#DFE8EB;}
	.st8{fill:#47B7ED;}
	.st9{fill:#E6EAED;}
	.st10{fill:#5DBFEF;}
	.st11{fill:#E6E4E0;}
	.st12{fill:#A9C2E2;}
	.st13{fill:#EDC4C3;}
	.st14{fill:#DC9795;}
	.st15{fill:#5693B7;}
	.st16{fill:#5383AE;}
	.st17{fill:#7F9DB8;}
	.st18{fill:#27518D;}
	.st19{fill:#D6AFAB;}
	.st20{fill:#DEB8B6;}
	.st21{fill:#CC7472;}
	.st22{fill:#428DB5;}
	.st23{fill:#E1B9B7;}
	.st24{fill:#243E6C;}
	.st25{fill:#CBDDF0;}
	.st26{fill:#FEFEFE;}
	.st27{opacity:0;fill:#2A6AB8;}
</style>
<g id="Calque_1">
	<g>
		<g id="Lunettes_Ombre" class="st0">
			<g>
				<path class="st1" d="M176.8,80.8c-6-7.6-11.8-15-18.1-23.1c7.5-1.2,14.5-2.4,21.4-3.4c12.2-1.8,24.5-3.6,36.8-5.4
					c2-0.3,3.9-0.6,5.9-0.7c9.1-0.1,14.7-5.6,19.6-12.4c1.3-1.9,3.1-3.4,5-5.4c5.6,2.8,11.1,5.5,16.6,8.2
					c16.6,8.1,33,16.7,49.9,24.2c6.2,2.7,13.5,2.9,20.3,3.9c9.9,1.5,19.9,2.7,31.2,4.2c-6.5-9.6-12.3-18.1-19-28
					c6.8,1,12,1.7,17.3,2.7c22.2,4.2,44.5,8.3,66.7,12.8c3.8,0.8,7.6,2.3,10.8,4.4c10.7,7.3,20.8,15.4,31.7,22.4
					c9.4,6,15.4,14.9,21.7,23.6c18.4,25.2,36.8,50.3,55.1,75.4c10.8,14.7,21.4,29.5,32.3,44.1c2.1,2.9,2,5.2,0.8,8.2
					c-13.6,32.8-27.2,65.6-40.8,98.4c-9.5,22.8-19,45.7-28.6,68.4c-0.7,1.6-2.3,3.3-3.9,4c-34.9,14.5-69.9,28.9-104.9,43.4
					c-33.4,13.8-103.1,43.5-104.6,43.5c-1.3,0-59.3-24.7-86.9-36c-8.4-3.5-16.9-6.8-25.2-10.7c-2-0.9-4.1-3.5-4.6-5.7
					c-9.1-37-17.9-74-26.8-111c-7.7-32.2-15.2-64.4-22.9-96.6c-6-25.3-12-50.5-17.8-75.9c-0.5-2,0.4-4.9,1.7-6.6
					c11.3-13.9,22.7-27.6,34.3-41.3C159.8,100.6,168.1,91,176.8,80.8z"/>
			</g>
		</g>
		<g id="Layer_12">
			<g id="XMLID_4_">
				<path id="XMLID_10_" d="M247.4,28.3c0,0-34.1,19.9-89.6,23c1.1,6,5.6,4.2,5.6,4.2s71.3,0.3,78.2,1.6
					C250.7,49.3,247.4,28.3,247.4,28.3"/>
				<path id="XMLID_12_" d="M348.3,12.5c0,0,30.5,27.7,87.6,44.4c-2.7,5.5-6.9,2.7-6.9,2.7s-60.9-8.6-82.1-17.7
					C346.9,36.3,348.3,12.5,348.3,12.5"/>
				<g id="XMLID_43_">
					<path id="XMLID_44_" class="st2" d="M429.1,59.6c0,0,0.1,0,0.1,0.1h0.1c0,0,0.1,0,0.1,0.1c0,0,0.1,0,0.1,0.1
						c0.1,0,0.1,0,0.2,0.1h0.1c0.1,0,0.1,0.1,0.2,0.1c0,0,0.1,0,0.2,0c0.1,0,0.2,0,0.3,0.1c0.1,0,0.1,0,0.2,0c0.1,0,0.2,0,0.3,0
						s0.1,0,0.2,0c0.1,0,0.2,0,0.3,0h0.1c0.2,0,0.3,0,0.5,0l0,0c-0.2-1.7-0.4-3.3-0.6-4.7c-0.1,0-0.2-0.1-0.4-0.1
						c-1.9-0.6-3.8-1.2-5.6-1.8c0,0,0,0-0.1,0c0.1,1.9,0.2,3.7,0.3,5.5c0.2,0,0.5,0.1,0.7,0.1c0.1,0,0.2,0,0.3,0
						c0.2,0,0.3,0,0.4,0.1l0,0c0.2,0,0.3,0,0.5,0.1h0.1c0.3,0,0.5,0.1,0.7,0.1h0.1c0.1,0,0.1,0,0.2,0h0.1
						C428.9,59.6,429,59.6,429.1,59.6C429,59.6,429,59.6,429.1,59.6C429,59.6,429.1,59.6,429.1,59.6z"/>
					<path id="XMLID_92_" class="st2" d="M413.4,57.2c0.1,0,0.2,0,0.3,0.1c0.3,0.1,0.7,0.1,1,0.2c0.2,0,0.3,0.1,0.5,0.1
						c0.3,0.1,0.7,0.1,1,0.2c0.1,0,0.3,0,0.4,0.1c0.5,0.1,0.9,0.1,1.4,0.2c0.1,0,0.1,0,0.2,0c0.4,0.1,0.7,0.1,1.1,0.2
						c0.2,0,0.3,0.1,0.5,0.1s0.5,0.1,0.7,0.1s0.3,0.1,0.5,0.1c0.3,0,0.5,0.1,0.8,0.1c0.1,0,0.2,0,0.3,0.1c0.3,0,0.6,0.1,0.9,0.1h0.1
						c0.3,0.1,0.7,0.1,1,0.1c0,0,0,0,0.1,0c-0.3-2.2-0.6-4.2-0.9-6c-0.4-0.1-0.9-0.3-1.3-0.5c-1-0.3-1.9-0.7-2.9-1
						c-0.7-0.3-1.5-0.5-2.2-0.8c-0.9-0.3-1.9-0.7-2.8-1c-0.4-0.2-0.8-0.3-1.3-0.5C413.1,51.8,413.2,54.5,413.4,57.2z"/>
					<path id="XMLID_96_" class="st2" d="M403.1,48.2c0.1,1.6,0,4.2,0,7.3c0.1,0,0.2,0,0.3,0c0.7,0.1,1.5,0.3,2.2,0.4h0.1
						c0.7,0.1,1.4,0.2,2.1,0.4c0.1,0,0.2,0,0.2,0c-0.2-3.1-0.3-6.2-0.5-9.4c-0.1-0.1-0.3-0.1-0.4-0.2c-1-0.4-2-0.8-2.9-1.2
						c-0.4-0.2-0.9-0.4-1.4-0.6C403,46.5,403.1,47.6,403.1,48.2z"/>
					<path id="XMLID_97_" class="st2" d="M396.8,48.2c0.1,1.6,0.1,3.7,0.1,6.1c0.1,0,0.2,0,0.3,0c0.7,0.1,1.5,0.3,2.2,0.4
						c0,0,0,0,0.1,0c-0.2-3.9-0.4-7.8-0.6-11.7c-0.1-0.1-0.3-0.1-0.4-0.2c-0.2-0.1-0.4-0.2-0.5-0.2c-0.5-0.2-0.9-0.4-1.4-0.6
						C396.5,44.2,396.6,46.2,396.8,48.2z"/>
					<path id="XMLID_102_" class="st2" d="M384.5,37.2c0.3,5,0.5,10,0.8,15c0,0,0,0,0.1,0c1.9,0.4,3.8,0.8,5.7,1.1c0,0,0,0,0.1,0
						c-0.3-2.1-0.5-3.8-0.5-5.1c-0.1-1.4,0-4.6,0.1-8.8c-0.1,0-0.1-0.1-0.2-0.1c-0.4-0.2-0.7-0.3-1-0.5c-0.8-0.4-1.6-0.8-2.4-1.2
						c-0.4-0.2-0.8-0.4-1.3-0.6c-0.4-0.2-0.9-0.4-1.3-0.7C384.5,36.7,384.5,37,384.5,37.2z"/>
					<path id="XMLID_138_" class="st2" d="M372,31.7c0.3,5.9,0.6,11.9,0.9,17.8h0.1c1.6,0.4,3.2,0.7,4.8,1.1c0.1,0,0.2,0,0.3,0.1
						c1.6,0.3,3.3,0.7,4.9,1h0.1c-0.2-1.4-0.3-2.6-0.4-3.5c-0.1-2.2,0.1-6.9,0.3-12.7l0,0c-0.1-0.1-0.2-0.1-0.3-0.2
						c-1-0.5-2-1.1-2.9-1.6c-0.4-0.2-0.7-0.4-1.1-0.6c-0.7-0.4-1.3-0.7-2-1.1c-0.4-0.2-0.8-0.5-1.2-0.7c-0.6-0.3-1.2-0.7-1.7-1
						c-0.4-0.2-0.8-0.5-1.2-0.7c-0.3-0.2-0.7-0.4-1-0.6C371.9,30.3,372,31.2,372,31.7z"/>
					<path id="XMLID_140_" class="st2" d="M363,47.1c0.1,0,0.2,0.1,0.3,0.1c0.6,0.2,1.2,0.3,1.8,0.5c0.1,0,0.2,0,0.3,0.1
						c0.7,0.2,1.4,0.3,2.1,0.5c0.1,0,0.1,0,0.2,0.1c-0.2-3.7-0.4-7.4-0.6-11.1c-0.1-1.1,0-5.5-0.2-11.1c-0.3-0.2-0.7-0.4-1-0.6
						c-0.2-0.1-0.4-0.2-0.5-0.3c-0.7-0.5-1.4-0.9-2.1-1.4c-0.1-0.1-0.3-0.2-0.4-0.3c-0.5-0.4-1.1-0.7-1.6-1.1
						c-0.2-0.1-0.4-0.2-0.5-0.4c-0.1-0.1-0.3-0.2-0.4-0.3C361.3,32.4,362.7,43.2,363,47.1z"/>
					<path id="XMLID_315_" class="st2" d="M356.6,45.3h0.1c0.6,0.2,1.3,0.4,1.9,0.6c0.1,0,0.2,0,0.2,0.1c-0.5-8.8-0.9-17.5-1.4-26.3
						c-0.1-0.1-0.2-0.1-0.2-0.2c-0.1-0.1-0.3-0.2-0.4-0.3c-0.4-0.3-0.8-0.6-1.2-0.9c-0.1-0.1-0.2-0.2-0.4-0.3
						c-0.1,0-0.1-0.1-0.2-0.1C355.6,27.1,356.1,36.2,356.6,45.3z"/>
				</g>
				<g id="XMLID_76_">
					<path id="XMLID_77_" class="st2" d="M171,50.2c-0.4,0-0.9,0.1-1.3,0.1c-1.1,0.1-2.1,0.2-3.2,0.3c-0.4,0-0.7,0.1-1.1,0.1
						c-0.2,1.4-0.4,3-0.6,4.8l0,0c0.6,0,1.4,0,2.3,0h0.1c1,0,2.1,0,3.4,0l0,0C170.8,53.8,170.9,52,171,50.2z"/>
					<path id="XMLID_318_" class="st2" d="M183.3,48.6c-0.2,0-0.4,0.1-0.5,0.1c-0.9,0.1-1.9,0.3-2.9,0.4c-0.6,0.1-1.3,0.2-1.9,0.3
						c-1.1,0.1-2.2,0.3-3.3,0.4c-0.5,0.1-1,0.1-1.5,0.2c-0.2,1.6-0.4,3.5-0.8,5.6h0.1c3,0,6.5,0,10.4,0.1
						C183.1,53.3,183.2,50.9,183.3,48.6z"/>
					<path id="XMLID_319_" class="st2" d="M193.1,48.2c0-0.3,0.1-0.8,0.1-1.4c-0.3,0.1-0.7,0.1-1,0.2c-0.8,0.2-1.6,0.3-2.5,0.5
						c-0.4,0.1-0.7,0.1-1.1,0.2c-0.1,2.7-0.3,5.4-0.4,8.1l0,0c1.6,0,3.2,0,4.8,0.1c0,0,0,0,0.1,0C193.1,52.6,193,49.9,193.1,48.2z"
						/>
					<path id="XMLID_320_" class="st2" d="M199.5,48.2c0-0.9,0.1-1.9,0.1-2.8c-0.1,0-0.2,0-0.3,0.1c-0.1,0-0.3,0.1-0.4,0.1
						c-0.5,0.1-1.1,0.2-1.6,0.4c-0.2,3.3-0.3,6.6-0.5,9.9c0.1,0,0.2,0,0.3,0c0.7,0,1.3,0,2,0c0.1,0,0.2,0,0.3,0
						C199.4,52.8,199.4,50.1,199.5,48.2z"/>
					<path id="XMLID_321_" class="st2" d="M211.4,42.4c-0.2,0-0.3,0.1-0.5,0.1c-0.4,0.1-0.7,0.2-1.1,0.3c-0.7,0.2-1.5,0.4-2.3,0.6
						c-0.4,0.1-0.8,0.2-1.2,0.3c-0.3,0.1-0.5,0.1-0.8,0.2c0,2,0,3.4,0,4.3c-0.1,1.7-0.4,4.5-0.9,7.7c0,0,0,0,0.1,0
						c2,0,3.9,0.1,5.8,0.1l0,0C210.9,51.5,211.2,46.9,211.4,42.4z"/>
					<path id="XMLID_326_" class="st2" d="M223.8,38.5c-0.1,0-0.2,0.1-0.3,0.1c-0.3,0.1-0.6,0.2-0.9,0.3c-0.6,0.2-1.3,0.4-1.9,0.6
						c-0.4,0.1-0.7,0.2-1.1,0.3c-0.6,0.2-1.2,0.4-1.9,0.6c-0.4,0.1-0.7,0.2-1.1,0.4c-0.7,0.2-1.4,0.4-2,0.6
						c-0.4,0.1-0.7,0.2-1.1,0.3c-0.1,0-0.2,0.1-0.4,0.1c0.1,2.8,0.1,5.1,0.1,6.4c-0.1,1.8-0.5,4.6-1,7.8c0.1,0,0.2,0,0.3,0
						c0.7,0,1.4,0,2.1,0c0.2,0,0.4,0,0.5,0c0.8,0,1.5,0,2.3,0c0.2,0,0.3,0,0.5,0c1.6,0,3.1,0.1,4.6,0.1c0.1,0,0.2,0,0.3,0
						C223.2,50.3,223.5,44.4,223.8,38.5z"/>
					<path id="XMLID_327_" class="st2" d="M233.1,48.2c0.1-1.6,0.7-7,1.5-13.9c-0.2,0.1-0.5,0.2-0.7,0.3c-0.1,0-0.2,0.1-0.3,0.1
						c-0.6,0.3-1.3,0.5-2,0.8c-0.1,0.1-0.3,0.1-0.4,0.2c-0.6,0.2-1.3,0.5-1.9,0.8c0,0.3,0,0.5,0,0.7c-0.3,6.4-0.7,12.8-1,19.2
						c0.1,0,0.1,0,0.2,0c0.8,0,1.6,0,2.3,0.1c0.1,0,0.2,0,0.2,0c0.8,0,1.5,0.1,2.2,0.1l0,0C233.1,53,233,50,233.1,48.2z"/>
					<path id="XMLID_328_" class="st2" d="M238,32.9c-0.4,7.9-0.8,15.9-1.2,23.8h0.1c0.4,0,0.9,0,1.2,0.1c0.1,0,0.1,0,0.2,0
						c0.4,0,0.7,0,1,0.1h0.1c-0.1-3.5-0.1-6.6,0-8.6c0.3-5.5,0.6-10.9,0.9-16.4c-0.2,0.1-0.4,0.2-0.6,0.3c-0.1,0.1-0.2,0.1-0.3,0.2
						C239,32.5,238.5,32.7,238,32.9z"/>
				</g>
				<path id="XMLID_18_" class="st3" d="M354.4,72.1c33.7-2,88.4-9.8,115.2,16.9c24.9,24.9,12.7,66.5-14.6,82.6
					c-28,16.6-77.2,13.6-101.5-9.2C334.5,144.7,311.7,74.5,354.4,72.1c23.5-1.4,15.5-0.9,7.5-0.4C357.2,71.9,352.4,72.2,354.4,72.1"
					/>
				<path id="XMLID_47_" class="st3" d="M244.9,72.1c-33.7-2-88.4-9.8-115.2,16.9c-24.9,24.9-12.7,66.5,14.6,82.6
					c28,16.6,77.2,13.6,101.5-9.2C264.7,144.7,287.6,74.5,244.9,72.1c-23.5-1.4-15.5-0.9-7.5-0.4C242.1,71.9,246.9,72.2,244.9,72.1"
					/>
				<path id="XMLID_48_" class="st3" d="M244.9,72.4c-0.1,0-0.2,0-0.4,0L129.4,159c2.2,2.7,4.6,5.2,7.2,7.5
					c40.9-29.8,81.7-59.5,122.6-89.3C255.6,74.4,250.9,72.7,244.9,72.4"/>
				<path id="XMLID_49_" class="st3" d="M235.8,71.9c-1.3-0.1-2.3-0.1-3.2-0.2c-0.2,0-0.3,0-0.4,0H232c-0.3,0-0.6,0-0.9-0.1
					c-0.2,0-0.3,0-0.5,0s-0.4,0-0.6,0c-0.1,0-0.2,0-0.3,0h-0.2l0,0c-0.1,0-0.1,0,0,0l0,0c0.1,0,0.1,0,0.2,0s0.2,0,0.3,0
					c0.2,0,0.3,0,0.6,0c0.1,0,0.3,0,0.5,0c0.3,0,0.6,0,0.9,0.1h0.2c0.1,0,0.3,0,0.4,0C233.5,71.7,234.6,71.8,235.8,71.9
					c1,0.1,2.1,0.1,3.3,0.2l0,0c-33.9-2.3-84.1-8-109.4,17.3c-18.7,18.7-16.5,46.9-2.6,66.6l112-83.8C238,72,236.9,71.9,235.8,71.9"
					/>
				<path id="XMLID_50_" class="st3" d="M265.7,85.1c-10.1,7.4-20.1,14.7-30.2,22.1c-29.9,21.9-59.8,43.8-89.7,65.6
					c2.6,1.4,5.3,2.7,8.2,3.8c30.9-19.6,74.1-50,114.8-80.1C268.4,92.4,267.4,88.5,265.7,85.1"/>
				<path id="XMLID_51_" class="st3" d="M174.8,181.7c25.4,3.1,54.1-3.2,71-18.9c10.9-10.2,23.1-37.8,23.4-59.9
					C232,132.1,195.5,162.1,174.8,181.7"/>
				<path id="XMLID_52_" class="st3" d="M265.7,85.1c-1.6-3.2-3.7-5.9-6.5-8c-40.9,29.8-81.7,59.5-122.6,89.3
					c2.4,2.1,4.9,3.9,7.6,5.5c0.5,0.3,1,0.6,1.6,0.9c29.9-21.9,59.8-43.8,89.7-65.6C245.6,99.8,255.7,92.5,265.7,85.1"/>
				<path id="XMLID_53_" class="st3" d="M244.4,72.4L244.4,72.4c-0.2,0-0.4,0-0.7,0c-0.2,0-0.3,0-0.5,0c-0.4,0-0.8,0-1.2-0.1
					c-0.1,0-0.2,0-0.3,0c-0.8,0-1.7-0.1-2.6-0.2l-112,83.8c0.7,1,1.5,2.1,2.3,3.1L244.4,72.4L244.4,72.4"/>
				<path id="XMLID_55_" class="st3" d="M268.8,96.6c-40.7,30.1-83.9,60.5-114.8,80.1c6.4,2.5,13.4,4.2,20.8,5.1
					c20.7-19.5,57.2-49.6,94.3-78.8C269.1,100.7,269,98.6,268.8,96.6"/>
				<path id="XMLID_56_" class="st3" d="M473.3,93.5c-6.2,4.6-12.5,9.1-18.7,13.7c-29.4,21.5-58.9,43.1-88.3,64.6
					c2.6,1.4,5.4,2.7,8.3,3.9c28.5-18.2,67.1-45.2,104.5-72.7C477.6,99.7,475.7,96.5,473.3,93.5"/>
				<path id="XMLID_58_" class="st3" d="M394.4,181.1c21.4,3.5,44.5,0.4,60.6-9.1c21.1-12.5,33.1-40.1,26.1-63.5
					C446.8,135.5,414,162.8,394.4,181.1"/>
				<path id="XMLID_59_" class="st3" d="M454.8,79l-105.3,79.3c1.4,1.8,2.7,3.3,4.1,4.6c1,1,2.1,1.9,3.3,2.8
					c36.4-26.5,72.8-53,109.2-79.5C462.6,83.3,458.8,80.9,454.8,79"/>
				<path id="XMLID_60_" class="st3" d="M473.3,93.5c-1.1-1.4-2.4-2.8-3.7-4.2c-1.2-1.1-2.4-2.2-3.6-3.2
					c-36.4,26.5-72.8,53-109.2,79.5c2.9,2.3,6.1,4.4,9.4,6.2c29.4-21.5,58.9-43.1,88.3-64.6C460.8,102.6,467,98,473.3,93.5"/>
				<path id="XMLID_63_" class="st3" d="M451.1,77.3l-103.9,77.8c0.7,1.1,1.5,2.1,2.3,3.1l105.3-79.3
					C453.6,78.4,452.3,77.8,451.1,77.3"/>
				<path id="XMLID_64_" class="st3" d="M479.1,103c-37.4,27.5-76,54.5-104.5,72.7c6.3,2.5,13,4.3,19.9,5.4
					c19.5-18.3,52.4-45.5,86.7-72.6C480.5,106.6,479.9,104.8,479.1,103"/>
				<path id="XMLID_65_" class="st4" d="M354.4,72.1c33.7-2,88.4-9.8,115.2,16.9c24.9,24.9,12.7,66.5-14.6,82.6
					c-28,16.6-77.2,13.6-101.5-9.2C334.5,144.7,311.7,74.5,354.4,72.1c23.5-1.4,15.5-0.9,7.5-0.4C357.2,71.9,352.4,72.2,354.4,72.1"
					/>
				<path id="XMLID_66_" class="st4" d="M244.9,72.1c-33.7-2-88.4-9.8-115.2,16.9c-24.9,24.9-12.7,66.5,14.6,82.6
					c28,16.6,77.2,13.6,101.5-9.2C264.7,144.7,287.6,74.5,244.9,72.1c-23.5-1.4-15.5-0.9-7.5-0.4C242.1,71.9,246.9,72.2,244.9,72.1"
					/>
				<path id="XMLID_73_" class="st5" d="M129.6,158.8l-0.2,0.1c2.2,2.7,4.6,5.2,7.2,7.5l0.2-0.1C134.2,164,131.8,161.5,129.6,158.8"
					/>
				<path id="XMLID_94_" class="st6" d="M244.5,72.4l-114.9,86.5c2.2,2.7,4.6,5.2,7.2,7.4c40.8-29.7,81.6-59.4,122.4-89.1
					c-3.6-2.7-8.3-4.4-14.4-4.8C244.8,72.4,244.6,72.4,244.5,72.4"/>
				<path id="XMLID_322_" class="st5" d="M116.2,122.6c0,11.7,4.1,23.6,11,33.3l0.1-0.1C120.4,146.1,116.3,134.3,116.2,122.6"/>
				<path id="XMLID_323_" class="st6" d="M238.8,72.3l-72.4,1.2c-3.3,0.1-6.5,0.4-9.8,1c-10.4,3-19.7,7.7-27,14.9
					c-9.5,9.4-13.6,21.3-13.5,33.3c0.1,11.7,4.2,23.5,11.1,33.2L238.8,72.3"/>
				<path id="XMLID_324_" class="st5" d="M146.1,172.6l-0.2,0.2c2.6,1.4,5.3,2.7,8.2,3.8c0.1-0.1,0.2-0.1,0.3-0.2
					C151.5,175.3,148.7,174.1,146.1,172.6"/>
				<path id="XMLID_325_" class="st6" d="M265.7,85.1c-10.1,7.4-20.1,14.7-30.2,22.1c-29.8,21.8-59.6,43.6-89.5,65.5
					c2.6,1.4,5.4,2.7,8.3,3.8c16.8-10.7,37.2-24.5,58.9-39.7c0.7-1.8,1.6-3.1,2.4-3.3c0.3-0.1,0.6-0.1,0.9-0.1
					c0.4,0,0.8,0.1,1.2,0.2c7.2-5.1,14.6-10.4,22-15.7c2.3-5.9,9.5-19.4,16.4-20.5l0,0l0,0l0,0h0.1l0,0l0,0l0,0l0,0l0,0h0.1l0,0l0,0
					l0,0l0,0l0,0l0,0l0,0l0,0l0,0l0,0l0,0l0,0l0,0l0,0l0,0l0,0l0,0l0,0l0,0l0,0l0,0l0,0l0,0l0,0l0,0l0,0l0,0l0,0l0,0l0,0l0,0l0,0
					h0.1l0,0l0,0l0,0l0,0l0,0l0,0c0.9,0,1.8,0.2,2.6,0.7c1.1,0.6,2.1,1.6,3.1,3.1c2-1.5,4.1-3,6.1-4.5
					C268.4,92.4,267.4,88.5,265.7,85.1"/>
				<path id="XMLID_345_" class="st7" d="M205.7,180.6c-6,1-12,1.5-18.1,1.5c-4.2,0-8.4-0.2-12.5-0.7c-0.1,0.1-0.2,0.2-0.3,0.3
					c4.2,0.5,8.5,0.8,12.8,0.8c6.1,0,12.2-0.5,18.1-1.5C205.8,180.8,205.7,180.7,205.7,180.6 M241.9,165.7
					c-5.7,4.4-12.4,7.9-19.6,10.6c0,0.1,0.1,0.2,0.1,0.3c7.3-2.6,14-6.2,19.6-10.6L241.9,165.7 M269.1,102.9L269.1,102.9
					c-0.2,11-3.3,23.3-7.7,34.2v0.2C265.9,126.4,269,113.9,269.1,102.9"/>
				<path id="XMLID_352_" class="st8" d="M208.6,151.9c-13.2,11.1-24.7,21.2-33.5,29.5c4.1,0.5,8.3,0.7,12.5,0.7
					c6.1,0,12.1-0.5,18.1-1.5c-0.6-3.2-1.1-6.5-1.2-9.8C204.1,163.4,206,158.4,208.6,151.9 M237.3,128.3c-4.9,4-9.7,7.9-14.4,11.7
					c1.3,3.2,2.1,6.7,2.1,8.5l0,0c0,0.2,0,0.4,0,0.5c0,6.8-3.5,13.2-3.7,20c0,0.3,0,0.6,0,0.8c0,2.2,0.4,4.4,1,6.5
					c7.3-2.6,14-6.2,19.6-10.6C238.2,153.4,235.8,140.2,237.3,128.3 M269.1,102.9c-1.8,1.4-3.6,2.8-5.3,4.2
					c-0.5,3.7-2.2,7.7-2.6,10.7l0,0l0,0l0,0l0,0l0,0l0,0l0,0l0,0l0,0l0,0l0,0l0,0l0,0l0,0l0,0c-0.3,2.6-0.5,5.2-0.5,7.8
					c0,3.7,0.3,7.5,0.8,11.1C265.8,126.2,269,113.9,269.1,102.9"/>
				<path id="XMLID_353_" class="st9" d="M136.8,166.3l-0.2,0.1c2.4,2.1,4.9,3.9,7.6,5.5c0.5,0.3,1,0.6,1.6,0.9l0.2-0.2
					c-0.6-0.3-1.2-0.7-1.8-1C141.6,170,139.2,168.3,136.8,166.3"/>
				<path id="XMLID_354_" class="st10" d="M259.2,77.1L259.2,77.1c-40.8,29.7-81.6,59.4-122.4,89.1c2.3,2,4.8,3.8,7.4,5.3
					c0.6,0.4,1.2,0.7,1.8,1c29.8-21.8,59.6-43.6,89.5-65.5c10.1-7.4,20.1-14.7,30.2-22.1C264.2,82,262,79.2,259.2,77.1"/>
				<path id="XMLID_355_" class="st9" d="M127.3,155.8l-0.1,0.1c0.7,1,1.5,2.1,2.3,3.1l0.2-0.1C128.8,157.8,128,156.8,127.3,155.8"
					/>
				<path id="XMLID_356_" class="st10" d="M241.7,72.2h-2.9l-111.6,83.5c0.7,1,1.5,2.1,2.3,3.1l114.9-86.5h-0.1l0,0
					c-0.2,0-0.3,0-0.4,0h-0.2c-0.2,0-0.3,0-0.5,0s-0.4,0-0.6,0s-0.4,0-0.7,0C241.9,72.2,241.8,72.2,241.7,72.2"/>
				<path id="XMLID_388_" class="st9" d="M154.3,176.4c-0.1,0.1-0.2,0.1-0.3,0.2c6.4,2.5,13.4,4.2,20.8,5.1c0.1-0.1,0.2-0.2,0.3-0.3
					C167.8,180.5,160.7,178.9,154.3,176.4"/>
				<path id="XMLID_412_" class="st10" d="M213.3,136.7c-21.7,15.2-42.1,29.1-58.9,39.7c6.4,2.4,13.4,4.1,20.8,5
					c8.8-8.3,20.3-18.4,33.5-29.5c0.2-0.4,0.3-0.8,0.5-1.2C209.8,149,211.4,141.2,213.3,136.7 M239.8,117.8
					c-7.4,5.3-14.8,10.6-22,15.7c2.1,0.8,3.9,3.5,5.1,6.5c4.7-3.8,9.5-7.8,14.4-11.7c0.4-3.1,1-6.2,2-9.1
					C239.4,118.8,239.6,118.3,239.8,117.8 M268.8,96.6L268.8,96.6c-2,1.5-4.1,3-6.1,4.5c0.1,0.1,0.1,0.2,0.2,0.4l0,0
					c1,1.6,1.1,3.6,0.9,5.6c1.8-1.4,3.6-2.8,5.3-4.2v-0.2C269.1,100.6,269,98.5,268.8,96.6"/>
				<path id="XMLID_416_" class="st6" d="M411.6,138.6c-15,11-30.1,22-45.1,33c2.7,1.4,5.5,2.7,8.4,3.9
					c10.7-6.8,22.8-14.9,35.8-23.8C410.7,147.1,410.9,142.8,411.6,138.6 M473.3,93.5c-6.2,4.6-12.5,9.1-18.7,13.7
					c-7,5.1-14,10.2-21,15.4c0.9,3.9,1.6,7.7,2.3,11.6c14.2-10,28.8-20.6,43.3-31.2C477.6,99.7,475.7,96.5,473.3,93.5"/>
				<path id="XMLID_419_" class="st7" d="M394.7,180.8c-0.1,0.1-0.2,0.2-0.3,0.3c3.8,0.6,7.6,1,11.4,1.2c0-0.1,0.1-0.2,0.1-0.3
					C402.2,181.8,398.5,181.4,394.7,180.8 M483.1,124.9c-1,18.6-11.9,37.1-28,46.7c-5.5,3.3-11.9,5.8-18.7,7.5c0,0.1,0,0.2-0.1,0.3
					c6.8-1.7,13.2-4.3,18.8-7.5C471.3,162.3,482.1,143.7,483.1,124.9"/>
				<path id="XMLID_422_" class="st8" d="M410.1,166.9c-5.7,5-10.9,9.7-15.4,13.9c3.7,0.6,7.5,1,11.3,1.2c0.2-0.4,0.3-0.7,0.5-1.1
					l0,0C408.4,176.5,409.5,171.8,410.1,166.9 M481.1,108.4c-15.3,12.1-30.3,24.2-44,35.6c1.2,11.8,1.1,23.5-0.8,35.1
					c6.8-1.7,13.2-4.3,18.7-7.5c16.1-9.6,27-28.1,28-46.7C483.3,119.4,482.7,113.8,481.1,108.4"/>
				<path id="XMLID_423_" class="st6" d="M454.8,79l-99.6,75c0.1,1.7,0.1,3.5,0.1,5.2v0.1l0,0l0,0c0,1.5,0,3.2,0,4.8
					c0.5,0.5,1.1,0.9,1.7,1.4c20.3-14.8,40.6-29.6,60.9-44.3c0.1-0.2,0.3-0.5,0.4-0.7c3.4-5.5,6.4-8.5,8.8-8.5
					c0.8,0,1.5,0.3,2.2,0.9c12.2-8.9,24.4-17.8,36.6-26.7C462.6,83.3,458.8,80.9,454.8,79"/>
				<path id="XMLID_426_" class="st10" d="M417.9,121.1c-20.3,14.8-40.6,29.6-60.9,44.3c2.9,2.3,6.1,4.4,9.5,6.2
					c15-11,30.1-22,45.1-33C412.5,132.7,414.4,127,417.9,121.1 M466,86.1L466,86.1c-12.2,8.9-24.4,17.8-36.6,26.7
					c1.6,1.3,2.9,4.2,4,8.8l0,0l0,0l0,0l0,0l0,0l0,0l0,0l0,0l0,0l0,0l0,0l0,0l0,0l0,0l0,0l0,0l0,0v0.1l0,0c0,0.2,0.1,0.4,0.1,0.6
					c7-5.1,14-10.2,21-15.4c6.2-4.6,12.5-9.1,18.7-13.7c-1.1-1.4-2.4-2.8-3.7-4.2C468.4,88.1,467.2,87.1,466,86.1"/>
				<path id="XMLID_427_" class="st10" d="M451.1,77.3l-96.2,72c0.1,1.5,0.2,3,0.3,4.6l99.6-75C453.6,78.4,452.3,77.8,451.1,77.3"/>
				<path id="XMLID_433_" class="st10" d="M410.6,151.7c-12.9,8.9-25.1,16.9-35.8,23.8c6.3,2.5,13,4.2,19.9,5.3
					c4.5-4.2,9.6-8.8,15.4-13.9c0.4-3.3,0.6-6.6,0.5-9.8l0,0v-0.2C410.6,155.1,410.6,153.4,410.6,151.7 M479.1,103L479.1,103
					c-14.5,10.6-29.1,21.2-43.3,31.2c0.5,3.3,1,6.5,1.3,9.8c13.7-11.3,28.7-23.5,44-35.6C480.5,106.6,479.9,104.8,479.1,103"/>
				<path id="XMLID_440_" class="st11" d="M242,166c-5.7,4.4-12.4,8-19.6,10.6c0.7,2.3,1.6,4.5,2.8,6.6c10.9-3.2,16.5-7.1,19.5-9.2
					C243.7,171.3,242.8,168.7,242,166 M355.3,164.4c0,3.7,0.2,7.6,0.6,11.4c6.3,4,19.3,10.4,46.5,12.3c1.3-1.8,2.5-3.8,3.4-5.8
					c-3.8-0.2-7.7-0.6-11.4-1.2c-6.9-1.1-13.6-2.9-19.9-5.4c-2.9-1.1-5.7-2.4-8.3-3.9c-3.4-1.8-6.6-3.9-9.4-6.2
					C356.3,165.2,355.8,164.8,355.3,164.4 M153.6,75c-11.5,2.6-22.2,8.4-30.6,16.9c-7.3,7.4-13.6,17.8-14.4,30.1c0,0.3,0,0.6,0,0.9
					c-0.1-1.7-0.2-3.5-0.2-5.4c0-0.9,0-1.8,0-2.8c0,1,0,1.9,0,2.9c0,29.2,14.3,47.7,14.3,47.7s19.7,23.2,61.6,23.2
					c1.5,0,3,0,4.5-0.1c6.9-0.3,13-0.8,18.3-1.5c-0.6-2-1-4-1.4-6c-6,1-12.1,1.5-18.1,1.5c-4.3,0-8.6-0.3-12.8-0.8
					c-7.3-0.9-14.4-2.6-20.8-5.1c-2.9-1.1-5.6-2.4-8.2-3.8c-0.5-0.3-1.1-0.6-1.6-0.9c-2.7-1.6-5.3-3.5-7.6-5.5
					c-2.6-2.3-5-4.8-7.2-7.5c-0.8-1-1.6-2-2.3-3.1c-6.9-9.8-10.9-21.6-11-33.3c0-0.2,0-0.4,0-0.5c0-11.9,4.1-23.7,13.5-33.1
					C136.2,82.5,144.4,78,153.6,75 M280.3,71.6l-34.4,0.6c17,1.5,23.2,14.2,23.2,29.8c0,0.3,0,0.5,0,0.8v0.2
					c-0.1,11-3.2,23.5-7.7,34.4c0.2,1.7,0.5,3.4,0.8,5.1v0.1v0.1l0,0v0.1l0,0v0.1l0,0v0.1l0,0c0.5,3,1.2,6.2,2,9.4
					c6.4-11.9,12.3-29.9,12.7-55.7c0.7-0.8,1.4-1.6,2.1-2.4c0-1.1,0-2.3,0-3.4C279.2,85.2,279.2,78.2,280.3,71.6 M303.1,70.3h-0.9
					c-0.3,5.6-0.5,11-0.5,16.3h1.3c5.8,0.2,12.1,2.7,18,9.9c0.3,21.8,4.6,38,9.7,49.7c-0.4-16.5-6.8-34.7-0.4-49.3
					c1.2-12.5,7.1-22.3,20.5-24.5c0.1-0.1,0.3-0.2,0.4-0.3l-39.5-0.6L303.1,70.3 M431.2,63h0.3c16.3,0.4,32,6.8,43.4,18.5
					c7.3,7.4,13.6,17.8,14.4,30.1c0.1,2,0.2,4,0.2,6c0,1.8-0.1,3.6-0.2,5.4c0-0.3,0-0.6,0-0.9c-0.8-12.2-7.1-22.7-14.4-30.1
					c-6.9-7-15.4-12.2-24.6-15.2c7.3,2.9,13.8,6.9,19.3,12.3c9.4,9.4,13.5,21.2,13.5,33.1c0,1,0,1.9-0.1,2.9
					c-0.9,18.8-11.8,37.4-28,47c-5.5,3.3-11.9,5.8-18.8,7.5c-0.4,2.3-0.8,4.6-1.3,6.9c27.3-5.8,40.3-21.1,40.3-21.1
					s14.3-18.6,14.3-47.7c0-2-0.1-4-0.2-6.1c-0.8-12.2-7.1-22.7-14.4-30.1c-11.4-11.6-27.1-18.1-43.4-18.5L431.2,63"/>
				<path id="XMLID_441_" class="st3" d="M123,91.9c11.4-11.6,27.1-18.1,43.4-18.5L286,71.5l8.8-1.2h8.1l8.8,1.2l119.6,2
					c16.3,0.4,32,6.8,43.4,18.4c7.3,7.4,13.6,17.8,14.4,30.1c0,0.3,0,0.6,0,0.9c0.2-3.6,0.2-7.4,0-11.3
					c-0.8-12.2-7.1-22.7-14.4-30.1c-11.4-11.6-27.1-18.1-43.4-18.5l-119.6-2.2l-8.8-1.5h-8.1l-8.8,1.5l-119.6,2.1
					c-16.3,0.4-32,6.9-43.4,18.5c-7.3,7.4-13.6,17.9-14.4,30.1c-0.3,3.9-0.3,7.7,0,11.3c0-0.3,0-0.6,0-0.9
					C109.5,109.7,115.8,99.3,123,91.9"/>
			</g>
		</g>
	</g>
	<g>
		<g id="Layer_11" class="st0">
			<g id="XMLID_7_">
				<g>
					<path class="st12" d="M218.4,136.7c10.4,10.1,20.5,19.9,30.7,29.7c0.5-0.1,1.1-0.2,1.6-0.3c0.8-5.3,1.7-10.5,2.3-15.8
						c1.1-8.8,2.8-17.7,2.7-26.6c-0.1-8.3,4.3-13.9,8.8-20.6c9.5,11.7,18.8,23.1,28.1,34.4c0.5-0.3,1-0.5,1.5-0.8
						c0.3-1,0.8-2,0.9-3.1c0.4-10.9,0.7-21.9,1-32.9c0.3-10.6,0.4-21.3,1.1-31.8c0.2-3.7,1.9-7.3,3.3-12.3
						c14.5,13.9,28.4,27.2,42.9,41.1c3.9-5.2,7.8-10.1,11.4-15.1c7.8-10.8,7.7-10.8,15,0.1c13.3,20,26.6,39.9,40,59.9
						c0.9,1.3,2,2.5,3.7,4.7c5.8-11.9,11.1-22.8,16.7-34.2c5,5.7,9.7,10.9,14.3,16.2c7.7,8.9,15.3,17.8,22.9,26.8
						c9,10.6,17.9,21.2,27,31.8c6.9,8.1,13.9,16,20.8,24c9.5,11,18.9,22.2,28.3,33.2c6.6,7.7,13.1,15.4,19.9,22.8
						c3,3.2,3.1,6.3,1.6,10c-11.4,27.5-22.8,55-34.2,82.6c-5.9,14.2-11.8,28.4-17.9,42.6c-0.7,1.7-2.5,3.4-4.2,4.1
						c-16.7,7.2-33.5,14.2-50.4,21.1c-2.3,0.9-5.3,1.3-7.6,0.6c-25.5-7.8-50.8-15.8-76.3-23.7c-28.9-9-57.8-17.9-86.7-27
						c-1.3-0.4-2.6-1.2-3.5-2.2c-5.3-5.9-10.7-11.8-15.8-17.9c-1-1.2-1.5-3.3-1.5-5c-0.4-13.4-0.2-26.9-1.2-40.3
						c-0.7-9.3-2.4-18.5-6.6-27.2c-10.7-22.2-20.6-44.7-30.8-67.1c-3.3-7.2-6.3-14.5-9.4-21.8c-0.5-1.2-0.9-2.5-0.9-3.8
						c-0.1-18,0-36,0-54C218,138.3,218.3,137.5,218.4,136.7z"/>
				</g>
			</g>
		</g>
		<g id="Layer_10">
			<g id="XMLID_11_">
				<path id="XMLID_93_" class="st3" d="M235.8,71.9c-1.1-0.1-2.3-0.1-3.2-0.2C233.4,71.7,234.5,71.8,235.8,71.9"/>
				<path id="XMLID_95_" class="st3" d="M229.9,71.5c-0.1,0-0.2,0-0.3,0C229.7,71.5,229.8,71.5,229.9,71.5"/>
				<polyline id="XMLID_137_" class="st3" points="232.1,71.6 231.9,71.6 232.1,71.6 				"/>
				<path id="XMLID_141_" class="st3" d="M231,71.6c-0.2,0-0.3,0-0.5,0C230.6,71.6,230.8,71.6,231,71.6"/>
				<polyline id="XMLID_142_" class="st3" points="229.4,71.5 229.4,71.5 229.4,71.5 				"/>
				<path id="XMLID_143_" class="st3" d="M229.7,71.5c-0.1,0-0.2,0-0.2,0H229.7"/>
				<path id="XMLID_144_" class="st3" d="M229.4,71.5C229.3,71.5,229.3,71.5,229.4,71.5"/>
				<path id="XMLID_145_" class="st3" d="M230.5,71.6c-0.2,0-0.4,0-0.6,0C230.1,71.5,230.3,71.5,230.5,71.6"/>
				<path id="XMLID_146_" class="st3" d="M235.8,71.9c1.1,0.1,2.2,0.1,3.3,0.2l0,0C237.8,72,236.7,71.9,235.8,71.9"/>
				<path id="XMLID_147_" class="st3" d="M245.3,72.4c-0.1,0-0.2,0-0.4,0l0,0C245.1,72.4,245.2,72.4,245.3,72.4"/>
				<path id="XMLID_148_" class="st3" d="M231.9,71.6c-0.3,0-0.6,0-0.9-0.1C231.2,71.6,231.5,71.6,231.9,71.6"/>
				<polyline id="XMLID_149_" class="st3" points="245.3,72.4 245.3,72.4 245.3,72.4 				"/>
				<path id="XMLID_150_" class="st3" d="M232.6,71.7c-0.2,0-0.3,0-0.4,0C232.2,71.7,232.4,71.7,232.6,71.7"/>
				<path id="XMLID_151_" class="st3" d="M244.5,72.4c0.1,0,0.3,0,0.4,0l0,0C244.7,72.4,244.6,72.4,244.5,72.4"/>
				<path id="XMLID_152_" class="st3" d="M244.9,72.4c-0.1,0-0.2,0-0.4,0l0,0C244.6,72.4,244.7,72.4,244.9,72.4"/>
				<path id="XMLID_153_" class="st3" d="M242,72.2c-0.1,0-0.2,0-0.3,0C241.8,72.2,241.9,72.2,242,72.2"/>
				<path id="XMLID_154_" class="st3" d="M243.7,72.3c-0.1,0-0.3,0-0.5,0C243.4,72.3,243.5,72.3,243.7,72.3"/>
				<polyline id="XMLID_155_" class="st3" points="244.4,72.4 244.3,72.4 244.4,72.4 				"/>
				<path id="XMLID_156_" class="st3" d="M239.1,72.1c0.9,0.1,1.8,0.1,2.6,0.2C240.8,72.2,239.9,72.1,239.1,72.1L239.1,72.1"/>
				<path id="XMLID_157_" class="st3" d="M241.7,72.2c0.1,0,0.2,0,0.3,0c0.4,0,0.8,0,1.2,0.1c0.2,0,0.3,0,0.5,0s0.4,0,0.6,0l0,0h0.1
					l0,0c-1.7-0.1-3.5-0.2-5.4-0.3l0,0C239.9,72.1,240.8,72.2,241.7,72.2"/>
				<polyline id="XMLID_158_" class="st3" points="244.4,72.4 244.5,72.4 244.4,72.4 				"/>
				<path id="XMLID_159_" class="st3" d="M243.2,72.3c-0.4,0-0.8,0-1.2-0.1C242.4,72.2,242.8,72.3,243.2,72.3"/>
				<path id="XMLID_160_" class="st3" d="M244.3,72.4c-0.2,0-0.4,0-0.6,0C243.9,72.3,244.1,72.3,244.3,72.4"/>
				<path id="XMLID_161_" class="st3" d="M363.5,71.9c1.3-0.1,2.3-0.1,3.2-0.2C365.8,71.7,364.7,71.8,363.5,71.9"/>
				<polyline id="XMLID_162_" class="st3" points="354.9,72.4 355,72.4 354.9,72.4 				"/>
				<polyline id="XMLID_163_" class="st3" points="367.2,71.6 367.4,71.6 367.2,71.6 				"/>
				<polyline id="XMLID_164_" class="st3" points="369.9,71.5 369.9,71.5 369.9,71.5 				"/>
				<path id="XMLID_165_" class="st3" d="M355.6,72.3c0.2,0,0.3,0,0.5,0C355.9,72.3,355.7,72.3,355.6,72.3"/>
				<path id="XMLID_166_" class="st3" d="M357.3,72.2c0.1,0,0.2,0,0.3,0C357.5,72.2,357.4,72.2,357.3,72.2"/>
				<path id="XMLID_167_" class="st3" d="M368.3,71.6c0.2,0,0.3,0,0.5,0C368.7,71.6,368.5,71.6,368.3,71.6"/>
				<path id="XMLID_168_" class="st3" d="M369.4,71.5c0.1,0,0.2,0,0.3,0C369.6,71.5,369.5,71.5,369.4,71.5"/>
				<path id="XMLID_169_" class="st3" d="M368.8,71.6c0.2,0,0.4,0,0.6,0C369.2,71.5,369,71.5,368.8,71.6"/>
				<path id="XMLID_170_" class="st3" d="M356.1,72.3c0.4,0,0.8,0,1.2-0.1C356.9,72.2,356.5,72.3,356.1,72.3"/>
				<path id="XMLID_171_" class="st3" d="M367.4,71.6c0.3,0,0.6,0,0.9-0.1C368.1,71.6,367.8,71.6,367.4,71.6"/>
				<path id="XMLID_172_" class="st3" d="M355,72.4c0.2,0,0.4,0,0.6,0C355.4,72.3,355.2,72.3,355,72.4"/>
				<path id="XMLID_173_" class="st3" d="M366.7,71.7c0.2,0,0.3,0,0.4,0C367,71.7,366.9,71.7,366.7,71.7"/>
				<path id="XMLID_174_" class="st3" d="M357.6,72.2c1.8-0.1,3.9-0.2,5.9-0.3C361.9,72,360,72.1,357.6,72.2"/>
				<path id="XMLID_175_" class="st3" d="M354,72.4c0.1,0,0.2,0,0.4,0l0,0C354.2,72.4,354.1,72.4,354,72.4"/>
				<polyline id="XMLID_176_" class="st3" points="354,72.4 354,72.4 354,72.4 				"/>
				<path id="XMLID_177_" class="st3" d="M354.4,72.4L354.4,72.4c0.1,0,0.3,0,0.5,0C354.8,72.4,354.6,72.4,354.4,72.4"/>
				<path id="XMLID_178_" class="st3" d="M369.9,71.5C370,71.5,370,71.5,369.9,71.5"/>
				<path id="XMLID_179_" class="st3" d="M369.6,71.5h0.2C369.8,71.5,369.7,71.5,369.6,71.5"/>
				<path id="XMLID_182_" class="st8" d="M245.1,72.4h0.2H245.1 M244.9,72.4L244.9,72.4c0.1,0,0.2,0,0.3,0
					C245,72.4,245,72.4,244.9,72.4"/>
				<polyline id="XMLID_183_" class="st8" points="245.3,72.4 245.3,72.4 245.3,72.4 				"/>
				<path id="XMLID_184_" class="st8" d="M244.5,72.4c0.1,0,0.3,0,0.4,0l0,0C244.7,72.4,244.6,72.4,244.5,72.4"/>
				<path id="XMLID_185_" class="st8" d="M244.5,72.4L244.5,72.4c0.1,0,0.2,0,0.4,0C244.8,72.4,244.6,72.4,244.5,72.4"/>
				<path id="XMLID_188_" class="st10" d="M244.5,72.4h-0.1H244.5 M241.9,72.2h-0.2C241.8,72.2,241.9,72.2,241.9,72.2
					c0.3,0,0.5,0,0.8,0c0.2,0,0.4,0,0.6,0s0.3,0,0.5,0h0.2c0.2,0,0.3,0,0.4,0l0,0h0.1l0,0C243.6,72.3,242.8,72.3,241.9,72.2"/>
				<polyline id="XMLID_189_" class="st10" points="244.4,72.4 244.5,72.4 244.4,72.4 				"/>
				<path id="XMLID_192_" class="st10" d="M242.7,72.3L242.7,72.3c0.2,0,0.4,0,0.6,0C243,72.3,242.9,72.3,242.7,72.3 M242,72.2
					L242,72.2c0.2,0,0.5,0,0.7,0C242.4,72.2,242.2,72.2,242,72.2"/>
				<path id="XMLID_195_" class="st10" d="M243.9,72.3L243.9,72.3c0.1,0,0.3,0,0.4,0C244.2,72.4,244,72.3,243.9,72.3 M243.7,72.3
					L243.7,72.3h0.2H243.7"/>
				<polyline id="XMLID_196_" class="st9" points="269.1,102.7 269.1,102.9 269.1,102.9 269.1,102.7 				"/>
				<path id="XMLID_197_" class="st9" d="M394.4,181.1c0.1-0.1,0.2-0.2,0.3-0.3"/>
				<path id="XMLID_198_" class="st13" d="M389.5,310.3c9.6-18,15.5-37,21.7-56.3c6.1-19.3,14.4-37.9,20.8-57.1
					c8.1-24.3,7.1-50,1.4-75c-3.1-13.4-8.1-12.8-15.1-1.5c-7.3,11.9-7.8,22.8-7.7,36.6c0.2,14.8-3.6,31.7-17.9,39.8
					c-10.4,5.9-28.7,0.2-34-10.5c-3.6-7.4-3.4-18.5-3.5-27c-0.1-14.6-3-29.6-2.2-44.1c0.4-6.6,1.3-14.3,3.6-20.4
					c2.1-5.7,10.1-13.3,7.6-19.9c-6.5-17.1-28.2,12.6-31.9,18.4c-12.8,20.1,4.8,49-4.5,70.3c-4.1,9.2-8.3,1.2-11.1-4.9
					c-4.7-10-7.6-21.1-10.2-31.7c-5-20.3-5.6-37.8-4.3-58.1c0.4-6,1.8-12.9-5.2-15.3c-4.5-1.5-8.2,0.8-11,4.2
					c-6.9,8.2-6.8,23.1-6.9,33.2c-0.1,11.8,1,23.7,3.1,35.3c2.5,14,7.3,28.1,9,42.1c1.3,10,0.2,26.5-12,13.9
					c-9.8-10.2-14.6-26.1-17-39.6c-1.4-7.9-2.2-16.3-1.1-24.3c0.6-4.8,4.6-12.1,1.8-16.7c-8.7-14.1-21.6,11.5-23.6,17.7
					c-6.7,20.5,1.8,46.8,9.7,66.2c2.4,6,14.3,23.4,7.5,29.4c-7.2,6.3-18-12.1-21.1-16.4c-6.1-8.6-14.5-18.4-14.1-29.4
					c0.3-6.9,3.9-13.5,3.7-20.5c-0.1-3.9-3.7-16.6-9.4-15.1c-3,0.8-5.6,14.9-6.6,17.3c-2.9,7.1-5,12.2-4.6,20.1
					c0.7,14.4,6.7,28.6,12.7,41.5c10.9,23.2,25.9,44.4,38.6,66.5c6.5,11.3,8.5,23.8,9.4,36.7c0.4,5.2,0.9,10.8,0.2,16
					c-0.5,4.2-2.7,8.3-2.7,12.4c0.1,6.5,5.5,12.7,9.4,17.4c2.4,2.8,5,5.5,7.5,8.2c4,4.2,4,5,9.2,4.3c8.1-1.1,18.3-8.1,25.6-11.8
					c9.6-4.9,19-10.3,28.1-16.1C359.2,335.4,374.9,323.5,389.5,310.3c3.7-7,0.3-3.8-2.2-0.6C385,312.7,383.5,315.8,389.5,310.3"/>
				<path id="XMLID_199_" class="st14" d="M399.6,195.3c-5.6,6.2-13.1,8.9-21.1,8.9c-4.9,0-10-1-14.9-2.9c3,5,3,12,7,17
					c11-6,22-11,29-22V195.3"/>
				<path id="XMLID_200_" class="st14" d="M305.6,180.3c0,1.9-1.7,2.9-1.2,4.6c-1,3.9-2.7,8.6,0.2,12.4c1,0,3,0,4,0c0,1,0,2,0,3
					c0.3-0.1,0.7-0.2,1-0.2c1.1,0,2,0.6,2.7,1.2s1.1,1.2,1.3,1.2c0,0,0.1,0,0.1-0.2C317.6,193.3,306.6,188.3,305.6,180.3"/>
				<path id="XMLID_201_" class="st14" d="M280.6,205.3c-1,0-2,0-3,0c-3,5-2,14,5,16c2,0,6-1,6-2
					C289.6,213.3,283.6,210.3,280.6,205.3"/>
				<path id="XMLID_202_" class="st14" d="M272.4,203.2c-1.8,0-2.9,2.4-2.9,3.1c-2.6,6,0,19.3,5.1,19.3c0.9,0,1.8-0.4,2.9-1.3
					c3.9-2.9-10.3-13.5-3.5-20.5C273.4,203.4,272.9,203.2,272.4,203.2"/>
				<path id="XMLID_203_" class="st14" d="M237.3,231.4c-0.2,5,3.5,8.4,6.9,8.4c1.2,0,2.4-0.4,3.4-1.4c2-3-6-2-9-4
					C238,233.8,237.5,232.6,237.3,231.4"/>
				<path id="XMLID_204_" class="st14" d="M252.4,243.1c5.4,8.8,14.4,14.4,21.1,23.3c3.8,6.1,7.7,12.2,12.8,17.8
					c3.3,4.8-0.8,13.9,2.4,14.2c0.1,0,0.2,0,0.3,0c12.4,0,0.1-20.7-4.6-27.1C275.3,260.1,262.1,253.6,252.4,243.1"/>
				<path id="XMLID_205_" class="st14" d="M316.6,209.3c0,5-1,11,2,15c15,23,6,47-6,68c13-11,18-28,18-43
					C330.6,236.3,328.6,220.3,316.6,209.3"/>
				<path id="XMLID_206_" class="st14" d="M337.5,108c-3.3,0.5-6.6,1.1-9.9,2c0,0.8,0,1.5,0,2.3C330.7,110.1,334.1,108.8,337.5,108"
					/>
				<path id="XMLID_207_" class="st14" d="M327.7,116.3c0,0.3,0,0.6,0,0.9c4-0.4,8.1-0.6,12.1-0.6c1.9,0,3.7,0,5.6,0.1v-0.1
					C339.6,116.4,333.6,116.3,327.7,116.3"/>
				<path id="XMLID_208_" class="st14" d="M214.4,166.5c-3.4,0.5-6.7,1.2-9.9,2.3c0,0.4,0,0.7,0,1.1c3.3-0.9,6.6-1.5,9.9-3
					C214.4,166.7,214.4,166.6,214.4,166.5"/>
				<path id="XMLID_209_" class="st14" d="M211.2,164.3c-2.3,0.3-4.5,0.9-6.6,1.7c0,0.1,0,0.2,0,0.3
					C206.8,165.7,209,165,211.2,164.3"/>
				<path id="XMLID_210_" class="st14" d="M345.7,107.2c-2.8,0-5.5,0.2-8.2,0.8c2.8-0.4,5.6-0.7,8.4-0.7v-0.1L345.7,107.2"/>
				<path id="XMLID_211_" class="st14" d="M280.6,111.3c-0.2,0-0.3,0-0.5,0l0,0C280.3,111.3,280.4,111.3,280.6,111.3"/>
				<path id="XMLID_212_" class="st14" d="M288.2,101.9c-2.9,0.8-5.8,1.7-8.6,2.7c0,0.4,0.1,0.8,0.1,1.3
					C282.5,104.6,285.3,103.2,288.2,101.9"/>
				<path id="XMLID_213_" class="st14" d="M305.1,304.6c-16,0-30,12.4-33.2,30.9c0.3-0.4,0.7-0.6,0.7-1.2c0,2.7-0.8,5.4-2.4,7.3
					c2.2,0.2,4.4,0.3,6.7,0.3c17.7,0,36.4-7.1,45.7-20.7c-4,2-7,4-12,4c9-4,5-19,1-20C309.4,304.8,307.2,304.6,305.1,304.6"/>
				<path id="XMLID_214_" class="st14" d="M241.6,227.3c-3,7,7,3,9,10c1-1,3-2,3-3C251.6,228.3,247.6,228.3,241.6,227.3"/>
				<path id="XMLID_215_" class="st14" d="M336.9,170.7c-1,0-2.1,0.2-3.3,0.6c-1,0-4.7,0.9-4.1,4.6c1.1-0.5,2.2-0.7,3.1-0.7
					c5.2,0,7.9,6,12,10.1c0.4,0,1.1,0.2,1.8,0.2c1,0,1.8-0.4,1.2-2.2C345,178.1,343.1,170.7,336.9,170.7"/>
				<path id="XMLID_216_" class="st14" d="M308.7,179.4c1.7,8.4,11.6,14.3,6.8,21.9c1,0,3,0,4,0c4-4,2-9-2-13c-1-1,0-3,1-4
					C314.6,183.3,312.6,180.4,308.7,179.4"/>
				<path id="XMLID_227_" class="st15" d="M433.4,122L433.4,122L433.4,122 M433.4,121.9L433.4,121.9L433.4,121.9 M433.4,121.8
					L433.4,121.8L433.4,121.8 M433.4,121.8L433.4,121.8L433.4,121.8 M433.3,121.7L433.3,121.7L433.3,121.7 M433.3,121.7L433.3,121.7
					L433.3,121.7 M433.3,121.7L433.3,121.7L433.3,121.7 M433.3,121.6L433.3,121.6L433.3,121.6 M433.3,121.6L433.3,121.6L433.3,121.6
					 M433.3,121.6L433.3,121.6L433.3,121.6"/>
				<path id="XMLID_228_" class="st14" d="M427.6,111.9c0,0.5,0,0.9,0,1.4c-2,11,1,24,9,33c0.3,0,0.5,0.1,0.7,0.2
					c-0.7-8.2-2-16.4-3.9-24.5l0,0v-0.1l0,0l0,0l0,0l0,0l0,0l0,0l0,0l0,0l0,0l0,0l0,0l0,0l0,0l0,0l0,0l0,0l0,0
					C431.8,115.3,429.9,112.2,427.6,111.9"/>
				<path id="XMLID_244_" class="st16" d="M356.8,94.6L356.8,94.6L356.8,94.6 M356.8,94.6L356.8,94.6L356.8,94.6 M356.8,94.5
					L356.8,94.5L356.8,94.5 M356.8,94.5L356.8,94.5L356.8,94.5 M356.8,94.5L356.8,94.5L356.8,94.5 M356.8,94.5L356.8,94.5
					L356.8,94.5 M356.8,94.4L356.8,94.4L356.8,94.4 M356.8,94.4L356.8,94.4L356.8,94.4 M356.8,94.4L356.8,94.4L356.8,94.4
					 M356.9,94.3L356.9,94.3L356.9,94.3 M356.9,94.3L356.9,94.3L356.9,94.3 M356.9,94.3L356.9,94.3L356.9,94.3 M356.9,94.3
					L356.9,94.3L356.9,94.3 M356.9,94.2L356.9,94.2L356.9,94.2 M356.9,94.2L356.9,94.2L356.9,94.2"/>
				<polyline id="XMLID_245_" class="st17" points="355.3,159.2 355.3,159.2 355.3,159.2 				"/>
				<path id="XMLID_246_" class="st18" d="M356,175.7c0.2,1.2,0.3,2.4,0.6,3.5l0,0C356.3,178.1,356.1,177,356,175.7L356,175.7"/>
				<path id="XMLID_247_" class="st19" d="M355.3,164.4c0,3.7,0.2,7.6,0.6,11.4l0,0C355.5,172,355.4,168.1,355.3,164.4L355.3,164.4"
					/>
				<path id="XMLID_248_" class="st20" d="M355.3,164.1c0,0.1,0,0.2,0,0.3l0,0C355.3,164.3,355.3,164.2,355.3,164.1L355.3,164.1"/>
				<path id="XMLID_249_" class="st17" d="M355.3,159.2c0,1.5,0,3.2,0,4.8l0,0C355.3,162.4,355.3,160.8,355.3,159.2"/>
				<path id="XMLID_250_" class="st14" d="M364.8,77.7c-0.1,0.7-0.4,1.2-1.2,1.6c-7.7,7.7-15.4,17.1-17.6,27.9l0,0v0.1l0,0
					c-0.6,3-0.8,6.1-0.5,9.3l0,0v0.1l0,0c0,0.2,0,0.4,0.1,0.6c2,18,8,36,6,55c0,0.7,0.2,1.4,0.5,2l0,0c0.9,1.9,3,3.5,4.5,5l0,0l0,0
					l0,0l0,0l0,0c-0.2-1.1-0.4-2.3-0.6-3.5c-0.5-3.7-0.6-7.7-0.6-11.4c0-0.1,0-0.2,0-0.3c0-1.7,0-3.3,0-4.8l0,0l0,0v-0.1
					c0-1.7-0.1-3.5-0.1-5.2c-0.1-1.5-0.2-3-0.3-4.6c-0.7-9.6-1.9-19.3-1.9-28.8c0-1.8,0-3.6,0.1-5.4c0.4-6.6,1.3-14.3,3.6-20.4l0,0
					l0,0l0,0l0,0l0,0l0,0l0,0l0,0l0,0l0,0l0,0l0,0l0,0l0,0l0,0l0,0l0,0l0,0l0,0l0,0l0,0l0,0l0,0l0,0l0,0l0,0l0,0l0,0l0,0
					C358.9,89.4,364.6,83.3,364.8,77.7"/>
				<polyline id="XMLID_251_" class="st21" points="345.5,116.6 345.5,116.7 345.5,116.7 345.5,116.6 345.5,116.6 				"/>
				<polyline id="XMLID_252_" class="st21" points="346,107.2 345.9,107.3 346,107.3 346,107.2 346,107.2 				"/>
				<path id="XMLID_261_" class="st22" d="M261.1,118.1L261.1,118.1L261.1,118.1 M261.1,118L261.1,118L261.1,118 M261.1,118
					L261.1,118L261.1,118 M261.1,118L261.1,118L261.1,118 M261.1,117.9L261.1,117.9L261.1,117.9 M261.1,117.9L261.1,117.9
					L261.1,117.9 M261.2,117.9L261.2,117.9L261.2,117.9 M261.2,117.8L261.2,117.8L261.2,117.8"/>
				<path id="XMLID_266_" class="st19" d="M262.3,142.7L262.3,142.7L262.3,142.7 M262.3,142.6L262.3,142.6L262.3,142.6 M262.3,142.6
					L262.3,142.6L262.3,142.6 M262.3,142.5L262.3,142.5L262.3,142.5"/>
				<path id="XMLID_267_" class="st18" d="M264.3,152.2L264.3,152.2c2.6,10.2,6.7,20.5,13.4,28.2l0,0
					C271.1,172.7,266.9,162.3,264.3,152.2"/>
				<path id="XMLID_268_" class="st19" d="M262.3,142.8c0.5,3,1.2,6.2,2,9.4l0,0C263.5,149,262.9,145.8,262.3,142.8"/>
				<path id="XMLID_269_" class="st14" d="M263.8,107c-0.1,0.1-0.1,0.2-0.2,0.3c-8,12-7,27-7,40c0,1,2,4,3,5
					c5.7,9.5,7.8,22.5,18.2,28.1c-6.7-7.7-10.8-18.1-13.4-28.2c-0.8-3.2-1.5-6.3-2-9.4l0,0v-0.1l0,0v-0.1l0,0v-0.1l0,0v-0.1v-0.1
					c-1-5.4-1.6-11-1.6-16.5c0-2.6,0.1-5.2,0.5-7.8l0,0l0,0l0,0l0,0l0,0l0,0l0,0l0,0l0,0l0,0l0,0l0,0l0,0l0,0l0,0
					C261.6,114.7,263.3,110.7,263.8,107"/>
				<path id="XMLID_279_" class="st18" d="M392.3,196.9L392.3,196.9L392.3,196.9 M392.4,196.9L392.4,196.9L392.4,196.9 M392.8,196.7
					L392.8,196.7L392.8,196.7 M392.9,196.6L392.9,196.6L392.9,196.6 M392.9,196.6L392.9,196.6L392.9,196.6 M393,196.6L393,196.6
					L393,196.6 M393,196.6L393,196.6L393,196.6 M401.1,189.8c-2.2,2.6-4.9,4.9-8.1,6.7C396.2,194.7,398.9,192.4,401.1,189.8
					L401.1,189.8 M360.9,189.5L360.9,189.5c4.9,5.9,13.8,9.6,21.9,9.6c3.4,0,6.7-0.7,9.5-2.1c-2.8,1.4-6.1,2.1-9.5,2.1
					C374.7,199.1,365.8,195.4,360.9,189.5"/>
				<path id="XMLID_280_" class="st14" d="M360.9,189.5c0.9,2.2,1.9,4.2,3.2,6l0,0c2.2,3.1,5,5.4,9.5,5.8c2.1,0.4,4.1,0.6,6.2,0.6
					c9.2,0,17.4-4.3,21.3-12.1c-2.2,2.6-4.9,4.9-8,6.7l0,0l0,0l0,0l0,0l0,0l0,0l0,0l0,0l0,0l0,0l0,0c-0.1,0.1-0.3,0.2-0.4,0.2l0,0
					l0,0l0,0h-0.1c-2.8,1.4-6.1,2.1-9.5,2.1C374.7,199.1,365.8,195.4,360.9,189.5"/>
				<path id="XMLID_281_" class="st22" d="M410.1,166.9L410.1,166.9c-0.6,4.8-1.7,9.6-3.6,14l0,0
					C408.4,176.5,409.5,171.7,410.1,166.9"/>
				<path id="XMLID_282_" class="st15" d="M410.6,157.1c0,3.2-0.1,6.5-0.5,9.8l0,0C410.5,163.7,410.7,160.4,410.6,157.1L410.6,157.1
					"/>
				<path id="XMLID_283_" class="st14" d="M410.6,157.2c0,3.2-0.1,6.5-0.5,9.8c-0.6,4.8-1.7,9.6-3.6,13.9c4.8-5.7,7.7-12.4,5.1-19.6
					C411.2,160,410.9,158.6,410.6,157.2"/>
				<path id="XMLID_284_" class="st18" d="M301.7,86.6L301.7,86.6c0,13.3,1.4,26,4.9,40.1c0.1,0.2,0.1,0.4,0.2,0.6
					c-0.1-0.2-0.1-0.4-0.2-0.6C303.1,112.7,301.7,99.9,301.7,86.6"/>
				<path id="XMLID_285_" class="st19" d="M302.2,70.3L302.2,70.3c-0.3,5.6-0.5,11-0.5,16.3l0,0C301.7,81.3,301.9,75.9,302.2,70.3"
					/>
				<path id="XMLID_286_" class="st23" d="M302.3,68.7L302.3,68.7c0,0.5-0.1,1-0.1,1.6l0,0C302.2,69.8,302.3,69.3,302.3,68.7"/>
				<path id="XMLID_289_" class="st18" d="M316.9,158.7c1.9,4.1,4.4,9,7.1,9c0.2,0,0.4,0,0.6-0.1l0,0c-0.2,0.1-0.4,0.1-0.6,0.1
					C321.3,167.6,318.8,162.8,316.9,158.7 M316.8,158.5L316.8,158.5L316.8,158.5"/>
				<path id="XMLID_290_" class="st14" d="M302.3,68.7c-6.6,29.2-0.8,58.3,9.3,86.6c2,5,6,11,13,13c0-0.3,0-0.5,0-0.8
					c-0.2,0.1-0.4,0.1-0.6,0.1c-2.7,0-5.2-4.9-7.1-9l0,0v-0.1l0,0c-4.6-9.8-7.5-20.6-10.1-31.1c-0.1-0.2-0.1-0.4-0.2-0.6
					c-3.5-14.1-4.8-26.9-4.9-40.1c0-5.3,0.2-10.7,0.5-16.3C302.2,69.8,302.3,69.3,302.3,68.7"/>
				<path id="XMLID_299_" class="st18" d="M252.2,216L252.2,216L252.2,216 M252.2,216L252.2,216L252.2,216 M252.2,215.9L252.2,215.9
					L252.2,215.9 M252.1,215.9L252.1,215.9L252.1,215.9 M252.1,215.9L252.1,215.9L252.1,215.9 M252.1,215.9L252.1,215.9L252.1,215.9
					 M256.8,214.4c-0.1,0.1-0.2,0.2-0.3,0.3c-0.3,0.3-0.6,0.5-0.9,0.7c0.3-0.2,0.6-0.4,0.9-0.7C256.6,214.6,256.7,214.5,256.8,214.4
					L256.8,214.4 M243.8,209.9L243.8,209.9c2.6,3,5.5,5.5,8.3,6C249.4,215.4,246.5,212.9,243.8,209.9"/>
				<path id="XMLID_300_" class="st14" d="M243.8,209.9c1.2,2.8,3.9,5.5,5.8,6.4c0.7,0.7,1.6,1,2.5,1c1.8,0,3.6-1.2,4.7-2.9
					c-0.1,0.1-0.2,0.2-0.3,0.3c-0.3,0.3-0.6,0.5-0.9,0.7c-0.8,0.4-1.6,0.6-2.4,0.6c-0.3,0-0.6,0-1-0.1l0,0l0,0l0,0l0,0l0,0l0,0l0,0
					l0,0l0,0l0,0l0,0l0,0C249.4,215.4,246.5,212.9,243.8,209.9"/>
				<path id="XMLID_301_" class="st18" d="M280,182.9L280,182.9c2.7,2.6,4.8,3.7,6.5,3.7h0.2h0.1h-0.3
					C284.9,186.6,282.8,185.5,280,182.9"/>
				<path id="XMLID_302_" class="st14" d="M280.1,182.9c1.5,2.1,3.1,3.8,5.4,3.8c0.4,0,0.8-0.1,1.3-0.2h-0.2
					C284.9,186.6,282.8,185.5,280.1,182.9"/>
				<path id="XMLID_303_" class="st18" d="M356.5,179.3c0.5,2.5,1.2,4.8,2.2,6.9c0.6,1.2,1.3,2.3,2.2,3.3l0,0
					c-0.9-1-1.6-2.1-2.2-3.3C357.7,184.1,357,181.8,356.5,179.3L356.5,179.3"/>
				<path id="XMLID_304_" class="st14" d="M352,174.3c-0.8,8.5,4.4,17.1,12.1,21.2c-1.2-1.8-2.2-3.8-3.2-6c-0.9-1-1.6-2.2-2.2-3.3
					c-1-2.1-1.7-4.4-2.2-6.9l0,0l0,0l0,0l0,0l0,0C355,177.7,352.9,176.2,352,174.3"/>
				<path id="XMLID_308_" class="st21" d="M356.5,179.3L356.5,179.3L356.5,179.3 M356.5,179.2L356.5,179.2L356.5,179.2 M352,174.3
					L352,174.3c0.9,1.9,3,3.5,4.5,5C355,177.7,352.9,176.2,352,174.3"/>
				<polyline id="XMLID_309_" class="st24" points="360.9,189.5 360.9,189.5 360.9,189.5 360.9,189.5 				"/>
				<path id="XMLID_310_" class="st21" d="M360.9,189.5c0.9,2.2,1.9,4.2,3.2,6l0,0C362.9,193.7,361.9,191.7,360.9,189.5L360.9,189.5
					"/>
				<path id="XMLID_311_" class="st18" d="M412.3,250.6c-0.4,1.1-0.7,2.3-1.1,3.4c-5.2,16.4-10.2,32.5-17.5,48
					c7.3-15.5,12.3-31.6,17.5-48C411.6,252.8,411.9,251.7,412.3,250.6"/>
				<path id="XMLID_312_" class="st14" d="M421.9,224.2c-0.7,0.8-1.5,1.5-2.4,2.1c-5,9-9,19-13,29c-9,19-21,35-26,58
					c-0.8,2.5-2,4.9-3.2,7.5c3.8-3.1,7.5-6.3,11.1-9.5l-0.1,0.1l0,0l0,0l0,0l0,0l0,0l0,0l0,0l-0.2,0.2l0,0c-1.4,1.2-2.2,1.7-2.5,1.7
					l0,0l0,0c-0.6,0,0.5-1.8,1.9-3.6l0.1-0.1l0.1-0.1c1.4-1.7,2.9-3.4,3.5-3.4c0.4,0,0.2,1.1-1.3,4l0,0l0,0l0,0l0,0l0,0l0,0l0,0l0,0
					c1.5-2.7,2.8-5.5,4.1-8.3c7.3-15.5,12.3-31.6,17.5-48c0.4-1.1,0.7-2.3,1.1-3.4C415.2,241.7,418.6,233,421.9,224.2"/>
				<path id="XMLID_313_" class="st14" d="M358.2,69.5c-4,0-9.1,3.8-13.6,8.5c0.3,0,0.5,0,0.8,0c4,0,6.9,1.5,9.2,5.3
					c1.9-4.7,9.8-4.1,9.3-9.7C362.4,70.7,360.5,69.5,358.2,69.5"/>
				<path id="XMLID_314_" class="st14" d="M294.3,52.9c-1.8,0-3.5,0.6-5,1.6l0,0l0,0l0,0l0,0l0,0l0,0l0,0l0,0l0,0
					c-1.5,2.1-2.4,4.5-2.6,7.2l0,0l0,0c0,0.5-0.1,0.9-0.1,1.4c1.5-1,3.3-1.8,4.9-1.8s3.1,0.7,4.1,2.7c2-2.9,0.1-7.8,3.7-9.8
					c-0.6-0.4-1.4-0.8-2.2-1.1c-0.1,0-0.2-0.1-0.3-0.1C295.9,53,295.1,52.9,294.3,52.9"/>
				<path id="XMLID_601_" class="st17" d="M256.2,97.3L256.2,97.3L256.2,97.3 M256.2,97.3L256.2,97.3L256.2,97.3 M256.3,97.3
					L256.3,97.3L256.3,97.3 M256.3,97.3L256.3,97.3L256.3,97.3 M256.4,97.3L256.4,97.3L256.4,97.3 M256.4,97.3L256.4,97.3
					L256.4,97.3 M256.4,97.3L256.4,97.3L256.4,97.3 M256.5,97.3L256.5,97.3L256.5,97.3 M256.5,97.3L256.5,97.3L256.5,97.3
					 M256.5,97.3L256.5,97.3L256.5,97.3 M256.6,97.3L256.6,97.3L256.6,97.3 M256.6,97.3L256.6,97.3L256.6,97.3 M256.6,97.3
					L256.6,97.3L256.6,97.3 M256.6,97.3L256.6,97.3L256.6,97.3 M256.7,97.3L256.7,97.3L256.7,97.3 M256.7,97.3L256.7,97.3
					L256.7,97.3 M256.7,97.3L256.7,97.3L256.7,97.3 M256.8,97.3L256.8,97.3L256.8,97.3 M256.8,97.3L256.8,97.3L256.8,97.3
					 M256.8,97.3L256.8,97.3L256.8,97.3 M256.8,97.3L256.8,97.3L256.8,97.3 M256.9,97.2L256.9,97.2L256.9,97.2 M256.9,97.2
					L256.9,97.2L256.9,97.2 M257,97.2L257,97.2L257,97.2 M257,97.2L257,97.2L257,97.2c0.9,0,1.8,0.2,2.6,0.7
					C258.8,97.5,257.9,97.2,257,97.2"/>
				<polyline id="XMLID_602_" class="st15" points="262.9,101.4 262.9,101.4 262.9,101.5 262.9,101.4 				"/>
				<path id="XMLID_603_" class="st14" d="M257,97.2L257,97.2L257,97.2L257,97.2L257,97.2L257,97.2L257,97.2h-0.2l0,0l0,0l0,0l0,0
					l0,0l0,0l0,0l0,0l0,0l0,0l0,0l0,0l0,0l0,0l0,0l0,0l0,0l0,0l0,0l0,0l0,0l0,0l0,0l0,0l0,0l0,0l0,0l0,0l0,0l0,0l0,0l0,0h-0.1l0,0
					l0,0l0,0l0,0l0,0h-0.1l0,0l0,0l0,0c-4.5,0.7-9.1,6.7-12.4,12.4c0,0.2-0.1,0.3-0.2,0.6c1.5,0.3,2.8,0.4,4,0.4
					c7,0,10.2-4,15.7-8.6c-0.1-0.2-0.2-0.5-0.3-0.7l0,0c-1-1.7-2.1-2.8-3.3-3.5C258.8,97.5,257.9,97.2,257,97.2"/>
				<path id="XMLID_604_" class="st14" d="M299.3,54.5L299.3,54.5c-3.6,2.1-1.8,6.9-3.7,9.8c-1-2-2.5-2.7-4.1-2.7s-3.4,0.7-4.9,1.8
					c0-0.5,0-0.9,0.1-1.4c-0.3,0.5-0.6,1-1.1,1.4l0.1,0.1l0.1,0.1c1.6,1.6,3.8,3.1,5.6,3.1l0,0l0,0c0.4,0,0.8-0.1,1.2-0.3l0,0l0,0
					l0,0l0,0l0,0l0,0l0,0l0,0l0,0l0,0c1.9-0.4,3.5-1.5,4.7-3.1l0,0c1.7-2.2,2.6-5.3,2.4-8.5C299.6,54.7,299.5,54.6,299.3,54.5"/>
				<path id="XMLID_607_" class="st21" d="M286.6,61.9L286.6,61.9c0,0.5-0.1,0.9-0.1,1.4C286.6,62.8,286.6,62.4,286.6,61.9
					 M299.3,54.5c-3.6,2.1-1.8,6.9-3.7,9.8c-1-2-2.5-2.7-4.1-2.7s-3.4,0.7-4.9,1.8c1.5-1,3.3-1.8,4.9-1.8s3.1,0.7,4.1,2.7
					C297.5,61.4,295.7,56.5,299.3,54.5"/>
				<path id="XMLID_608_" class="st14" d="M289.3,54.5c-0.9,0.6-1.8,1.4-2.6,2.2c-1.2,3.1-2.8,6.1-1.2,8.5c0.8,1.2,2.9,2,5,2
					c2.8,0,5.8-1.2,6.7-4c-1.2,1.5-2.8,2.6-4.6,3.1l0,0l0,0l0,0l0,0l0,0l0,0l0,0l0,0l0,0l0,0c-0.4,0.2-0.7,0.3-1.2,0.3l0,0l0,0
					c-1.8,0-4-1.5-5.6-3.1l-0.1-0.1l-0.1-0.1c0.4-0.4,0.8-0.9,1.1-1.4c0.2-2.7,1.1-5.2,2.6-7.2l0,0l0,0L289.3,54.5L289.3,54.5
					L289.3,54.5L289.3,54.5L289.3,54.5L289.3,54.5L289.3,54.5"/>
				<path id="XMLID_619_" class="st21" d="M291.4,66.6L291.4,66.6L291.4,66.6 M292.5,66.3c-0.4,0.2-0.7,0.3-1.2,0.3
					C291.8,66.6,292.2,66.5,292.5,66.3 M292.6,66.3L292.6,66.3 M292.6,66.3L292.6,66.3L292.6,66.3 M292.6,66.3L292.6,66.3
					L292.6,66.3 M292.7,66.3L292.7,66.3L292.7,66.3 M292.7,66.3L292.7,66.3L292.7,66.3 M285.6,63.4l0.1,0.1L285.6,63.4 M285.6,63.3
					L285.6,63.3 M297.3,63.2c-1.2,1.6-2.8,2.7-4.7,3.1C294.6,65.9,296.1,64.8,297.3,63.2L297.3,63.2"/>
				<path id="XMLID_620_" class="st14" d="M215.2,133.6c-1.9,1.3-3.6,7.5-4.8,12.2c4.7-1.8,8.5-7.6,6.1-11.5
					C216.3,134,215.8,133.8,215.2,133.6"/>
				<path id="XMLID_623_" class="st18" d="M432.8,194.5c-0.2,0.8-0.5,1.6-0.8,2.4v0.1v-0.1C432.3,196.1,432.5,195.3,432.8,194.5
					 M432.8,194.4L432.8,194.4L432.8,194.4"/>
				<path id="XMLID_624_" class="st14" d="M427.3,136.5c-1,4.5-4.3,9.5-1.7,13.8c5.8,14.8,6.1,31.6,6,47.7c0.1-0.4,0.2-0.7,0.4-1.1
					v-0.1c0.3-0.8,0.5-1.6,0.8-2.4l0,0l0,0c4-13.2,5.5-26.8,5-40.4C433.3,148.7,427.5,143.6,427.3,136.5"/>
				<path id="XMLID_629_" class="st18" d="M235.5,198.4c0.8,1.2,2.2,3.4,4,5.9l0,0C237.7,201.9,236.3,199.6,235.5,198.4
					 M235.4,198.4L235.4,198.4L235.4,198.4 M235.4,198.4L235.4,198.4L235.4,198.4 M235.4,198.4L235.4,198.4L235.4,198.4"/>
				<path id="XMLID_630_" class="st22" d="M225.1,148.5L225.1,148.5c0,0.2,0,0.4,0,0.5C225.1,148.8,225.1,148.6,225.1,148.5
					L225.1,148.5"/>
				<path id="XMLID_631_" class="st14" d="M216.6,133.3h-0.2c0.4,0.3,0.8,0.6,1.2,1c3,7,5,14,0,22c-2,3.5-3,6.9-3.2,10.2l0,0
					c0,0.1,0,0.3,0,0.4l0,0c-0.4,14.2,14.5,26.1,24.2,37.4c0.3,0,0.6,0,0.9,0c-1.7-2.5-3.1-4.7-4-5.9l0,0l0,0l0,0l0,0l0,0l0,0l0,0
					c-5.9-8.3-14.1-17.9-14.1-28.6c0-0.3,0-0.6,0-0.8c0.3-6.7,3.7-13.2,3.7-20c0-0.2,0-0.4,0-0.5l0,0
					C225,144.8,221.7,133.3,216.6,133.3"/>
				<path id="XMLID_632_" class="st21" d="M214.4,166.5L214.4,166.5c0,0.1,0,0.3,0,0.4l0,0C214.4,166.7,214.4,166.6,214.4,166.5"/>
			</g>
		</g>
	</g>
	<g>
		<g class="st0">
			<path class="st25" d="M184.8,446.2c-10.4-4.3-20.9-8.6-31.2-13c-1.4-0.6-3.1-1.5-3.8-2.8c-8.1-14.3-16.2-28.6-24-43
				c-0.9-1.6-1.1-4.2-0.6-6c6.2-23.5,12.6-47,19-70.5c0.4-1.5,1.7-2.7,2.8-3.9c0.8-0.8,1.9-1.3,2.8-2c9.9-7.7,11.2-7.3,19.1,2.7
				c4.3,5.5,9.4,10.3,14.5,15.1c0.8,0.8,3.7,0.5,4.9-0.4c9.8-7.1,19.3-14.5,29-21.8c1.2-0.9,2.5-1.6,3.9-2.5
				c2.8,3.8,25.5,28,25.5,28s7.5,10.1,8.1,9.8c-0.1-1,7.7-15.1,7.7-15.1s13.6,2.8,14.5,2.3c1.1-0.5,27.5,14.6,27.5,14.6
				s-16.1-12.1-13.3-13.3c3.1-1.3,16.4,1.7,16.4,1.7l7.1,11.6l2.2-16.2l-2.2-3.4l2.6-5.4l6-0.2l19.4,7.8l8.3,2l11,9.5l8.8-11
				l8.5,9.1l6.5-9.2c0,0,6.3,8.7,6.3,9.2s1-20.2,1.8-21c5.1-5.4,10-3.2,15.3-0.1c11.5,6.6,22.7-5.6,34.5,0.8
				c7.3-6.3,21.8-1.4,21.8-1.4l4.2,8.2c0,0,14,44.6,21,66.9c2.3,7.3,4.5,14.6,7,21.8c1.5,4.5-0.1,7.1-4.3,8.8
				c-35,14.5-69.9,29-104.9,43.5c-27.3,11.3-88.5,36.7-88.5,36.7S215.6,459,184.8,446.2z"/>
		</g>
		<g id="Layer_8">
			<g id="XMLID_13_">
				<polyline id="XMLID_57_" class="st26" points="389.5,310.3 389.5,310.3 389.5,310.3 389.5,310.3 				"/>
				<path id="XMLID_68_" class="st26" d="M389.5,310.3c-0.4,0.3-0.7,0.6-1.1,1C388.8,311,389.1,310.7,389.5,310.3L389.5,310.3
					L389.5,310.3"/>
				<path id="XMLID_72_" class="st26" d="M391,306.1c-0.5,0-2.1,1.7-3.5,3.4l-0.1,0.1l-0.1,0.1c-1.4,1.8-2.5,3.6-1.9,3.6l0,0l0,0
					c0.3,0,1.1-0.5,2.5-1.7l0,0l0.2-0.2l0,0l0,0l0,0l0,0l0,0l0,0l0,0l0.1-0.1c0.4-0.3,0.7-0.6,1.1-1l0,0l0,0l0,0l0,0l0,0l0,0l0,0
					l0,0l0,0C391.2,307.2,391.4,306.1,391,306.1"/>
				<polyline id="XMLID_74_" class="st26" points="389.6,310.3 389.6,310.3 389.5,310.3 389.6,310.3 				"/>
				<polyline id="XMLID_75_" class="st26" points="389.6,310.3 389.5,310.3 389.6,310.3 				"/>
				<polygon id="XMLID_99_" class="st26" points="123,297.7 158,297.7 171.5,350.1 184.9,297.7 219.9,297.7 219.9,383.8 
					198.1,383.8 198.1,318.2 181.3,383.8 161.6,383.8 144.8,318.2 144.8,383.8 123,383.8 				"/>
				<path id="XMLID_114_" class="st26" d="M234.3,359.8l-11-1.1c0.4-2,1-3.4,1.8-4.5c0.8-1.1,2-2.1,3.4-2.8c1-0.6,2.5-1,4.4-1.4
					c1.8-0.3,3.8-0.4,5.9-0.4c3.4,0,6.2,0.1,8.3,0.6c2.1,0.4,3.8,1.1,5.2,2.4c1,0.8,1.7,2.1,2.3,3.7c0.6,1.6,0.8,3.1,0.8,4.5V374
					c0,1.4,0.1,2.5,0.3,3.4c0.1,0.8,0.6,1.8,1.1,3.1h-10.7c-0.4-0.7-0.7-1.4-0.8-1.8c-0.1-0.4-0.3-1-0.4-2c-1.6,1.4-3,2.5-4.5,3.1
					c-2,0.8-4.4,1.3-7.1,1.3c-3.5,0-6.4-0.8-8.2-2.5c-1.8-1.7-2.8-3.7-2.8-6.1c0-2.3,0.7-4.1,2-5.6c1.3-1.4,3.8-2.5,7.3-3.2
					c4.4-0.8,7.1-1.4,8.3-1.8c1.3-0.3,2.7-0.8,4.1-1.4c0-1.4-0.3-2.4-0.8-3c-0.6-0.6-1.6-0.8-3.1-0.8c-1.8,0-3.2,0.3-4.2,0.8
					C235.4,357.6,234.7,358.6,234.3,359.8z M244.3,365.9c-1.6,0.6-3.2,1.1-4.9,1.6c-2.4,0.6-3.8,1.3-4.4,1.8c-0.7,0.6-1,1.3-1,2.1
					s0.3,1.7,1,2.3c0.7,0.6,1.6,0.8,2.8,0.8s2.5-0.3,3.5-1c1.1-0.6,1.8-1.4,2.4-2.3c0.4-0.8,0.7-2.1,0.7-3.5v-1.8H244.3z"/>
				<path id="XMLID_117_" class="st26" d="M272.8,359.8l-11-1.1c0.4-2,1-3.4,1.8-4.5c0.8-1.1,2-2.1,3.4-2.8c1-0.6,2.5-1,4.4-1.4
					c1.8-0.3,3.8-0.4,5.9-0.4c3.4,0,6.2,0.1,8.3,0.6c2.1,0.4,3.8,1.1,5.2,2.4c1,0.8,1.7,2.1,2.3,3.7c0.6,1.6,0.8,3.1,0.8,4.5V374
					c0,1.4,0.1,2.5,0.3,3.4c0.1,0.8,0.6,1.8,1.1,3.1h-10.7c-0.4-0.7-0.7-1.4-0.8-1.8c-0.1-0.4-0.3-1-0.4-2c-1.6,1.4-3,2.5-4.5,3.1
					c-2,0.8-4.4,1.3-7.1,1.3c-3.5,0-6.4-0.8-8.2-2.5s-2.8-3.7-2.8-6.1c0-2.3,0.7-4.1,2-5.6c1.3-1.6,3.8-2.5,7.3-3.2
					c4.4-0.8,7.1-1.4,8.3-1.8c1.3-0.3,2.7-0.8,4.1-1.4c0-1.4-0.3-2.4-0.8-3c-0.6-0.6-1.6-0.8-3.1-0.8c-1.8,0-3.2,0.3-4.2,0.8
					C273.8,357.6,273.2,358.6,272.8,359.8z M282.7,365.9c-1.6,0.6-3.2,1.1-4.9,1.6c-2.4,0.6-3.8,1.3-4.4,1.8c-0.7,0.6-1,1.3-1,2.1
					s0.3,1.7,1,2.3c0.7,0.6,1.6,0.8,2.8,0.8s2.5-0.3,3.5-1c1.1-0.6,1.8-1.4,2.4-2.3c0.4-0.8,0.7-2.1,0.7-3.5v-1.8H282.7z"/>
				<path id="XMLID_118_" class="st26" d="M298.4,350.1h10.7v4.4c1.6-1.8,3.1-3.1,4.7-4c1.6-0.7,3.5-1.1,5.6-1.1
					c2.4,0,4.2,0.4,5.6,1.3c1.4,0.8,2.5,2.1,3.4,3.8c1.8-2,3.4-3.2,4.9-4c1.6-0.7,3.4-1.1,5.5-1.1c3.2,0,5.8,1,7.5,2.8
					c1.7,1.8,2.7,4.9,2.7,9v18.9h-11.6v-17.1c0-1.4-0.3-2.4-0.8-3c-0.7-1-1.7-1.6-2.8-1.6c-1.4,0-2.4,0.4-3.2,1.4
					c-0.8,1-1.3,2.5-1.3,4.7v15.5h-11.6v-16.5c0-1.3-0.1-2.3-0.3-2.7c-0.3-0.7-0.7-1.4-1.3-1.8c-0.6-0.4-1.3-0.7-2.1-0.7
					c-1.3,0-2.4,0.6-3.2,1.6c-0.8,1-1.3,2.7-1.3,4.9v15.4H298v-30.2H298.4z"/>
				<path id="XMLID_121_" class="st26" d="M364.1,359.8l-11-1.1c0.4-2,1-3.4,1.8-4.5c0.8-1.1,2-2.1,3.4-2.8c1-0.6,2.5-1,4.4-1.4
					c1.8-0.3,3.8-0.4,5.9-0.4c3.4,0,6.2,0.1,8.3,0.6c2.1,0.4,3.8,1.1,5.2,2.4c1,0.8,1.7,2.1,2.3,3.7c0.6,1.6,0.8,3.1,0.8,4.5V374
					c0,1.4,0.1,2.5,0.3,3.4c0.1,0.8,0.6,1.8,1.1,3.1h-10.6c-0.4-0.7-0.7-1.4-0.8-1.8c-0.1-0.4-0.3-1-0.4-2c-1.6,1.4-3,2.5-4.5,3.1
					c-2,0.8-4.4,1.3-7.1,1.3c-3.5,0-6.4-0.8-8.2-2.5c-1.8-1.7-2.8-3.7-2.8-6.1c0-2.3,0.7-4.1,2-5.6c1.3-1.6,3.8-2.5,7.3-3.2
					c4.4-0.8,7.1-1.4,8.3-1.8c1.3-0.3,2.7-0.8,4.1-1.4c0-1.4-0.3-2.4-0.8-3c-0.6-0.6-1.6-0.8-3.1-0.8c-1.8,0-3.2,0.3-4.2,0.8
					C365.3,357.6,364.7,358.6,364.1,359.8z M374.2,365.9c-1.6,0.6-3.2,1.1-4.9,1.6c-2.4,0.6-3.8,1.3-4.4,1.8c-0.7,0.6-1,1.3-1,2.1
					s0.3,1.7,1,2.3c0.7,0.6,1.6,0.8,2.8,0.8s2.5-0.3,3.5-1c1.1-0.6,1.8-1.4,2.4-2.3c0.4-0.8,0.7-2.1,0.7-3.5v-1.8H374.2z"/>
				<path id="XMLID_124_" class="st26" d="M388.4,383.4v-88h45.3c8.4,0,14.8,0.7,19.3,2.2s8,4.1,10.8,8c2.7,3.9,4.1,8.7,4.1,14.3
					c0,4.9-1,9.1-3.1,12.6s-4.9,6.4-8.6,8.6c-2.3,1.4-5.5,2.6-9.6,3.5c3.2,1.1,5.6,2.2,7.1,3.2c1,0.7,2.5,2.3,4.4,4.6
					c1.9,2.4,3.2,4.2,3.8,5.5l13.2,25.5h-30.7l-14.5-26.9c-1.8-3.5-3.5-5.7-4.9-6.8c-2-1.4-4.2-2-6.7-2h-2.4v35.7L388.4,383.4
					L388.4,383.4z M415.7,331h11.5c1.2,0,3.6-0.4,7.2-1.2c1.8-0.4,3.3-1.3,4.4-2.8c1.1-1.5,1.7-3.2,1.7-5.1c0-2.8-0.9-5-2.7-6.5
					s-5.2-2.3-10.2-2.3h-12L415.7,331L415.7,331z"/>
				<path id="XMLID_127_" class="st26" d="M222.4,332.2c0-3.3,1.1-6.2,3.4-8.3c2.3-2.2,5.3-3.3,9.3-3.3c4.5,0,7.8,1.3,10,3.9
					c1.8,2.1,2.7,4.6,2.7,7.6c0,3.4-1.1,6.2-3.4,8.3s-5.4,3.2-9.4,3.2c-3.5,0-6.5-0.9-8.7-2.7C223.8,338.7,222.4,335.7,222.4,332.2z
					 M231,332.1c0,2,0.4,3.4,1.3,4.4c0.8,0.9,1.8,1.5,3,1.5c1.3,0,2.2-0.4,3-1.4c0.8-0.9,1.1-2.4,1.1-4.5c0-1.9-0.4-3.3-1.1-4.3
					c-0.8-0.9-1.8-1.5-2.9-1.5c-1.3,0-2.3,0.5-3,1.5C231.4,328.7,231,330.2,231,332.1z"/>
				<path id="XMLID_128_" class="st26" d="M254.4,321h7.9v3.7c1.1-1.5,2.4-2.5,3.5-3.1s2.7-0.9,4.4-0.9c2.4,0,4.2,0.7,5.5,2.1
					c1.4,1.4,2,3.5,2,6.5v14.1h-8.6V331c0-1.4-0.2-2.4-0.7-2.9c-0.5-0.6-1.3-0.8-2.2-0.8c-1,0-1.9,0.4-2.5,1.1
					c-0.6,0.7-0.9,2.2-0.9,4.2v10.6h-8.5L254.4,321L254.4,321z"/>
				<path id="XMLID_129_" class="st26" d="M284.5,337l8.5-0.8c0.3,1,0.8,1.7,1.5,2.2c0.6,0.4,1.5,0.6,2.5,0.6c1.1,0,2-0.2,2.6-0.7
					c0.5-0.3,0.7-0.8,0.7-1.4c0-0.6-0.3-1-0.9-1.5c-0.4-0.2-1.7-0.5-3.7-0.8c-2.9-0.5-5-1-6.2-1.5s-2.1-1.1-2.9-2.2
					c-0.8-1-1.1-2.2-1.1-3.5c0-1.5,0.4-2.7,1.3-3.8c0.8-1,2-1.9,3.5-2.4c1.6-0.5,3.4-0.8,5.9-0.8c2.6,0,4.6,0.2,5.8,0.6
					c1.3,0.4,2.3,1,3.1,1.9s1.6,2,2.1,3.4l-8,0.8c-0.2-0.7-0.5-1.3-1-1.6c-0.6-0.4-1.5-0.6-2.4-0.6s-1.7,0.2-2.1,0.5
					c-0.4,0.3-0.6,0.7-0.6,1.3c0,0.5,0.3,0.9,0.8,1.3c0.5,0.3,1.8,0.5,3.7,0.7c2.8,0.3,4.9,0.7,6.3,1.4c1.4,0.6,2.4,1.4,3.1,2.4
					s1.1,2.2,1.1,3.4c0,1.3-0.4,2.5-1.1,3.8c-0.7,1.3-2,2.2-3.7,2.9c-1.7,0.7-4,1-6.8,1c-4.1,0-7-0.6-8.7-1.8
					C286.1,340.7,285,339.1,284.5,337z"/>
				<path id="XMLID_132_" class="st26" d="M314.6,312.5h8.5v5.7h-8.5V312.5z M314.6,321h8.5v22.2h-8.5V321z"/>
				<path id="XMLID_135_" class="st26" d="M355.3,334.1h-17c0.1,1.4,0.5,2.4,1.1,3c0.8,0.9,1.9,1.5,3.2,1.5c0.8,0,1.7-0.2,2.4-0.6
					c0.4-0.3,0.9-0.7,1.5-1.4l8.3,0.7c-1.3,2.2-2.8,3.9-4.6,4.8c-1.8,0.9-4.4,1.5-7.8,1.5c-2.9,0-5.2-0.4-6.9-1.3
					c-1.7-0.8-3.1-2.2-4.2-4c-1.1-1.8-1.7-4-1.7-6.4c0-3.4,1.1-6.3,3.3-8.5c2.2-2.2,5.3-3.2,9.2-3.2c3.1,0,5.6,0.5,7.5,1.5
					c1.9,0.9,3.2,2.4,4.2,4.2c0.9,1.8,1.5,4.2,1.5,7.1v1H355.3z M346.7,330.1c-0.2-1.7-0.6-2.8-1.4-3.5c-0.7-0.7-1.7-1-2.8-1
					c-1.4,0-2.4,0.5-3.2,1.6c-0.5,0.6-0.8,1.7-0.9,3L346.7,330.1L346.7,330.1z"/>
				<path id="XMLID_136_" class="st26" d="M385.4,343.1h-7.9v-3.5c-1.1,1.5-2.4,2.5-3.5,3.1c-1.3,0.6-2.7,0.9-4.5,0.9
					c-2.3,0-4.2-0.7-5.5-2.1c-1.4-1.4-2-3.5-2-6.5V321h8.6v12.2c0,1.4,0.2,2.4,0.7,2.9c0.5,0.6,1.3,0.8,2.2,0.8c1,0,1.9-0.4,2.5-1.1
					c0.6-0.7,0.9-2.2,0.9-4.2V321h8.5v22.1H385.4z"/>
			</g>
			<g id="XMLID_2_">
			</g>
			<g id="XMLID_5_">
			</g>
			<g id="XMLID_8_">
			</g>
			<g id="XMLID_9_">
			</g>
			<g id="XMLID_15_">
			</g>
			<g id="XMLID_17_">
			</g>
			<g id="XMLID_19_">
			</g>
			<g id="XMLID_20_">
			</g>
			<g id="XMLID_21_">
			</g>
			<g id="XMLID_22_">
			</g>
			<g id="XMLID_23_">
			</g>
			<g id="XMLID_24_">
			</g>
			<g id="XMLID_25_">
			</g>
			<g id="XMLID_26_">
			</g>
			<g id="XMLID_27_">
			</g>
		</g>
	</g>
	<polygon class="st27" points="518,0 80,0 0,193.3 87.5,404.8 299,492.3 510.5,404.8 598,193.3 	"/>
</g>
<g id="Calque_2">
</g>
</svg>
