<?xml version="1.0" encoding="utf-8"?>
<!-- Generator: Adobe Illustrator 19.0.0, SVG Export Plug-In . SVG Version: 6.00 Build 0)  -->
<svg version="1.1"
	 id="svg2" sodipodi:docname="TV Fil 78 Logo.svg" inkscape:version="0.48.1 " xmlns:dc="http://purl.org/dc/elements/1.1/" xmlns:cc="http://creativecommons.org/ns#" xmlns:rdf="http://www.w3.org/1999/02/22-rdf-syntax-ns#" xmlns:svg="http://www.w3.org/2000/svg" xmlns:sodipodi="http://sodipodi.sourceforge.net/DTD/sodipodi-0.dtd" xmlns:inkscape="http://www.inkscape.org/namespaces/inkscape"
	 xmlns="http://www.w3.org/2000/svg" xmlns:xlink="http://www.w3.org/1999/xlink" x="0px" y="0px" viewBox="-239 963.9 500 146.7"
	 style="enable-background:new -239 963.9 500 146.7;" xml:space="preserve">
<style type="text/css">
	.st0{stroke:#FFFFFF;stroke-width:0.501;}
	.st1{fill:#F29400;}
	.st2{fill:#008ED0;}
	.st3{fill:#FFFFFF;}
</style>
<sodipodi:namedview  inkscape:window-width="1920" inkscape:window-y="-8" inkscape:pageopacity="0.0" fit-margin-bottom="5" inkscape:pageshadow="2" inkscape:window-x="-8" inkscape:document-units="px" inkscape:current-layer="layer1" fit-margin-right="5" inkscape:window-height="1018" inkscape:window-maximized="1" id="base" inkscape:zoom="1.1826455" inkscape:cx="589.52997" borderopacity="1.0" inkscape:cy="-69.16318" showgrid="false" fit-margin-left="5" fit-margin-top="5" pagecolor="#ffffff" bordercolor="#666666">
	</sodipodi:namedview>
<g id="layer1" transform="translate(287.11813,15.329992)" inkscape:groupmode="layer" inkscape:label="Calque 1">
	<g id="g3052">
		<g id="text3098" transform="scale(0.93987532,1.0639709)">
			<path id="path3010" class="st0" d="M-522.9,1013.1l-2.1,15.8h-6.3l-2.4-15.8h4.3c0.5,4.4,0.9,8.1,1.1,11.1c0.2-3,0.4-5.8,0.7-8.1
				l0.3-2.9L-522.9,1013.1L-522.9,1013.1z"/>
			<path id="path3012" class="st0" d="M-506.4,1022.4c0,1.6,0,2.7-0.1,3.4c-0.1,0.7-0.3,1.3-0.7,1.8s-0.9,1-1.6,1.3
				c-0.7,0.3-1.5,0.4-2.3,0.4s-1.6-0.1-2.3-0.4s-1.2-0.7-1.6-1.2c-0.4-0.6-0.7-1.2-0.7-1.8c-0.1-0.7-0.1-1.8-0.1-3.4v-2.7
				c0-1.6,0-2.7,0.1-3.4c0.1-0.7,0.3-1.3,0.7-1.8c0.4-0.5,0.9-1,1.6-1.3s1.5-0.4,2.3-0.4s1.6,0.1,2.3,0.4c0.7,0.3,1.2,0.7,1.6,1.2
				c0.4,0.6,0.7,1.2,0.7,1.8c0.1,0.7,0.1,1.8,0.1,3.4V1022.4z M-510.5,1017.2c0-0.7,0-1.2-0.1-1.4s-0.2-0.3-0.5-0.3
				c-0.2,0-0.4,0.1-0.5,0.2c-0.1,0.2-0.2,0.7-0.2,1.5v7.4c0,0.9,0,1.5,0.1,1.7c0.1,0.2,0.2,0.3,0.5,0.3s0.5-0.1,0.5-0.4
				c0.1-0.2,0.1-0.8,0.1-1.8v-7.2H-510.5z"/>
			<path id="path3014" class="st0" d="M-490.2,1013.1v3.2h-2.4v12.7h-4.1v-12.7h-2.4v-3.2H-490.2z"/>
			<path id="path3016" class="st0" d="M-482.9,1013.1h2.9c1.9,0,3.3,0.1,3.9,0.2c0.7,0.1,1.2,0.5,1.7,1.1c0.4,0.6,0.7,1.6,0.7,2.9
				c0,1.2-0.2,2.1-0.5,2.5s-0.9,0.7-1.8,0.8c0.8,0.2,1.4,0.5,1.6,0.8c0.3,0.3,0.5,0.7,0.5,0.9c0.1,0.3,0.1,1.1,0.1,2.3v4.2h-3.8
				v-5.3c0-0.8-0.1-1.4-0.2-1.6s-0.5-0.3-1.1-0.3v7.1h-4.1L-482.9,1013.1z M-478.7,1015.8v3.5c0.5,0,0.8-0.1,1-0.2
				c0.2-0.1,0.3-0.5,0.3-1.2v-0.9c0-0.5-0.1-0.8-0.3-1C-477.9,1015.9-478.3,1015.8-478.7,1015.8L-478.7,1015.8z"/>
			<path id="path3018" class="st0" d="M-465.7,1013.1h6.9v3.2h-2.7v3h2.6v3h-2.6v3.5h3v3.2h-7.1L-465.7,1013.1L-465.7,1013.1z"/>
			<path id="path3020" class="st0" d="M-432.7,1013.1v3.2h-2.4v12.7h-4.1v-12.7h-2.4v-3.2H-432.7z"/>
			<path id="path3022" class="st0" d="M-425.4,1013.1h6.9v3.2h-2.7v3h2.6v3h-2.6v3.5h3v3.2h-7.1L-425.4,1013.1L-425.4,1013.1z
				 M-418.7,1009.9l-3.2,2.7h-2l1.7-2.7H-418.7z"/>
			<path id="path3024" class="st0" d="M-406.6,1013.1v12.7h2.5v3.2h-6.6v-15.8L-406.6,1013.1L-406.6,1013.1z"/>
			<path id="path3026" class="st0" d="M-396.7,1013.1h6.9v3.2h-2.7v3h2.6v3h-2.6v3.5h3v3.2h-7.1L-396.7,1013.1L-396.7,1013.1z
				 M-390,1009.9l-3.2,2.7h-2l1.7-2.7H-390z"/>
			<path id="path3028" class="st0" d="M-372.2,1013.1l-2.1,15.8h-6.3l-2.4-15.8h4.3c0.5,4.4,0.9,8.1,1.1,11.1c0.2-3,0.4-5.8,0.7-8.1
				l0.3-2.9L-372.2,1013.1L-372.2,1013.1z"/>
			<path id="path3030" class="st0" d="M-361,1013.1v15.8h-4.1v-15.8H-361z"/>
			<path id="path3032" class="st0" d="M-344.2,1017.9h-3.8v-1.2c0-0.5,0-0.9-0.1-1s-0.3-0.2-0.5-0.2s-0.4,0.1-0.6,0.3
				c-0.1,0.2-0.2,0.5-0.2,0.9c0,0.5,0.1,0.9,0.2,1.2s0.5,0.6,1.2,1c1.8,1.1,3,2,3.5,2.7s0.7,1.8,0.7,3.4c0,1.1-0.1,2-0.4,2.5
				s-0.8,1-1.5,1.3c-0.7,0.3-1.6,0.5-2.6,0.5c-1.1,0-2-0.2-2.8-0.6c-0.8-0.4-1.3-0.9-1.5-1.6c-0.2-0.7-0.4-1.6-0.4-2.7v-1h3.8v1.9
				c0,0.6,0.1,1,0.2,1.1c0.1,0.2,0.3,0.3,0.6,0.3c0.3,0,0.5-0.1,0.6-0.3c0.1-0.2,0.2-0.5,0.2-1c0-0.9-0.1-1.5-0.4-1.8
				s-0.9-0.8-1.9-1.4c-1-0.7-1.7-1.2-2-1.5s-0.6-0.7-0.8-1.3c-0.2-0.5-0.3-1.2-0.3-2.1c0-1.2,0.2-2.1,0.5-2.7c0.3-0.6,0.8-1,1.5-1.3
				s1.5-0.5,2.5-0.5c1.1,0,2,0.2,2.7,0.5c0.8,0.3,1.3,0.8,1.5,1.3s0.4,1.4,0.4,2.7v0.6L-344.2,1017.9L-344.2,1017.9z"/>
			<path id="path3034" class="st0" d="M-332,1013.1v15.8h-4.1v-15.8H-332z"/>
			<path id="path3036" class="st0" d="M-314.5,1022.4c0,1.6,0,2.7-0.1,3.4c-0.1,0.7-0.3,1.3-0.7,1.8s-0.9,1-1.6,1.3
				c-0.7,0.3-1.5,0.4-2.3,0.4s-1.6-0.1-2.3-0.4c-0.7-0.3-1.2-0.7-1.6-1.2c-0.4-0.6-0.7-1.2-0.7-1.8c-0.1-0.7-0.1-1.8-0.1-3.4v-2.7
				c0-1.6,0-2.7,0.1-3.4s0.3-1.3,0.7-1.8s0.9-1,1.6-1.3s1.5-0.4,2.3-0.4s1.6,0.1,2.3,0.4c0.7,0.3,1.2,0.7,1.6,1.2
				c0.4,0.6,0.7,1.2,0.7,1.8c0.1,0.7,0.1,1.8,0.1,3.4V1022.4z M-318.7,1017.2c0-0.7,0-1.2-0.1-1.4s-0.2-0.3-0.5-0.3
				c-0.2,0-0.4,0.1-0.5,0.2c-0.1,0.2-0.2,0.7-0.2,1.5v7.4c0,0.9,0,1.5,0.1,1.7c0.1,0.2,0.2,0.3,0.5,0.3s0.5-0.1,0.5-0.4
				c0.1-0.2,0.1-0.8,0.1-1.8L-318.7,1017.2z"/>
			<path id="path3038" class="st0" d="M-297.4,1013.1v15.8h-3.6l-2.1-7.2v7.2h-3.4v-15.8h3.4l2.3,7.1v-7.1H-297.4z"/>
			<path id="path3040" class="st0" d="M-275.3,1013.1v12.7h2.5v3.2h-6.6v-15.8L-275.3,1013.1L-275.3,1013.1z"/>
			<path id="path3042" class="st0" d="M-256,1022.4c0,1.6,0,2.7-0.1,3.4c-0.1,0.7-0.3,1.3-0.7,1.8s-0.9,1-1.6,1.3
				c-0.7,0.3-1.5,0.4-2.3,0.4c-0.8,0-1.6-0.1-2.3-0.4c-0.7-0.3-1.2-0.7-1.6-1.2c-0.4-0.6-0.7-1.2-0.7-1.8c-0.1-0.7-0.1-1.8-0.1-3.4
				v-2.7c0-1.6,0-2.7,0.1-3.4s0.3-1.3,0.7-1.8s0.9-1,1.6-1.3s1.5-0.4,2.3-0.4c0.8,0,1.6,0.1,2.3,0.4c0.7,0.3,1.2,0.7,1.6,1.2
				c0.4,0.6,0.7,1.2,0.7,1.8c0.1,0.7,0.1,1.8,0.1,3.4V1022.4z M-260.2,1017.2c0-0.7,0-1.2-0.1-1.4s-0.2-0.3-0.5-0.3
				c-0.2,0-0.4,0.1-0.5,0.2c-0.1,0.2-0.2,0.7-0.2,1.5v7.4c0,0.9,0,1.5,0.1,1.7c0.1,0.2,0.2,0.3,0.5,0.3c0.3,0,0.5-0.1,0.5-0.4
				c0.1-0.2,0.1-0.8,0.1-1.8L-260.2,1017.2L-260.2,1017.2z"/>
			<path id="path3044" class="st0" d="M-238.5,1020h-4.1v-2.8c0-0.8,0-1.3-0.1-1.5s-0.3-0.3-0.6-0.3s-0.6,0.1-0.6,0.4
				c-0.1,0.2-0.1,0.8-0.1,1.6v7.4c0,0.8,0,1.3,0.1,1.5c0.1,0.2,0.3,0.4,0.6,0.4s0.5-0.1,0.6-0.4c0.1-0.2,0.1-0.8,0.1-1.7v-2h4.1v0.6
				c0,1.6-0.1,2.8-0.3,3.5c-0.2,0.7-0.7,1.3-1.5,1.8s-1.8,0.8-2.9,0.8c-1.2,0-2.2-0.2-3-0.7c-0.8-0.4-1.3-1-1.6-1.8
				c-0.3-0.8-0.4-1.9-0.4-3.5v-4.6c0-1.1,0-2,0.1-2.6s0.3-1.1,0.7-1.6s0.9-0.9,1.6-1.2c0.7-0.3,1.5-0.5,2.4-0.5c1.2,0,2.2,0.2,3,0.7
				s1.3,1.1,1.6,1.8c0.2,0.7,0.4,1.8,0.4,3.3v1.4L-238.5,1020L-238.5,1020z"/>
			<path id="path3046" class="st0" d="M-223.5,1013.1l2.4,15.8h-4.2l-0.2-2.8h-1.5l-0.2,2.8h-4.3l2.1-15.8H-223.5z M-225.7,1023.3
				c-0.2-1.8-0.4-4-0.6-6.6c-0.4,3-0.7,5.2-0.8,6.6H-225.7z"/>
			<path id="path3048" class="st0" d="M-209.9,1013.1v12.7h2.5v3.2h-6.6v-15.8L-209.9,1013.1L-209.9,1013.1z"/>
			<path id="path3050" class="st0" d="M-200,1013.1h6.9v3.2h-2.7v3h2.6v3h-2.6v3.5h3v3.2h-7.1L-200,1013.1L-200,1013.1z"/>
		</g>
		<path id="path4010" inkscape:connector-curvature="0" sodipodi:nodetypes="ccccccccsssscscsccccccccccccccc" class="st1" d="
			M-500.7,1036.7V1004h-12.7h-12.7v-15.8v-15.8l71.4,0.1l71.4,0.1l9.4,24.6c5.1,13.6,9.6,25.3,9.9,26.2c0.5,1.5,0.6,1.5,2.3-2.6
			c1-2.3,5.5-14.1,10.1-26.2l8.4-22l24.2-0.1c13.3-0.1,23.9-0.2,23.8,0c-0.2,0.4-4.4,9.7-35.9,71.9l-12.4,24.6l-19.7,0.1l-19.7,0.1
			l-23.3-46.3l-23.3-46.3v13.6v13.6h-12.4h-12.4v32.7v32.7h-23.1h-23.1L-500.7,1036.7L-500.7,1036.7z"/>
		<path id="path3990" inkscape:connector-curvature="0" sodipodi:nodetypes="ccsssssscccc" class="st2" d="M-171.1,1033.3v-60.9
			l4-3.4c11.8-10.1,26.3-16.8,41.9-19.4c5.8-1,8-1.1,16.3-0.9c10.5,0.3,15.4,1.1,24.2,4c24,7.9,43.8,26.7,53,50.5
			c11.5,29.6,4.9,64.6-16.5,88l-2.7,3H-111h-60.1V1033.3z"/>
		<path id="path3988" inkscape:connector-curvature="0" sodipodi:nodetypes="sssssssssss" class="st3" d="M-83.9,1076.9
			c16.4-4.3,30.3-15.8,37.8-31.2c11.1-22.8,6.2-50.1-12.2-67.6c-8.4-7.9-17.8-12.9-29.1-15.2c-6.8-1.4-19-1.2-25.2,0.5
			c-21.7,5.8-37.6,21.8-43,43.4c-1,4-1.2,5.9-1.1,13.7c0,8.1,0.2,9.6,1.4,14.3c4.5,16.7,16.3,31.1,31.7,38.3
			c9.1,4.3,15.1,5.5,26.2,5.3C-90.3,1078.3-88.1,1078.1-83.9,1076.9L-83.9,1076.9z"/>
		<path id="path3986" inkscape:connector-curvature="0" sodipodi:nodetypes="sssssss" d="M-85.6,1033.7
			c-10.1-1.7-18.9-9.7-21.5-19.6c-1.6-6.2-0.8-13.8,2.1-19.6c1.9-3.8,8-9.7,11.8-11.5c15.5-7.3,33.1,0.5,37.9,16.8
			c1,3.5,1.1,10.7,0.1,14.4C-58.7,1027.2-72.2,1035.9-85.6,1033.7z"/>
		<path id="path3984" inkscape:connector-curvature="0" sodipodi:nodetypes="sscssssssssssssssss" class="st2" d="M-215.7,1069.8
			c-4.4-0.5-9.1-1.6-12.2-2.9c-1.1-0.5-2-0.8-2-0.7s-0.7-0.5-1.5-1.2c-0.8-0.7-1.7-1.4-1.9-1.4c-0.6,0-2.9-4.2-3.2-6
			c-0.9-4.2,2.9-9.7,7.5-11.1c2.4-0.7,2.6-1.2,0.8-1.7c-1.6-0.4-4.8-3.1-5.7-5c-1.6-3.1-0.4-8.1,2.7-10.9c2.1-2,6.2-3.9,10.9-5.2
			c5.8-1.6,16.8-1.6,22.7,0c2.3,0.6,5.2,1.6,6.4,2.2c6.7,3.2,9.6,9.4,6.8,14.4c-1.1,1.9-4.7,4.7-6,4.7c-1.4,0-0.6,0.9,1.4,1.5
			c2.9,0.9,6.4,4.4,7.3,7.2c1.6,5.5-1.9,10.6-9.3,13.5C-197.1,1069.5-208.1,1070.7-215.7,1069.8z"/>
		<path id="path3982" inkscape:connector-curvature="0" sodipodi:nodetypes="csscc" class="st3" d="M-205.3,1057.1
			c4.6-3.8-2.1-9.2-7.2-5.8c-2.5,1.7-2.7,3.9-0.5,5.8C-210.8,1059-207.6,1059-205.3,1057.1L-205.3,1057.1z"/>
		<path id="path3980" inkscape:connector-curvature="0" sodipodi:nodetypes="sssss" class="st3" d="M-206.9,1040.1
			c2-1,2.4-2.3,1.2-3.9c-1.3-1.7-4.9-2.1-6.4-0.8c-1.5,1.4-1.3,3.6,0.4,4.6C-209.8,1041-208.7,1041-206.9,1040.1z"/>
		<path id="path3978" inkscape:connector-curvature="0" sodipodi:nodetypes="sscsscccsssccs" class="st2" d="M-294.5,1069
			c0.6-1.1,19.7-26.2,22.3-29.2l2.4-2.8l-1.8,0.3c-1,0.2-6.6,0.5-12.5,0.7l-10.8,0.4v-7.6v-7.6h29.3c24.7,0,29.2,0.1,28.9,0.7
			c-0.2,0.4-7.9,10.8-17,23.1l-16.6,22.3h-12.3C-292.4,1069.3-294.8,1069.6-294.5,1069L-294.5,1069z"/>
		<path id="path3976" inkscape:connector-curvature="0" sodipodi:nodetypes="ccccccccccccccccccccc" class="st2" d="M-295,995.5
			v-23.1h20.2h20.2v6.7v6.7h-9.1h-9.1v2.1v2.1h8h8v6.2v6.2h-8h-8v8v8h-11.1H-295V995.5z"/>
		<path id="path3974" inkscape:connector-curvature="0" sodipodi:nodetypes="ccccccccc" class="st2" d="M-250.4,995.5v-23.1h11.1
			h11.1v23.1v23.1h-11.1h-11.1V995.5z"/>
		<path id="path3970" inkscape:connector-curvature="0" sodipodi:nodetypes="ccccccccccccc" class="st2" d="M-222.4,995.5v-23.1
			h11.1h11.1v15.5v15.5h9.1h9.1v7.5v7.5h-20.2h-20.2C-222.4,1018.4-222.4,995.5-222.4,995.5z"/>
	</g>
</g>
</svg>
