<?xml version="1.0" encoding="utf-8"?>
<!-- Generator: Adobe Illustrator 18.1.1, SVG Export Plug-In . SVG Version: 6.00 Build 0)  -->
<svg version="1.1" id="Calque_1" xmlns="http://www.w3.org/2000/svg" xmlns:xlink="http://www.w3.org/1999/xlink" x="0px" y="0px"
	 viewBox="13.2 14.6 23.2 21" enable-background="new 13.2 14.6 23.2 21" xml:space="preserve">
<g>
	<path fill="#ECF0F1" d="M33.7,25.1c0-2.5-1-4.7-2.6-6.3L18.5,31.4c1.6,1.6,3.8,2.6,6.3,2.6C29.7,34,33.7,30,33.7,25.1z"/>
	<path fill="#ECF0F1" d="M24.8,16.2c-4.9,0-8.9,4-8.9,8.9c0,2.5,1,4.7,2.6,6.3l12.6-12.6C29.5,17.2,27.3,16.2,24.8,16.2z"/>
	<path opacity="0.1" fill="#446CB3" enable-background="new    " d="M33.7,25.1c0-2.5-1-4.7-2.6-6.3L18.5,31.4
		c1.6,1.6,3.8,2.6,6.3,2.6C29.7,34,33.7,30,33.7,25.1z"/>
	<polygon fill="#DC3023" points="26,30.3 26,24 24.2,25.7 24.2,32.1 	"/>
	<polygon fill="#DC3023" points="18.5,31.4 18.2,31.7 18.5,32.1 	"/>
	<polygon opacity="0.1" fill="#446CB3" enable-background="new    " points="18.5,31.4 18.2,31.7 18.5,32.1 	"/>
	<polygon fill="#DC3023" points="27.5,31.2 28.7,32.3 28.7,25.9 27.5,24.8 	"/>
	<polygon fill="#DC3023" points="32.5,32.3 33.7,31.2 33.7,24.8 32.5,25.9 	"/>
	<polygon fill="#DC3023" points="30.2,26.4 27.9,24 26.9,24 29.7,26.9 29.8,26.9 29.2,27.4 30.9,27.4 35.4,22.8 33.8,22.8 	"/>
	<g>
		<polygon fill="#DC3023" points="26,20.8 24.2,22.5 24.2,25.7 26,24 		"/>
		<polygon fill="#DC3023" points="18.5,22.5 16.8,20.8 16.8,30.3 18.2,31.7 18.5,31.4 		"/>
		<polygon fill="#DC3023" points="23.4,24.7 22.6,23.9 22.7,23.9 26.9,19.7 25.4,19.7 21.9,23.2 16.6,17.9 14.2,17.9 20.9,24.7 		
			"/>
		<polygon opacity="0.1" fill="#446CB3" enable-background="new    " points="26,30.3 26,24 24.2,25.7 24.2,32.1 		"/>
		<polygon opacity="0.1" fill="#446CB3" enable-background="new    " points="27.5,31.2 28.7,32.3 28.7,25.9 27.5,24.8 		"/>
		<polygon opacity="0.1" fill="#446CB3" enable-background="new    " points="32.5,32.3 33.7,31.2 33.7,24.8 32.5,25.9 		"/>
		<polygon opacity="0.1" fill="#446CB3" enable-background="new    " points="30.2,26.4 27.9,24 26.9,24 29.7,26.9 29.8,26.9 
			29.2,27.4 30.9,27.4 35.4,22.8 33.8,22.8 		"/>
	</g>
</g>
</svg>
