<?xml version="1.0" encoding="utf-8"?>
<!-- Generator: Adobe Illustrator 19.0.0, SVG Export Plug-In . SVG Version: 6.00 Build 0)  -->
<svg version="1.1" xmlns="http://www.w3.org/2000/svg" xmlns:xlink="http://www.w3.org/1999/xlink" x="0px" y="0px"
	 viewBox="0 0 960 560" style="enable-background:new 0 0 960 560;" xml:space="preserve">
<style type="text/css">
	.st0{fill:#4183D7;}
	.st1{opacity:0.46;fill:#2C3E50;}
	.st2{fill:#446CB3;}
	.st3{opacity:0.38;fill:#2C3E50;}
	.st4{fill:#E4F1FE;}
	.st5{opacity:0.46;}
	.st6{fill:#2C3E50;}
</style>
<g id="Layer_1">
	<rect id="XMLID_2_" class="st0" width="960" height="560"/>
	<polygon id="XMLID_4_" class="st1" points="235.7,350.1 724.2,209.4 826.3,508.3 338.7,459.2 	"/>
	<rect id="XMLID_3_" x="235.8" y="209.7" class="st2" width="488.5" height="140.6"/>
	<path id="XMLID_5_" class="st3" d="M657.5,285.3L697,327c0,0-366-8.3-367.7-8.3c-1.7,0-26.7-10-26.7-10l2-5l1.7-12.6l8-5.3
		c0,0,1.2-2.6,5.9-1.3c5.6,1.5,10.1,7,10.1,7l4.3-1l5.8,2L356,291l7.8,3.5l2-4l8,2.5l6.5-2.5l5.5,2.3L401,291l5.8,4l3.5-2.5l-3.8-4
		l3.8-4.4l4.5,2.4l9.5,4.5c0,0,13.3,3,14,3s3.5-3.5,3.5-3.5L464,294l5.3-2.3l10.7,2.8l14.3-3.5l19,11l2.5-9l8.5,1.5l1.3-3l8.8,3.5
		l13.5-4.5l13,5l7.5-5l7,3l9,7.5l1-9l10.5,5l3.5-5.8l9,7.3l3.8-7.5l6.8,3.8l11.5-4l22,8.8"/>
	<path id="XMLID_6_" class="st3" d="M672.5,284.1l-15.2-37.4l-4.3,5l-0.5,14.1l-20.8-12.4L631,262l-1.3-4l-8.3-6c0,0-1.7,8.3-2.7,8
		c-1-0.3-12.3-8-12.3-8l-14.7,6.7l-7.3-6.7l-12.7,3.3l-11.3-3.3l-9.7,5.3l13,4.7l-6,4.7l-5.3-1.3L535,250.7l-10.7,5.3l-6-5l-2.7,14
		l-0.3-9.7l-11.7-4l-11.3,8l-8.7-8.7l-8,5.3l-11.3-4.7l-12.3,1.3l-0.3,7.3l-24.3-9.3l-13.3,8l-5-8l-4.7,6.7l-6.7-6l-2.3,6.7l-9.7-7
		l-3.3,5l-8-4.7l-6,5.3l-8.3-5.3l-5,3.3v4.3l-13.3-8.3l-5.3,3.3l-18-7.3l-15.7,12.5c0.2,1.2,6.1,15.1,21.1,16.1"/>
	<g id="XMLID_1_">
		<path id="XMLID_36_" class="st4" d="M318.7,259.6l6.4,1.9c-0.4,1.8-1.1,3.3-2,4.5s-2.1,2.1-3.4,2.7c-1.4,0.6-3.1,0.9-5.2,0.9
			c-2.6,0-4.7-0.4-6.3-1.1c-1.6-0.7-3-2.1-4.2-3.9c-1.2-1.9-1.8-4.3-1.8-7.2c0-3.9,1-6.9,3.1-9c2.1-2.1,5-3.1,8.8-3.1
			c3,0,5.3,0.6,7,1.8c1.7,1.2,3,3.1,3.8,5.5l-6.4,1.4c-0.2-0.7-0.5-1.2-0.7-1.6c-0.4-0.6-0.9-1-1.5-1.3s-1.3-0.5-2-0.5
			c-1.7,0-2.9,0.7-3.8,2c-0.7,1-1,2.5-1,4.7c0,2.6,0.4,4.4,1.2,5.4c0.8,1,1.9,1.5,3.4,1.5c1.4,0,2.5-0.4,3.2-1.2
			C317.9,262.3,318.4,261.1,318.7,259.6z"/>
		<path id="XMLID_38_" class="st4" d="M327.7,260.2c0-1.5,0.2-2.9,0.7-4c0.5-1.2,1.1-2.2,2-3s1.9-1.4,3.2-1.9s2.7-0.6,4.2-0.6
			c1.6,0,3.1,0.2,4.3,0.6s2.3,1,3.2,1.8s1.5,1.8,2,2.9c0.5,1.2,0.7,2.5,0.7,4c0,1.5-0.2,2.9-0.6,4.1c-0.4,1.2-1.1,2.2-1.9,3
			c-0.8,0.8-1.9,1.5-3.1,1.9s-2.7,0.6-4.3,0.6c-1.5,0-3-0.2-4.2-0.6s-2.4-1-3.2-1.7c-0.9-0.8-1.6-1.8-2.1-3
			C328,263.2,327.7,261.8,327.7,260.2z M334.5,260.2c0,0.9,0.1,1.6,0.2,2.3c0.2,0.6,0.4,1.1,0.7,1.5c0.3,0.4,0.6,0.7,1,0.8
			c0.4,0.2,0.9,0.3,1.4,0.3c0.5,0,1-0.1,1.4-0.3c0.4-0.2,0.8-0.4,1-0.8c0.3-0.4,0.5-0.9,0.6-1.6s0.2-1.5,0.2-2.4
			c0-0.8-0.1-1.5-0.2-2.1s-0.4-1.1-0.7-1.5c-0.3-0.4-0.6-0.7-1.1-0.8c-0.4-0.2-0.9-0.3-1.4-0.3c-0.5,0-0.9,0.1-1.3,0.3
			c-0.4,0.2-0.7,0.5-1,0.9s-0.5,0.9-0.7,1.5C334.6,258.5,334.5,259.3,334.5,260.2z"/>
		<path id="XMLID_41_" class="st4" d="M351.7,251h8.5l3,10.7l2.9-10.7h8.5v18.3H369v-13.1l-3.6,13.1H361l-3.6-13.1v13.1h-5.6V251z"
			/>
		<path id="XMLID_43_" class="st4" d="M379.4,269.3V251h6.8v18.3H379.4z"/>
		<path id="XMLID_45_" class="st4" d="M390.9,251h6.3l6.8,9.1V251h6.3v18.3H404l-6.8-9v9h-6.3V251z"/>
		<path id="XMLID_47_" class="st4" d="M424.8,262.9v-4.2h9.6v8c-0.9,0.6-1.7,1.1-2.5,1.5s-1.6,0.7-2.3,0.9c-0.8,0.2-1.6,0.4-2.4,0.5
			c-0.8,0.1-1.7,0.1-2.6,0.1c-3.6,0-6.3-0.9-7.9-2.7c-1.7-1.8-2.5-4.1-2.5-6.8c0-1.5,0.2-2.8,0.7-3.9c0.5-1.2,1.2-2.2,2.1-3
			c0.9-0.8,2-1.5,3.4-1.9s2.9-0.7,4.6-0.7c1.5,0,2.7,0.1,3.8,0.4s1.9,0.6,2.7,1.1s1.3,1.1,1.8,1.8c0.5,0.7,0.8,1.4,1.1,2.3l-6.5,1
			c-0.4-1.4-1.4-2.1-3-2.1c-0.6,0-1.1,0.1-1.6,0.3c-0.5,0.2-0.9,0.5-1.2,0.9c-0.3,0.4-0.6,0.9-0.8,1.6s-0.3,1.4-0.3,2.2
			c0,1,0.1,1.8,0.3,2.4c0.2,0.7,0.5,1.2,0.8,1.6s0.8,0.7,1.3,0.9c0.5,0.2,1.1,0.3,1.7,0.3c0.6,0,1.2-0.1,1.8-0.2
			c0.6-0.1,1.2-0.3,1.8-0.7v-1.5H424.8z"/>
		<path id="XMLID_49_" class="st4" d="M449.8,251h11.9c0.8,0,1.5,0.1,2.3,0.3c0.7,0.2,1.4,0.4,2,0.8c0.6,0.4,1,0.8,1.4,1.4
			s0.5,1.3,0.5,2.1c0,0.5-0.1,1-0.3,1.5c-0.2,0.4-0.4,0.8-0.7,1.2s-0.7,0.6-1.1,0.8c-0.4,0.2-0.8,0.4-1.3,0.5
			c1.5,0.3,2.6,0.9,3.3,1.6c0.7,0.8,1,1.7,1,2.9c0,0.9-0.2,1.6-0.5,2.3c-0.4,0.7-0.9,1.2-1.6,1.6c-0.7,0.4-1.5,0.8-2.5,1
			s-2.1,0.3-3.4,0.3h-10.9V251z M456.5,258.1h2.4c0.8,0,1.4-0.1,1.7-0.4c0.4-0.3,0.5-0.7,0.5-1.2c0-0.5-0.2-0.9-0.5-1.1
			c-0.4-0.3-0.9-0.4-1.7-0.4h-2.4V258.1z M456.5,265h3.1c0.8,0,1.4-0.2,1.8-0.5c0.4-0.3,0.6-0.7,0.6-1.3c0-0.5-0.2-0.8-0.5-1.1
			s-1-0.4-1.9-0.4h-3.1V265z"/>
		<path id="XMLID_53_" class="st4" d="M483.1,266.4h-6.1l-0.9,2.9h-6.6l7.1-18.3h7l7.1,18.3H484L483.1,266.4z M481.9,262.2l-1.9-6
			l-1.9,6H481.9z"/>
		<path id="XMLID_56_" class="st4" d="M510.3,263.3c-0.3,1.1-0.7,2.1-1.2,2.9s-1.2,1.5-2,2c-0.8,0.5-1.6,0.9-2.6,1.1
			c-1,0.2-2.1,0.4-3.3,0.4c-1.5,0-2.8-0.2-4-0.6c-1.2-0.4-2.2-1-3-1.8s-1.5-1.8-1.9-3c-0.4-1.2-0.7-2.6-0.7-4.1
			c0-1.5,0.2-2.9,0.7-4.1c0.4-1.2,1.1-2.2,1.9-3s1.8-1.4,3.1-1.8c1.2-0.4,2.6-0.6,4.1-0.6c1.2,0,2.3,0.1,3.3,0.4
			c0.9,0.2,1.8,0.6,2.5,1.1c0.7,0.5,1.3,1.1,1.8,1.8c0.5,0.7,0.9,1.6,1.3,2.5l-6,1.4c-0.1-0.3-0.2-0.6-0.3-0.9s-0.3-0.6-0.6-0.8
			s-0.5-0.4-0.8-0.6c-0.3-0.1-0.6-0.2-1-0.2c-1,0-1.8,0.4-2.3,1.3c-0.5,0.8-0.8,2-0.8,3.6c0,1,0.1,1.8,0.2,2.4
			c0.1,0.6,0.3,1.2,0.6,1.5c0.3,0.4,0.6,0.6,0.9,0.8s0.8,0.2,1.2,0.2c0.9,0,1.6-0.3,2.1-0.9c0.5-0.6,0.8-1.4,1-2.6L510.3,263.3z"/>
		<path id="XMLID_58_" class="st4" d="M513.9,251h6.8v6.8l6.2-6.8h8.2l-6.8,6.9l7.1,11.4h-7.6l-4.1-7.2l-3,3v4.2h-6.8V251z"/>
		<path id="XMLID_60_" class="st4" d="M553.9,262.8c0.1,0.4,0.1,0.8,0.3,1.2c0.1,0.4,0.3,0.7,0.6,0.9c0.2,0.3,0.6,0.5,1,0.6
			s0.9,0.2,1.4,0.2c0.8,0,1.4-0.2,1.8-0.5c0.4-0.3,0.6-0.7,0.6-1.1c0-0.2,0-0.4-0.1-0.6c-0.1-0.2-0.3-0.3-0.5-0.5
			c-0.3-0.2-0.6-0.3-1.1-0.4c-0.5-0.1-1.1-0.3-1.9-0.5c-1.3-0.3-2.5-0.6-3.4-1s-1.7-0.8-2.3-1.3c-0.6-0.5-1-1-1.3-1.6
			s-0.4-1.3-0.4-2c0-0.8,0.2-1.5,0.5-2.2c0.3-0.7,0.9-1.3,1.6-1.8c0.7-0.5,1.6-0.9,2.7-1.2s2.4-0.5,3.9-0.5c2.6,0,4.6,0.5,5.9,1.4
			c1.4,1,2.2,2.4,2.4,4.2l-6.1,0.3c-0.1-0.7-0.4-1.3-0.8-1.6c-0.4-0.4-1-0.6-1.7-0.6c-0.4,0-0.7,0-1,0.1s-0.5,0.2-0.6,0.3
			c-0.2,0.1-0.3,0.2-0.3,0.4c-0.1,0.2-0.1,0.3-0.1,0.5c0,0.1,0,0.2,0,0.4c0,0.1,0.1,0.2,0.3,0.3c0.2,0.1,0.4,0.2,0.7,0.3
			c0.3,0.1,0.8,0.2,1.3,0.3c2.7,0.5,4.6,1,5.7,1.6s2,1.3,2.5,2.1c0.5,0.8,0.8,1.7,0.8,2.7c0,0.9-0.2,1.8-0.6,2.6
			c-0.4,0.8-1,1.5-1.7,2c-0.8,0.6-1.7,1-2.8,1.3s-2.4,0.5-3.8,0.5c-3.4,0-5.8-0.6-7.1-1.9s-2.1-2.8-2.2-4.6L553.9,262.8z"/>
		<path id="XMLID_62_" class="st4" d="M568.5,260.2c0-1.5,0.2-2.9,0.7-4c0.5-1.2,1.1-2.2,2-3s1.9-1.4,3.2-1.9s2.7-0.6,4.2-0.6
			c1.6,0,3.1,0.2,4.3,0.6s2.3,1,3.2,1.8s1.5,1.8,2,2.9c0.5,1.2,0.7,2.5,0.7,4c0,1.5-0.2,2.9-0.6,4.1c-0.4,1.2-1.1,2.2-1.9,3
			c-0.8,0.8-1.9,1.5-3.1,1.9s-2.7,0.6-4.3,0.6c-1.5,0-3-0.2-4.2-0.6s-2.3-1-3.2-1.7c-0.9-0.8-1.6-1.8-2.1-3
			C568.8,263.2,568.5,261.8,568.5,260.2z M575.3,260.2c0,0.9,0.1,1.6,0.2,2.3s0.4,1.1,0.7,1.5c0.3,0.4,0.6,0.7,1,0.8
			c0.4,0.2,0.9,0.3,1.4,0.3c0.5,0,1-0.1,1.4-0.3c0.4-0.2,0.8-0.4,1.1-0.8c0.3-0.4,0.5-0.9,0.6-1.6s0.2-1.5,0.2-2.4
			c0-0.8-0.1-1.5-0.2-2.1c-0.2-0.6-0.4-1.1-0.7-1.5s-0.6-0.7-1.1-0.8s-0.9-0.3-1.4-0.3c-0.5,0-0.9,0.1-1.3,0.3
			c-0.4,0.2-0.7,0.5-1,0.9s-0.5,0.9-0.7,1.5S575.3,259.3,575.3,260.2z"/>
		<path id="XMLID_65_" class="st4" d="M591.6,260.2c0-1.5,0.2-2.9,0.7-4c0.5-1.2,1.1-2.2,2-3s1.9-1.4,3.2-1.9s2.7-0.6,4.2-0.6
			c1.6,0,3.1,0.2,4.3,0.6s2.3,1,3.2,1.8s1.5,1.8,2,2.9c0.5,1.2,0.7,2.5,0.7,4c0,1.5-0.2,2.9-0.6,4.1c-0.4,1.2-1.1,2.2-1.9,3
			c-0.8,0.8-1.9,1.5-3.1,1.9s-2.7,0.6-4.3,0.6c-1.5,0-3-0.2-4.2-0.6s-2.3-1-3.2-1.7c-0.9-0.8-1.6-1.8-2.1-3
			C591.9,263.2,591.6,261.8,591.6,260.2z M598.4,260.2c0,0.9,0.1,1.6,0.2,2.3s0.4,1.1,0.7,1.5c0.3,0.4,0.6,0.7,1,0.8
			c0.4,0.2,0.9,0.3,1.4,0.3c0.5,0,1-0.1,1.4-0.3c0.4-0.2,0.8-0.4,1.1-0.8c0.3-0.4,0.5-0.9,0.6-1.6s0.2-1.5,0.2-2.4
			c0-0.8-0.1-1.5-0.2-2.1c-0.2-0.6-0.4-1.1-0.7-1.5s-0.6-0.7-1.1-0.8s-0.9-0.3-1.4-0.3c-0.5,0-0.9,0.1-1.3,0.3
			c-0.4,0.2-0.7,0.5-1,0.9s-0.5,0.9-0.7,1.5S598.4,259.3,598.4,260.2z"/>
		<path id="XMLID_68_" class="st4" d="M615.6,251h6.3l6.8,9.1V251h6.3v18.3h-6.3l-6.8-9v9h-6.3V251z"/>
		<path id="XMLID_70_" class="st4" d="M650.4,245.7h7v5.4l-1.4,10.8h-4.3l-1.3-10.8V245.7z M650.6,263.5h6.5v5.8h-6.5V263.5z"/>
		<path id="XMLID_73_" class="st4" d="M303.2,285.3h13.7c2.3,0,4,0.6,5.2,1.7c1.2,1.1,1.8,2.5,1.8,4.2c0,1.4-0.4,2.6-1.3,3.6
			c-0.6,0.7-1.4,1.2-2.5,1.6c1.7,0.4,2.9,1.1,3.7,2.1c0.8,1,1.2,2.2,1.2,3.7c0,1.2-0.3,2.3-0.9,3.3s-1.3,1.8-2.3,2.3
			c-0.6,0.4-1.5,0.6-2.8,0.8c-1.6,0.2-2.7,0.3-3.3,0.3h-12.6V285.3z M310.5,294.5h3.2c1.1,0,1.9-0.2,2.4-0.6c0.4-0.4,0.7-1,0.7-1.7
			c0-0.7-0.2-1.2-0.7-1.6c-0.4-0.4-1.2-0.6-2.3-0.6h-3.2V294.5z M310.5,303.8h3.7c1.3,0,2.1-0.2,2.7-0.7c0.5-0.4,0.8-1,0.8-1.8
			c0-0.7-0.3-1.3-0.8-1.7c-0.5-0.4-1.4-0.6-2.7-0.6h-3.7V303.8z"/>
		<path id="XMLID_77_" class="st4" d="M328.8,308.9v-18.3h6.8v18.3H328.8z"/>
		<path id="XMLID_79_" class="st4" d="M340.3,290.6h16.1v4.3h-9.4v2.5h8.7v4.1h-8.7v2.9h9.7v4.5h-16.4V290.6z"/>
		<path id="XMLID_81_" class="st4" d="M360.5,290.6h6.3l6.8,9.1v-9.1h6.3v18.3h-6.3l-6.8-9v9h-6.3V290.6z"/>
		<path id="XMLID_83_" class="st4" d="M382.7,290.6h18.6v5h-5.9v13.3h-6.8v-13.3h-5.9V290.6z"/>
		<path id="XMLID_85_" class="st4" d="M402,299.8c0-1.5,0.2-2.9,0.7-4c0.5-1.2,1.1-2.2,2-3s1.9-1.4,3.2-1.9s2.7-0.6,4.2-0.6
			c1.6,0,3.1,0.2,4.3,0.6c1.3,0.4,2.3,1,3.2,1.8c0.9,0.8,1.5,1.8,2,2.9c0.5,1.2,0.7,2.5,0.7,4c0,1.5-0.2,2.9-0.6,4.1
			c-0.4,1.2-1.1,2.2-1.9,3c-0.8,0.8-1.9,1.5-3.1,1.9s-2.7,0.6-4.3,0.6c-1.5,0-3-0.2-4.2-0.6s-2.3-1-3.2-1.7c-0.9-0.8-1.6-1.8-2.1-3
			C402.2,302.8,402,301.4,402,299.8z M409.8,283.8h4.7l3.6,4.6h-4l-2-2.5l-2,2.5h-4L409.8,283.8z M408.8,299.8
			c0,0.9,0.1,1.6,0.2,2.3c0.2,0.6,0.4,1.1,0.7,1.5c0.3,0.4,0.6,0.7,1,0.8c0.4,0.2,0.9,0.3,1.4,0.3c0.5,0,1-0.1,1.4-0.3
			c0.4-0.2,0.8-0.4,1.1-0.8c0.3-0.4,0.5-0.9,0.6-1.6s0.2-1.5,0.2-2.4c0-0.8-0.1-1.5-0.2-2.1c-0.2-0.6-0.4-1.1-0.7-1.5
			c-0.3-0.4-0.6-0.7-1.1-0.8s-0.9-0.3-1.4-0.3c-0.5,0-0.9,0.1-1.3,0.3c-0.4,0.2-0.7,0.5-1,0.9c-0.3,0.4-0.5,0.9-0.7,1.5
			S408.8,298.9,408.8,299.8z"/>
		<path id="XMLID_89_" class="st4" d="M423.2,290.6h18.6v5h-5.9v13.3h-6.8v-13.3h-5.9V290.6z"/>
		<path id="XMLID_91_" class="st4" d="M455.6,290.6h9.3c1.7,0,3.1,0.2,4.3,0.7c1.2,0.5,2.2,1.1,2.9,1.9s1.3,1.8,1.6,2.9
			c0.3,1.1,0.5,2.3,0.5,3.6c0,1.6-0.2,3-0.6,4.2c-0.4,1.2-1,2.1-1.8,2.9c-0.8,0.7-1.8,1.3-2.9,1.7s-2.5,0.5-3.9,0.5h-9.3V290.6z
			 M462.3,295.1v9.3h1.8c0.6,0,1.1-0.1,1.5-0.2s0.8-0.4,1.1-0.8c0.3-0.4,0.5-0.8,0.6-1.4c0.1-0.6,0.2-1.3,0.2-2.2
			c0-0.9-0.1-1.7-0.3-2.3c-0.2-0.6-0.4-1.1-0.7-1.5c-0.3-0.4-0.7-0.6-1.1-0.8c-0.4-0.1-0.9-0.2-1.4-0.2H462.3z"/>
		<path id="XMLID_94_" class="st4" d="M478.1,290.6h16.1v4.3h-9.4v2.5h8.7v4.1h-8.7v2.9h9.7v4.5h-16.4V290.6z"/>
		<path id="XMLID_96_" class="st4" d="M509.3,308.9v-18.3h11.2c2.8,0,4.7,0.5,5.8,1.5c1,1,1.5,2.2,1.5,3.7c0,1.4-0.4,2.6-1.3,3.4
			s-2,1.5-3.5,1.8c0.5,0.1,0.9,0.3,1.2,0.5c0.3,0.2,0.7,0.4,0.9,0.6c0.3,0.2,0.5,0.5,0.7,0.7c0.2,0.3,0.4,0.5,0.5,0.8l2.9,5.2h-7.4
			l-3.1-5.5c-0.2-0.4-0.4-0.6-0.6-0.9c-0.2-0.2-0.4-0.4-0.6-0.5c-0.2-0.1-0.4-0.2-0.6-0.3c-0.2-0.1-0.5-0.1-0.7-0.1h-0.3v7.3H509.3z
			 M516.1,298h2.2c0.6,0,1.1,0,1.4-0.1c0.4-0.1,0.7-0.2,0.9-0.4s0.4-0.4,0.4-0.6c0.1-0.2,0.1-0.5,0.1-0.7c0-0.3,0-0.5-0.1-0.8
			s-0.2-0.4-0.5-0.5c-0.2-0.1-0.5-0.3-0.9-0.3s-0.8-0.1-1.3-0.1h-2.3V298z"/>
		<path id="XMLID_99_" class="st4" d="M531.7,290.6h16.1v4.3h-9.4v2.5h8.7v4.1h-8.7v2.9h9.7v4.5h-16.4V290.6z"/>
		<path id="XMLID_101_" class="st4" d="M549.9,290.6h18.6v5h-5.9v13.3h-6.8v-13.3h-5.9V290.6z"/>
		<path id="XMLID_103_" class="st4" d="M569.2,299.8c0-1.5,0.2-2.9,0.7-4c0.5-1.2,1.1-2.2,2-3s1.9-1.4,3.2-1.9s2.7-0.6,4.2-0.6
			c1.6,0,3.1,0.2,4.3,0.6c1.3,0.4,2.3,1,3.2,1.8c0.9,0.8,1.5,1.8,2,2.9c0.5,1.2,0.7,2.5,0.7,4c0,1.5-0.2,2.9-0.6,4.1
			c-0.4,1.2-1.1,2.2-1.9,3c-0.8,0.8-1.9,1.5-3.1,1.9s-2.7,0.6-4.3,0.6c-1.5,0-3-0.2-4.2-0.6s-2.4-1-3.2-1.7c-0.9-0.8-1.6-1.8-2.1-3
			C569.5,302.8,569.2,301.4,569.2,299.8z M576,299.8c0,0.9,0.1,1.6,0.2,2.3c0.2,0.6,0.4,1.1,0.7,1.5c0.3,0.4,0.6,0.7,1,0.8
			c0.4,0.2,0.9,0.3,1.4,0.3c0.5,0,1-0.1,1.4-0.3c0.4-0.2,0.8-0.4,1-0.8c0.3-0.4,0.5-0.9,0.6-1.6s0.2-1.5,0.2-2.4
			c0-0.8-0.1-1.5-0.2-2.1s-0.4-1.1-0.7-1.5c-0.3-0.4-0.6-0.7-1.1-0.8c-0.4-0.2-0.9-0.3-1.4-0.3c-0.5,0-0.9,0.1-1.3,0.3
			c-0.4,0.2-0.7,0.5-1,0.9c-0.3,0.4-0.5,0.9-0.7,1.5C576.1,298.1,576,298.9,576,299.8z"/>
		<path id="XMLID_106_" class="st4" d="M605.8,290.6h6.8v10.6c0,2.4-0.7,4.3-2.2,5.8c-1.5,1.5-4,2.3-7.5,2.3c-1.7,0-3.2-0.2-4.4-0.6
			s-2.2-0.9-3-1.6c-0.8-0.7-1.4-1.6-1.7-2.5c-0.4-1-0.5-2.1-0.5-3.3v-10.6h6.8v10.9c0,1.1,0.3,1.9,0.8,2.4c0.5,0.5,1.2,0.8,2.2,0.8
			c0.9,0,1.7-0.3,2.2-0.8c0.5-0.5,0.8-1.3,0.8-2.4V290.6z"/>
		<path id="XMLID_108_" class="st4" d="M617.2,308.9v-18.3h11.2c2.8,0,4.7,0.5,5.8,1.5c1,1,1.5,2.2,1.5,3.7c0,1.4-0.4,2.6-1.3,3.4
			s-2,1.5-3.5,1.8c0.5,0.1,0.9,0.3,1.2,0.5c0.3,0.2,0.7,0.4,0.9,0.6c0.3,0.2,0.5,0.5,0.7,0.7c0.2,0.3,0.4,0.5,0.5,0.8l2.9,5.2h-7.4
			l-3.1-5.5c-0.2-0.4-0.4-0.6-0.6-0.9c-0.2-0.2-0.4-0.4-0.6-0.5c-0.2-0.1-0.4-0.2-0.6-0.3c-0.2-0.1-0.5-0.1-0.7-0.1H624v7.3H617.2z
			 M624,298h2.2c0.6,0,1.1,0,1.4-0.1c0.4-0.1,0.7-0.2,0.9-0.4s0.4-0.4,0.4-0.6c0.1-0.2,0.1-0.5,0.1-0.7c0-0.3,0-0.5-0.1-0.8
			s-0.2-0.4-0.5-0.5c-0.2-0.1-0.5-0.3-0.9-0.3s-0.8-0.1-1.3-0.1H624V298z"/>
		<path id="XMLID_111_" class="st4" d="M650.3,285.3h7v5.4l-1.4,10.8h-4.3l-1.3-10.8V285.3z M650.5,303.1h6.5v5.8h-6.5V303.1z"/>
	</g>
	<g id="XMLID_7_" class="st5">
		<path id="XMLID_9_" class="st6" d="M819.1,534.6h4.1l1.4,5.2l1.4-5.2h4.1v8.9h-2.7v-6.4l-1.8,6.4h-2.1l-1.8-6.4v6.4h-2.7V534.6z"
			/>
		<path id="XMLID_11_" class="st6" d="M832.5,534.6h4.1l1.4,5.2l1.4-5.2h4.1v8.9h-2.7v-6.4l-1.8,6.4H837l-1.8-6.4v6.4h-2.7V534.6z"
			/>
		<path id="XMLID_13_" class="st6" d="M851.2,542h-2.9l-0.4,1.4h-3.2l3.4-8.9h3.4l3.4,8.9h-3.3L851.2,542z M850.6,540l-0.9-2.9
			l-0.9,2.9H850.6z"/>
		<path id="XMLID_16_" class="st6" d="M861.4,542h-2.9l-0.4,1.4h-3.2l3.4-8.9h3.4l3.4,8.9h-3.3L861.4,542z M860.9,540l-0.9-2.9
			l-0.9,2.9H860.9z"/>
		<path id="XMLID_19_" class="st6" d="M866.3,534.6h4.1l1.4,5.2l1.4-5.2h4.1v8.9h-2.7v-6.4l-1.8,6.4h-2.1l-1.8-6.4v6.4h-2.7V534.6z"
			/>
		<path id="XMLID_21_" class="st6" d="M885,542H882l-0.4,1.4h-3.2l3.4-8.9h3.4l3.4,8.9h-3.3L885,542z M884.4,540l-0.9-2.9l-0.9,2.9
			H884.4z"/>
		<path id="XMLID_24_" class="st6" d="M889.8,543.4v-8.9h5.4c1.4,0,2.3,0.2,2.8,0.7c0.5,0.5,0.8,1.1,0.8,1.8c0,0.7-0.2,1.2-0.6,1.7
			s-1,0.7-1.7,0.9c0.2,0.1,0.4,0.1,0.6,0.2s0.3,0.2,0.4,0.3s0.2,0.2,0.3,0.4s0.2,0.3,0.3,0.4l1.4,2.5h-3.6l-1.5-2.7
			c-0.1-0.2-0.2-0.3-0.3-0.4c-0.1-0.1-0.2-0.2-0.3-0.3s-0.2-0.1-0.3-0.1s-0.2,0-0.3,0h-0.1v3.5H889.8z M893.1,538.1h1.1
			c0.3,0,0.5,0,0.7-0.1s0.3-0.1,0.4-0.2s0.2-0.2,0.2-0.3s0.1-0.2,0.1-0.3c0-0.1,0-0.3-0.1-0.4s-0.1-0.2-0.2-0.3s-0.2-0.1-0.4-0.2
			s-0.4-0.1-0.6-0.1h-1.1V538.1z"/>
		<path id="XMLID_27_" class="st6" d="M900.5,540.2h3.4v3.2h-3.4V540.2z"/>
		<path id="XMLID_29_" class="st6" d="M914.6,540.5c-0.1,0.6-0.3,1-0.6,1.4s-0.6,0.7-0.9,1s-0.8,0.4-1.3,0.5s-1,0.2-1.6,0.2
			c-0.7,0-1.4-0.1-1.9-0.3s-1.1-0.5-1.5-0.9s-0.7-0.9-0.9-1.5s-0.3-1.2-0.3-2c0-0.7,0.1-1.4,0.3-2s0.5-1.1,0.9-1.4s0.9-0.7,1.5-0.9
			s1.3-0.3,2-0.3c0.6,0,1.1,0.1,1.6,0.2s0.9,0.3,1.2,0.5s0.6,0.5,0.9,0.9s0.4,0.8,0.6,1.2l-2.9,0.7c0-0.2-0.1-0.3-0.2-0.5
			c-0.1-0.1-0.2-0.3-0.3-0.4c-0.1-0.1-0.2-0.2-0.4-0.3c-0.1-0.1-0.3-0.1-0.5-0.1c-0.5,0-0.9,0.2-1.1,0.6s-0.4,1-0.4,1.7
			c0,0.5,0,0.9,0.1,1.2s0.2,0.6,0.3,0.7s0.3,0.3,0.4,0.4s0.4,0.1,0.6,0.1c0.4,0,0.8-0.1,1-0.4s0.4-0.7,0.5-1.3L914.6,540.5z"/>
		<path id="XMLID_31_" class="st6" d="M915.9,539c0-0.7,0.1-1.4,0.3-2s0.5-1.1,1-1.5s0.9-0.7,1.5-0.9s1.3-0.3,2-0.3
			c0.8,0,1.5,0.1,2.1,0.3s1.1,0.5,1.5,0.9s0.7,0.9,1,1.4s0.3,1.2,0.3,1.9c0,0.7-0.1,1.4-0.3,2s-0.5,1.1-0.9,1.5s-0.9,0.7-1.5,0.9
			s-1.3,0.3-2.1,0.3c-0.8,0-1.4-0.1-2-0.3s-1.1-0.5-1.6-0.8s-0.8-0.9-1-1.4S915.9,539.8,915.9,539z M919.2,539c0,0.4,0,0.8,0.1,1.1
			c0.1,0.3,0.2,0.5,0.3,0.7c0.1,0.2,0.3,0.3,0.5,0.4c0.2,0.1,0.4,0.1,0.7,0.1c0.3,0,0.5,0,0.7-0.1s0.4-0.2,0.5-0.4s0.2-0.4,0.3-0.8
			c0.1-0.3,0.1-0.7,0.1-1.2c0-0.4,0-0.7-0.1-1c-0.1-0.3-0.2-0.5-0.3-0.7s-0.3-0.3-0.5-0.4s-0.4-0.1-0.7-0.1c-0.2,0-0.4,0-0.6,0.1
			s-0.4,0.2-0.5,0.4s-0.3,0.4-0.3,0.7C919.2,538.2,919.2,538.6,919.2,539z"/>
		<path id="XMLID_34_" class="st6" d="M927.6,534.6h4.1l1.4,5.2l1.4-5.2h4.1v8.9h-2.7v-6.4l-1.8,6.4h-2.1l-1.8-6.4v6.4h-2.7V534.6z"
			/>
	</g>
</g>
<g id="Layer_2">
	<g id="XMLID_8_">
	</g>
	<g id="XMLID_114_">
	</g>
	<g id="XMLID_115_">
	</g>
	<g id="XMLID_116_">
	</g>
	<g id="XMLID_117_">
	</g>
	<g id="XMLID_118_">
	</g>
	<g id="XMLID_119_">
	</g>
	<g id="XMLID_120_">
	</g>
	<g id="XMLID_121_">
	</g>
	<g id="XMLID_122_">
	</g>
	<g id="XMLID_123_">
	</g>
	<g id="XMLID_124_">
	</g>
	<g id="XMLID_125_">
	</g>
	<g id="XMLID_126_">
	</g>
	<g id="XMLID_127_">
	</g>
</g>
</svg>
