<?xml version="1.0" encoding="utf-8"?>
<!-- Generator: Adobe Illustrator 18.1.1, SVG Export Plug-In . SVG Version: 6.00 Build 0)  -->
<svg version="1.1" id="Calque_1" xmlns="http://www.w3.org/2000/svg" xmlns:xlink="http://www.w3.org/1999/xlink" x="0px" y="0px"
	 viewBox="0 0 50 50" enable-background="new 0 0 50 50" xml:space="preserve">
<g>
	<path fill="#ECF0F1" d="M44.2,25c0-5.4-2.2-10.1-5.6-13.6L11.4,38.6c3.4,3.4,8.2,5.6,13.6,5.6C35.6,44.2,44.2,35.6,44.2,25z"/>
	<path fill="#ECF0F1" d="M25,5.8C14.4,5.8,5.8,14.4,5.8,25c0,5.4,2.2,10.1,5.6,13.6l27.2-27.2C35.1,8,30.4,5.8,25,5.8z"/>
	<path opacity="0.1" fill="#446CB3" enable-background="new    " d="M44.2,25c0-5.4-2.2-10.1-5.6-13.6L11.4,38.6
		c3.4,3.4,8.2,5.6,13.6,5.6C35.6,44.2,44.2,35.6,44.2,25z"/>
	<polygon fill="#DC3023" points="27.6,36.2 27.6,22.6 23.7,26.3 23.7,40.1 	"/>
	<polygon fill="#DC3023" points="11.4,38.6 10.8,39.2 11.4,40.1 	"/>
	<polygon opacity="0.1" fill="#446CB3" enable-background="new    " points="11.4,38.6 10.8,39.2 11.4,40.1 	"/>
	<polygon fill="#DC3023" points="30.8,38.1 33.4,40.5 33.4,26.7 30.8,24.4 	"/>
	<polygon fill="#DC3023" points="41.6,40.5 44.2,38.1 44.2,24.4 41.6,26.7 	"/>
	<polygon fill="#DC3023" points="36.6,27.8 31.7,22.6 29.5,22.6 35.6,28.9 35.8,28.9 34.5,30 38.1,30 47.8,20 44.4,20 	"/>
	<g>
		<polygon fill="#DC3023" points="27.6,15.7 23.7,19.4 23.7,26.3 27.6,22.6 		"/>
		<polygon fill="#DC3023" points="11.4,19.4 7.8,15.7 7.8,36.2 10.8,39.2 11.4,38.6 		"/>
		<polygon fill="#DC3023" points="22,24.1 20.3,22.4 20.5,22.4 29.5,13.4 26.3,13.4 18.7,20.9 7.3,9.5 2.2,9.5 16.6,24.1 		"/>
		<polygon opacity="0.1" fill="#446CB3" enable-background="new    " points="27.6,36.2 27.6,22.6 23.7,26.3 23.7,40.1 		"/>
		<polygon opacity="0.1" fill="#446CB3" enable-background="new    " points="30.8,38.1 33.4,40.5 33.4,26.7 30.8,24.4 		"/>
		<polygon opacity="0.1" fill="#446CB3" enable-background="new    " points="41.6,40.5 44.2,38.1 44.2,24.4 41.6,26.7 		"/>
		<polygon opacity="0.1" fill="#446CB3" enable-background="new    " points="36.6,27.8 31.7,22.6 29.5,22.6 35.6,28.9 35.8,28.9
			34.5,30 38.1,30 47.8,20 44.4,20 		"/>
	</g>
</g>
</svg>
