<?xml version="1.0" encoding="utf-8"?>
<!-- Generator: Adobe Illustrator 18.1.1, SVG Export Plug-In . SVG Version: 6.00 Build 0)  -->
<svg version="1.1" id="Calque_1" xmlns="http://www.w3.org/2000/svg" xmlns:xlink="http://www.w3.org/1999/xlink" x="0px" y="0px"
	 viewBox="0 0 50 50" enable-background="new 0 0 50 50" xml:space="preserve">
<path fill="#DC3023" d="M22.1,26.5v-2.9c0-0.2-0.1-0.4-0.2-0.5c-0.1-0.1-0.3-0.2-0.5-0.2h-4.4v-4.4c0-0.2-0.1-0.4-0.2-0.5
	c-0.1-0.1-0.3-0.2-0.5-0.2h-2.9c-0.2,0-0.4,0.1-0.5,0.2c-0.1,0.1-0.2,0.3-0.2,0.5v4.4H8.1c-0.2,0-0.4,0.1-0.5,0.2
	c-0.1,0.1-0.2,0.3-0.2,0.5v2.9c0,0.2,0.1,0.4,0.2,0.5c0.1,0.1,0.3,0.2,0.5,0.2h4.4v4.4c0,0.2,0.1,0.4,0.2,0.5
	c0.1,0.1,0.3,0.2,0.5,0.2h2.9c0.2,0,0.4-0.1,0.5-0.2c0.1-0.1,0.2-0.3,0.2-0.5v-4.4h4.4c0.2,0,0.4-0.1,0.5-0.2
	C22,26.9,22.1,26.7,22.1,26.5z M35.3,27.9c0-0.8-0.3-1.5-0.9-2.1c-0.6-0.6-1.3-0.9-2.1-0.9s-1.5,0.3-2.1,0.9
	c-0.6,0.6-0.9,1.3-0.9,2.1s0.3,1.5,0.9,2.1c0.6,0.6,1.3,0.9,2.1,0.9s1.5-0.3,2.1-0.9C35,29.4,35.3,28.8,35.3,27.9z M41.2,22.1
	c0-0.8-0.3-1.5-0.9-2.1c-0.6-0.6-1.3-0.9-2.1-0.9s-1.5,0.3-2.1,0.9c-0.6,0.6-0.9,1.3-0.9,2.1s0.3,1.5,0.9,2.1
	c0.6,0.6,1.3,0.9,2.1,0.9s1.5-0.3,2.1-0.9C40.9,23.6,41.2,22.9,41.2,22.1z M47.1,25c0,3.2-1.1,6-3.4,8.3s-5.1,3.4-8.3,3.4
	c-2.9,0-5.5-1-7.8-2.9h-5.1c-2.2,2-4.8,2.9-7.8,2.9c-3.2,0-6-1.1-8.3-3.4S2.9,28.2,2.9,25s1.1-6,3.4-8.3s5.1-3.4,8.3-3.4h20.6
	c3.2,0,6,1.1,8.3,3.4C45.9,19,47.1,21.8,47.1,25z"/>
</svg>
