<?xml version="1.0" encoding="utf-8"?>
<!-- Generator: Adobe Illustrator 18.1.1, SVG Export Plug-In . SVG Version: 6.00 Build 0)  -->
<svg version="1.1" id="Calque_1" xmlns="http://www.w3.org/2000/svg" xmlns:xlink="http://www.w3.org/1999/xlink" x="0px" y="0px" onload="init(evt)"
     viewBox="0 0 1244.8 824.6" enable-background="new 0 0 1244.8 824.6" xml:space="preserve">
    <defs>
        <script type="text/ecmascript"><![CDATA[
              var svgNS = "http://www.w3.org/2000/svg";

              function init(evt)
              {
                if ( window.svgDocument == null )
                {
                  svgDoc = evt.target.ownerDocument;
                }

                addRotateTransform('rotateR', 4, 1);
                addRotateTransform('rotateL', 4, -1);
              }

              function addRotateTransform(target_id, dur, dir)
                {
                  var my_element = svgDoc.getElementsByClassName(target_id);
                      for (var i=0;i<my_element.length;i++){
                      var a = svgDoc.createElementNS(svgNS, "animateTransform");

                      var bb = my_element[i].getBBox();
                      var cx = bb.x + bb.width/2;
                      var cy = bb.y + bb.height/2;

                      a.setAttributeNS(null, "attributeName", "transform");
                      a.setAttributeNS(null, "attributeType", "XML");
                      a.setAttributeNS(null, "type", "rotate");
                      a.setAttributeNS(null, "dur", dur + "s");
                      a.setAttributeNS(null, "repeatCount", "indefinite");
                      a.setAttributeNS(null, "from", "0 "+cx+" "+cy);
                      a.setAttributeNS(null, "to", 360*dir+" "+cx+" "+cy);

                      my_element[i].appendChild(a);
                      a.beginElement();
                  }

                }

            ]]></script>
        <style type="text/css"><![CDATA[
        .rotateL {

    -webkit-transform-origin:  50% 50%;
    -webkit-animation: rotateL 4s linear infinite;
}
@-webkit-keyframes rotateL {
    from {
        -webkit-transform: rotate(0deg);
        transform: rotate(0deg);
    }
    to {
        -webkit-transform: rotate(-360deg);
        transform: rotate(-360deg);
    }
}
.rotateR {

    -webkit-transform-origin:  50% 50%;
    -webkit-animation: rotateR 4s linear infinite;
}
@-webkit-keyframes rotateR {
    from {
        -webkit-transform: rotate(0deg);
        transform: rotate(0deg);
    }
    to {
        -webkit-transform: rotate(360deg);
        transform: rotate(360deg);
    }
}
}]]></style>
    </defs>
    <path  class='rotateR' fill="#4B77BE" d="M632.4,254.7c0-1.4-0.4-2-1.7-2.4c-4.6-1.4-9.1-3-13.6-4.5c-1.2-0.4-1.8-0.9-2-2.3c-0.7-6.4-1.9-12.8-3.6-19
                                             c-0.5-1.7-0.1-2.8,1.3-3.9c3.6-2.9,7.1-6,10.7-8.9c1.3-1,1.6-1.9,0.9-3.4c-1.7-3.9-3.3-7.8-4.7-11.8c-0.6-1.8-1.6-2.2-3.4-2
                                             c-4.8,0.4-9.6,0.6-14.3,1c-1.5,0.1-2.2-0.4-2.8-1.6c-3.4-6.2-7.2-12.1-11.7-17.5c-0.9-1.1-0.8-2-0.2-3.2c2.4-4.7,4.7-9.4,7.1-14.1
                                             c0.6-1.1,0.5-1.8-0.4-2.7c-3.2-3.1-6.4-6.3-9.5-9.5c-1.1-1.2-2-1.1-3.3-0.4c-4.5,2.4-9.1,4.6-13.7,7c-1.1,0.6-1.9,0.7-3-0.1
                                             c-5.9-4.7-12.1-8.8-18.8-12.4c-1.1-0.6-1.3-1.3-1.2-2.5c0.3-3.8,0.5-7.6,0.8-12.1c0,0,0-0.3,0-0.6c0.3-1.8,0.4-3.3-1.9-4
                                             c-4-1.3-7.9-3-11.8-4.7c-1.3-0.6-2.2-0.4-3.1,0.7c-3,3.6-6.1,7.2-9.1,10.8c-0.7,0.9-1.3,1.1-2.4,0.8c-6.5-1.9-13.2-3.1-20-3.9
                                             c-1.4-0.2-1.9-0.7-2.3-1.9c-1.4-4.5-3-8.9-4.4-13.4c-0.4-1.4-1-2.1-2.6-2c-4.4,0.1-8.8,0.1-13.2,0c-1.4,0-1.9,0.5-2.3,1.7
                                             c-1.5,4.6-3.1,9.2-4.6,13.9c-0.4,1.2-0.9,1.6-2.2,1.7c-6.5,0.7-13,1.9-19.3,3.7c-1.4,0.4-2.2,0-3.1-1.1c-3.1-3.8-6.3-7.4-9.4-11.2
                                             c-1.2-1.5-2.3-2-4.2-1.1c-3.7,1.7-7.5,3.2-11.3,4.6c-1.6,0.6-2.2,1.3-2,3.1c0.4,4.9,0.6,9.7,1,14.6c0.2,1.8-0.3,2.9-2,3.8
                                             c-6.1,3.3-11.8,7.1-17.1,11.4c-1.1,0.9-2,0.9-3.2,0.3c-4.5-2.4-9.1-4.6-13.7-7c-1.5-0.8-2.4-0.6-3.5,0.6c-3,3.1-6,6.2-9.2,9.2
                                             c-1.1,1-1.1,1.8-0.5,3.1c2.4,4.6,4.6,9.3,7.1,13.9c0.7,1.3,0.5,2.1-0.3,3.2c-4.2,5.2-8,10.8-11.2,16.7c-0.8,1.5-1.8,1.9-3.4,1.8
                                             c-5.4-0.4-10.8-0.6-16.3-1.1c-1.5-0.1-2.1,0.4-2.6,1.7c-1.5,4-3.1,8-4.9,12c-0.7,1.6-0.3,2.4,0.9,3.4c4.1,3.4,8.2,6.9,12.3,10.4
                                             c1,0.8,1.5,1.6,1.1,3.1c-1.7,6-2.9,12.1-3.6,18.3c-0.2,1.5-0.8,2-2.1,2.4c-5.3,1.7-10.6,3.5-15.9,5.2c-1.4,0.4-1.9,1.1-1.8,2.5
                                             c0.1,4.5,0.1,9,0,13.4c0,1.4,0.4,2.1,1.8,2.5c5.3,1.7,10.5,3.5,15.7,5.1c1.4,0.5,2.2,1,2.4,2.7c0.6,5.7,1.7,11.4,3.3,16.9
                                             c0.5,1.9,0,2.9-1.4,4c-4,3.2-7.8,6.7-11.8,9.9c-1.3,1-1.6,1.9-0.9,3.4c1.7,3.9,3.3,7.8,4.8,11.8c0.6,1.5,1.3,2.1,3,2
                                             c5.2-0.4,10.4-0.6,15.5-1.1c1.7-0.1,2.7,0.3,3.6,1.9c3.2,6.1,7.1,11.8,11.4,17.1c0.9,1.1,1.1,2,0.4,3.4c-2.4,4.6-4.7,9.3-7.1,13.9
                                             c-0.6,1.2-0.5,2,0.4,2.9c3.3,3.2,6.5,6.4,9.7,9.7c0.9,0.9,1.6,1,2.7,0.4c4.8-2.5,9.6-4.8,14.3-7.3c1.1-0.6,1.8-0.5,2.7,0.3
                                             c5.4,4.3,11.1,8.1,17.1,11.4c1.3,0.7,1.8,1.6,1.6,3c-0.4,5.7-0.7,11.3-1.1,17c-0.1,1.6,0.2,2.5,1.8,3c4,1.5,8,3.1,12,4.8
                                             c1.5,0.6,2.3,0.3,3.2-0.8c3.7-4.4,7.5-8.8,11.1-13.2c0.9-1.1,1.7-1.3,3-0.9c5.7,1.6,11.5,2.7,17.4,3.4c1.7,0.2,2.3,0.9,2.8,2.3
                                             c1.7,5.4,3.6,10.8,5.3,16.2c0.4,1.4,1.1,1.8,2.5,1.8c4.4-0.1,8.8-0.1,13.2,0c1.5,0,2.1-0.5,2.5-1.9c1.7-5.5,3.6-10.9,5.4-16.4
                                             c0.4-1.3,1-1.9,2.5-2c6.1-0.7,12.2-1.8,18.1-3.5c1.4-0.4,2.2,0,3.1,1c3.2,3.9,6.5,7.7,9.7,11.6c1.1,1.3,2,1.7,3.6,0.9
                                             c3.8-1.7,7.7-3.2,11.5-4.7c1.6-0.6,2.2-1.4,2.1-3.1c-0.4-5.1-0.6-10.2-1-15.3c-0.1-1.4,0.3-2.1,1.6-2.8c6.2-3.4,12.1-7.2,17.6-11.7
                                             c1.2-1,2.1-0.9,3.4-0.3c4.6,2.4,9.3,4.7,13.9,7.1c1.2,0.6,1.9,0.6,2.9-0.4c3.2-3.3,6.4-6.5,9.7-9.7c0.9-0.9,1-1.6,0.4-2.7
                                             c-2.4-4.8-4.8-9.6-7.2-14.3c-0.4-0.9-0.8-1.6,0-2.6c4.8-6,9-12.4,12.7-19.2c0.5-0.9,1-1.3,2.1-1.2c5,0.4,10,0.6,15.1,1
                                             c1.4,0.1,2-0.3,2.5-1.5c1.6-4.2,3.2-8.3,5-12.4c0.6-1.4,0.3-2.2-0.8-3.1c-3.7-3.1-7.3-6.2-11-9.2c-1.2-0.9-1.4-1.8-1-3.3
                                             c1.7-6.1,2.9-12.3,3.5-18.6c0.1-1.4,0.7-2.1,2-2.5c4.5-1.4,8.9-3,13.4-4.4c1.3-0.4,1.9-0.9,1.9-2.4
                                             C632.3,263.8,632.4,259.2,632.4,254.7z M481,300.6c-21.5,0-39.1-17.5-39.1-39c0-21.4,17.6-39.1,39.1-39.1c21.5,0,39.1,17.5,39.1,39
                                             C520.1,283.1,502.7,300.6,481,300.6z"/>
    <path  class='rotateL' fill='#4B77BE' d="M1229.6,287.4c0-1.4-0.4-2-1.7-2.4c-4.6-1.4-9.1-3-13.6-4.5c-1.2-0.4-1.8-0.9-2-2.3
                                             c-0.7-6.4-1.9-12.8-3.6-19c-0.5-1.7-0.1-2.8,1.3-3.9c3.6-2.9,7.1-6,10.7-8.9c1.3-1,1.6-1.9,0.9-3.4c-1.7-3.9-3.3-7.8-4.7-11.8
                                             c-0.6-1.8-1.6-2.2-3.4-2c-4.8,0.4-9.6,0.6-14.3,1c-1.5,0.1-2.2-0.4-2.8-1.6c-3.4-6.2-7.2-12.1-11.7-17.5c-0.9-1.1-0.8-2-0.2-3.2
                                             c2.4-4.7,4.7-9.4,7.1-14.1c0.6-1.1,0.5-1.8-0.4-2.7c-3.2-3.1-6.4-6.3-9.5-9.5c-1.1-1.2-2-1.1-3.3-0.4c-4.5,2.4-9.1,4.6-13.7,7
                                             c-1.1,0.6-1.9,0.7-3-0.1c-5.9-4.7-12.1-8.8-18.8-12.4c-1.1-0.6-1.3-1.3-1.2-2.5c0.3-3.8,0.5-7.6,0.8-12.1c0,0,0-0.3,0-0.6
                                             c0.3-1.8,0.4-3.3-1.9-4c-4-1.3-7.9-3-11.8-4.7c-1.3-0.6-2.2-0.4-3.1,0.7c-3,3.6-6.1,7.2-9.1,10.8c-0.7,0.9-1.3,1.1-2.4,0.8
                                             c-6.5-1.9-13.2-3.1-20-3.9c-1.4-0.2-1.9-0.7-2.3-1.9c-1.4-4.5-3-8.9-4.4-13.4c-0.4-1.4-1-2.1-2.6-2c-4.4,0.1-8.8,0.1-13.2,0
                                             c-1.4,0-1.9,0.5-2.3,1.7c-1.5,4.6-3.1,9.2-4.6,13.9c-0.4,1.2-0.9,1.6-2.2,1.7c-6.5,0.7-13,1.9-19.3,3.7c-1.4,0.4-2.2,0-3.1-1.1
                                             c-3.1-3.8-6.3-7.4-9.4-11.2c-1.2-1.5-2.3-2-4.2-1.1c-3.7,1.7-7.5,3.2-11.3,4.6c-1.6,0.6-2.2,1.3-2,3.1c0.4,4.9,0.6,9.7,1,14.6
                                             c0.2,1.8-0.3,2.9-2,3.8c-6.1,3.3-11.8,7.1-17.1,11.4c-1.1,0.9-2,0.9-3.2,0.3c-4.5-2.4-9.1-4.6-13.7-7c-1.5-0.8-2.4-0.6-3.5,0.6
                                             c-3,3.1-6,6.2-9.2,9.2c-1.1,1-1.1,1.8-0.5,3.1c2.4,4.6,4.6,9.3,7.1,13.9c0.7,1.3,0.5,2.1-0.3,3.2c-4.2,5.2-8,10.8-11.2,16.7
                                             c-0.8,1.5-1.8,1.9-3.4,1.8c-5.4-0.4-10.8-0.6-16.3-1.1c-1.5-0.1-2.1,0.4-2.6,1.7c-1.5,4-3.1,8-4.9,12c-0.7,1.6-0.3,2.4,0.9,3.4
                                             c4.1,3.4,8.2,6.9,12.3,10.4c1,0.8,1.5,1.6,1.1,3.1c-1.7,6-2.9,12.1-3.6,18.3c-0.2,1.5-0.8,2-2.1,2.4c-5.3,1.7-10.6,3.5-15.9,5.2
                                             c-1.4,0.4-1.9,1.1-1.8,2.5c0.1,4.5,0.1,9,0,13.4c0,1.4,0.4,2.1,1.8,2.5c5.3,1.7,10.5,3.5,15.7,5.1c1.4,0.5,2.2,1,2.4,2.7
                                             c0.6,5.7,1.7,11.4,3.3,16.9c0.5,1.9,0,2.9-1.4,4c-4,3.2-7.8,6.7-11.8,9.9c-1.3,1-1.6,1.9-0.9,3.4c1.7,3.9,3.3,7.8,4.8,11.8
                                             c0.6,1.5,1.3,2.1,3,2c5.2-0.4,10.4-0.6,15.5-1.1c1.7-0.1,2.7,0.3,3.6,1.9c3.2,6.1,7.1,11.8,11.4,17.1c0.9,1.1,1.1,2,0.4,3.4
                                             c-2.4,4.6-4.7,9.3-7.1,13.9c-0.6,1.2-0.5,2,0.4,2.9c3.3,3.2,6.5,6.4,9.7,9.7c0.9,0.9,1.6,1,2.7,0.4c4.8-2.5,9.6-4.8,14.3-7.3
                                             c1.1-0.6,1.8-0.5,2.7,0.3c5.4,4.3,11.1,8.1,17.1,11.4c1.3,0.7,1.8,1.6,1.6,3c-0.4,5.7-0.7,11.3-1.1,17c-0.1,1.6,0.2,2.5,1.8,3
                                             c4,1.5,8,3.1,12,4.8c1.5,0.6,2.3,0.3,3.2-0.8c3.7-4.4,7.5-8.8,11.1-13.2c0.9-1.1,1.7-1.3,3-0.9c5.7,1.6,11.5,2.7,17.4,3.4
                                             c1.7,0.2,2.3,0.9,2.8,2.3c1.7,5.4,3.6,10.8,5.3,16.2c0.4,1.4,1.1,1.8,2.5,1.8c4.4-0.1,8.8-0.1,13.2,0c1.5,0,2.1-0.5,2.5-1.9
                                             c1.7-5.5,3.6-10.9,5.4-16.4c0.4-1.3,1-1.9,2.5-2c6.1-0.7,12.2-1.8,18.1-3.5c1.4-0.4,2.2,0,3.1,1c3.2,3.9,6.5,7.7,9.7,11.6
                                             c1.1,1.3,2,1.7,3.6,0.9c3.8-1.7,7.7-3.2,11.5-4.7c1.6-0.6,2.2-1.4,2.1-3.1c-0.4-5.1-0.6-10.2-1-15.3c-0.1-1.4,0.3-2.1,1.6-2.8
                                             c6.2-3.4,12.1-7.2,17.6-11.7c1.2-1,2.1-0.9,3.4-0.3c4.6,2.4,9.3,4.7,13.9,7.1c1.2,0.6,1.9,0.6,2.9-0.4c3.2-3.3,6.4-6.5,9.7-9.7
                                             c0.9-0.9,1-1.6,0.4-2.7c-2.4-4.8-4.8-9.6-7.2-14.3c-0.4-0.9-0.8-1.6,0-2.6c4.8-6,9-12.4,12.7-19.2c0.5-0.9,1-1.3,2.1-1.2
                                             c5,0.4,10.1,0.6,15.1,1c1.4,0.1,2-0.3,2.5-1.5c1.6-4.2,3.2-8.3,5-12.4c0.6-1.4,0.3-2.2-0.8-3.1c-3.7-3.1-7.3-6.2-11-9.2
                                             c-1.2-0.9-1.4-1.8-1-3.3c1.7-6.1,2.9-12.3,3.5-18.6c0.1-1.4,0.7-2.1,2-2.5c4.5-1.4,8.9-3,13.4-4.4c1.3-0.4,1.9-0.9,1.9-2.4
                                             C1229.5,296.5,1229.5,291.9,1229.6,287.4z M1078.2,333.3c-21.5,0-39.1-17.5-39.1-39c0-21.4,17.6-39.1,39.1-39.1
                                             c21.5,0,39.1,17.5,39.1,39C1117.3,315.8,1099.9,333.3,1078.2,333.3z"/>
    <path  class='rotateL' fill="#4B77BE" d="M341.2,237.1c-1.7-4-3.4-7.9-4.8-12c-0.5-1.5-1.3-1.9-2.8-1.8c-6,0.4-12,0.7-17.9,1.2
                                              c-1.4,0.1-2.2-0.1-3-1.2c-2.8-4-6.3-7.4-10.1-10.5c-1.1-0.9-1.5-1.8-1.4-3.2c0.4-6,0.7-12,1.1-17.9c0.1-1.4-0.3-2.2-1.7-2.7
                                              c-4-1.5-8-3.1-12-4.9c-1.5-0.7-2.4-0.4-3.4,0.9c-3.6,4.4-7.3,8.7-11,13c-0.6,0.7-1.1,1.5-2.3,1.2c-5.4-0.9-10.8-1-16.2-0.3
                                              c-1.6,0.2-2.5-0.4-3.4-1.5c-3.7-4.4-7.4-8.8-11.1-13.2c-1-1.2-1.8-1.4-3.3-0.8c-4,1.7-8,3.3-12,4.8c-1.4,0.5-2,1.2-1.9,2.8
                                              c0.4,6,0.7,12,1.2,17.9c0.1,1.4-0.2,2.2-1.3,3c-4.2,3.1-7.8,6.8-11,11c-0.9,1.2-1.8,1.7-3.4,1.6c-5.7-0.4-11.3-0.7-17-1.1
                                              c-1.4-0.1-2.1,0.4-2.6,1.7c-1.6,4.1-3.2,8.2-4.9,12.2c-0.6,1.3-0.5,2.1,0.7,3.1c4.3,3.5,8.5,7.2,12.9,10.8c1.2,1,1.7,1.9,1.5,3.5
                                              c-0.7,4.9-0.6,9.7,0.1,14.6c0.2,1.7-0.2,2.6-1.4,3.6c-4,3.3-7.9,6.7-11.9,10c-1.1,0.9-1.3,1.7-0.7,3c1.8,4.1,3.4,8.3,5.1,12.4
                                              c0.5,1.2,1.1,1.6,2.3,1.5c0.8-0.1,1.6,0,2.4,0c0,0,0,0,0-0.1c4.7-0.3,9.4-0.6,14.1-1c1.2-0.1,2.1,0.1,2.9,1.2
                                              c3.4,4.7,7.5,8.7,12.3,12.1c1,0.7,1.3,1.4,1.2,2.6c-0.4,5.7-0.8,11.3-1.3,17c-0.1,1.4,0.1,2.2,1.6,2.7c4.1,1.5,8.2,3.2,12.2,4.9
                                              c1.6,0.7,2.4,0.3,3.5-0.9c3.7-4.4,7.4-8.8,11.1-13.2c0.7-0.9,1.4-1.2,2.6-1c4.6,0.5,9.3,0.6,13.9-0.1c1.9-0.3,2.9,0.2,4,1.6
                                              c3.4,4.2,7,8.3,10.5,12.5c0.7,0.9,1.3,1.1,2.4,0.6c4.3-1.8,8.5-3.6,12.9-5.2c1.4-0.5,1.6-1.2,1.5-2.5c-0.4-5.6-0.7-11.2-1.1-16.7
                                              c-0.1-1.5,0.1-2.3,1.3-3.2c4.1-3.1,7.7-6.7,10.8-10.8c0.8-1.1,1.6-1.5,3-1.4c5.8,0.4,11.6,0.7,17.5,1.1c1.4,0.1,2-0.2,2.5-1.5
                                              c1.6-4.2,3.3-8.3,5-12.4c0.6-1.3,0.4-2.1-0.7-3.1c-4.4-3.7-8.8-7.4-13.2-11.1c-0.7-0.6-1.4-1.1-1.2-2.4c0.6-4.5,0.9-9.1,0.3-13.6
                                              c-0.2-1.7,0.3-2.8,1.6-3.9c4.6-3.7,9-7.6,13.6-11.4C341.6,239.4,341.8,238.5,341.2,237.1z M262.6,297c-20.3,0-36-16.4-35.7-36.4
                                              c0.3-19.3,16.6-35.3,35.7-35c20.1,0.3,36.1,16.3,35.7,35.9C297.9,281.3,282.4,297.1,262.6,297z"/>
    <path  class='rotateR' fill="#4B77BE" d="M371.6,93.2c-1.7-4-3.4-7.9-4.8-12c-0.5-1.5-1.3-1.9-2.8-1.8c-6,0.4-12,0.7-17.9,1.2c-1.4,0.1-2.2-0.1-3-1.2
                                              c-2.8-4-6.3-7.4-10.1-10.5c-1.1-0.9-1.5-1.8-1.4-3.2c0.4-6,0.7-12,1.1-17.9c0.1-1.4-0.3-2.2-1.7-2.7c-4-1.5-8-3.1-12-4.9
                                              c-1.5-0.7-2.4-0.4-3.4,0.9c-3.6,4.4-7.3,8.7-11,13c-0.6,0.7-1.1,1.5-2.3,1.2c-5.4-0.9-10.8-1-16.2-0.3c-1.6,0.2-2.5-0.4-3.4-1.5
                                              c-3.7-4.4-7.4-8.8-11.1-13.2c-1-1.2-1.8-1.4-3.3-0.8c-4,1.7-8,3.3-12,4.8c-1.4,0.5-2,1.2-1.9,2.8c0.4,6,0.7,12,1.2,17.9
                                              c0.1,1.4-0.2,2.2-1.3,3c-4.2,3.1-7.8,6.8-11,11c-0.9,1.2-1.8,1.7-3.4,1.6c-5.7-0.4-11.3-0.7-17-1.1c-1.4-0.1-2.1,0.4-2.6,1.7
                                              c-1.6,4.1-3.2,8.2-4.9,12.2c-0.6,1.3-0.5,2.1,0.7,3.1c4.3,3.5,8.5,7.2,12.9,10.8c1.2,1,1.7,1.9,1.5,3.5c-0.7,4.9-0.6,9.7,0.1,14.6
                                              c0.2,1.7-0.2,2.6-1.4,3.6c-4,3.3-7.9,6.7-11.9,10c-1.1,0.9-1.3,1.7-0.7,3c1.8,4.1,3.4,8.3,5.1,12.4c0.5,1.2,1.1,1.6,2.3,1.5
                                              c0.8-0.1,1.6,0,2.4,0c0,0,0,0,0-0.1c4.7-0.3,9.4-0.6,14.1-1c1.2-0.1,2.1,0.1,2.9,1.2c3.4,4.7,7.5,8.7,12.3,12.1
                                              c1,0.7,1.3,1.4,1.2,2.6c-0.4,5.7-0.8,11.3-1.3,17c-0.1,1.4,0.1,2.2,1.6,2.7c4.1,1.5,8.2,3.2,12.2,4.9c1.6,0.7,2.4,0.3,3.5-0.9
                                              c3.7-4.4,7.4-8.8,11.1-13.2c0.7-0.9,1.4-1.2,2.6-1c4.6,0.5,9.3,0.6,13.9-0.1c1.9-0.3,2.9,0.2,4,1.6c3.4,4.2,7,8.3,10.5,12.5
                                              c0.7,0.9,1.3,1.1,2.4,0.6c4.3-1.8,8.5-3.6,12.9-5.2c1.4-0.5,1.6-1.2,1.5-2.5c-0.4-5.6-0.7-11.2-1.1-16.7c-0.1-1.5,0.1-2.3,1.3-3.2
                                              c4.1-3.1,7.7-6.7,10.8-10.8c0.8-1.1,1.6-1.5,3-1.4c5.8,0.4,11.6,0.7,17.5,1.1c1.4,0.1,2-0.2,2.5-1.5c1.6-4.2,3.3-8.3,5-12.4
                                              c0.6-1.3,0.4-2.1-0.7-3.1c-4.4-3.7-8.8-7.4-13.2-11.1c-0.7-0.6-1.4-1.1-1.2-2.4c0.6-4.5,0.9-9.1,0.3-13.6c-0.2-1.7,0.3-2.8,1.6-3.9
                                              c4.6-3.7,9-7.6,13.6-11.4C372,95.5,372.2,94.6,371.6,93.2z M292.9,153.2c-20.3,0-36-16.4-35.7-36.4c0.3-19.3,16.6-35.3,35.7-35
                                              C313,82,329,98.1,328.7,117.7C328.3,137.5,312.8,153.2,292.9,153.2z"/>
    <path  class='rotateR' fill="#4B77BE" d="M1051.7,70.2c-1.7-4-3.4-7.9-4.8-12c-0.5-1.5-1.3-1.9-2.8-1.8c-6,0.4-12,0.7-17.9,1.2
                                              c-1.4,0.1-2.2-0.1-3-1.2c-2.8-4-6.3-7.4-10.1-10.5c-1.1-0.9-1.5-1.8-1.4-3.2c0.4-6,0.7-12,1.1-17.9c0.1-1.4-0.3-2.2-1.7-2.7
                                              c-4-1.5-8-3.1-12-4.9c-1.5-0.7-2.4-0.4-3.4,0.9c-3.6,4.4-7.3,8.7-11,13c-0.6,0.7-1.1,1.5-2.3,1.2c-5.4-0.9-10.8-1-16.2-0.3
                                              c-1.6,0.2-2.5-0.4-3.4-1.5c-3.7-4.4-7.4-8.8-11.1-13.2c-1-1.2-1.8-1.4-3.3-0.8c-4,1.7-8,3.3-12,4.8c-1.4,0.5-2,1.2-1.9,2.8
                                              c0.4,6,0.7,12,1.2,17.9c0.1,1.4-0.2,2.2-1.3,3c-4.2,3.1-7.8,6.8-11,11c-0.9,1.2-1.8,1.7-3.4,1.6c-5.7-0.4-11.3-0.7-17-1.1
                                              c-1.4-0.1-2.1,0.4-2.6,1.7c-1.6,4.1-3.2,8.2-4.9,12.2c-0.6,1.3-0.5,2.1,0.7,3.1c4.3,3.5,8.5,7.2,12.9,10.8c1.2,1,1.7,1.9,1.5,3.5
                                              c-0.7,4.9-0.6,9.7,0.1,14.6c0.2,1.7-0.2,2.6-1.4,3.6c-4,3.3-7.9,6.7-11.9,10c-1.1,0.9-1.3,1.7-0.7,3c1.8,4.1,3.4,8.3,5.1,12.4
                                              c0.5,1.2,1.1,1.6,2.3,1.5c0.8-0.1,1.6,0,2.4,0c0,0,0,0,0-0.1c4.7-0.3,9.4-0.6,14.1-1c1.2-0.1,2.1,0.1,2.9,1.2
                                              c3.4,4.7,7.5,8.7,12.3,12.1c1,0.7,1.3,1.4,1.2,2.6c-0.4,5.7-0.8,11.3-1.3,17c-0.1,1.4,0.1,2.2,1.6,2.7c4.1,1.5,8.2,3.2,12.2,4.9
                                              c1.6,0.7,2.4,0.3,3.5-0.9c3.7-4.4,7.4-8.8,11.1-13.2c0.7-0.9,1.4-1.2,2.6-1c4.6,0.5,9.3,0.6,13.9-0.1c1.9-0.3,2.9,0.2,4,1.6
                                              c3.4,4.2,7,8.3,10.5,12.5c0.7,0.9,1.3,1.1,2.4,0.6c4.3-1.8,8.5-3.6,12.9-5.2c1.4-0.5,1.6-1.2,1.5-2.5c-0.4-5.6-0.7-11.2-1.1-16.7
                                              c-0.1-1.5,0.1-2.3,1.3-3.2c4.1-3.1,7.7-6.7,10.8-10.8c0.8-1.1,1.6-1.5,3-1.4c5.8,0.4,11.6,0.7,17.5,1.1c1.4,0.1,2-0.2,2.5-1.5
                                              c1.6-4.2,3.3-8.3,5-12.4c0.6-1.3,0.4-2.1-0.7-3.1c-4.4-3.7-8.8-7.4-13.2-11.1c-0.7-0.6-1.4-1.1-1.2-2.4c0.6-4.5,0.9-9.1,0.3-13.6
                                              c-0.2-1.7,0.3-2.8,1.6-3.9c4.6-3.7,9-7.6,13.6-11.4C1052.2,72.4,1052.3,71.6,1051.7,70.2z M973.1,130.1c-20.3,0-36-16.4-35.7-36.4
                                              c0.3-19.3,16.6-35.3,35.7-35c20.1,0.3,36.1,16.3,35.7,35.9C1008.4,114.4,993,130.1,973.1,130.1z"/>

    <path  class='rotateR' fill="#4B77BE" d="M1002.6,470.7c0-1.5-0.6-2.1-1.9-2.5c-4.5-1.4-8.9-3-13.4-4.4c-1.2-0.4-1.9-0.9-2-2.3
                                              c-0.7-6.6-1.9-13.1-3.8-19.5c-0.4-1.3-0.2-2.2,0.9-3.1c3.8-3.1,7.4-6.3,11.2-9.4c1.2-0.9,1.5-1.8,0.9-3.2c-1.7-4-3.4-8.1-4.9-12.2
                                              c-0.6-1.5-1.4-1.8-2.9-1.7c-4.9,0.4-9.7,0.6-14.6,1c-1.6,0.1-2.3-0.4-3-1.7c-3.4-6.2-7.2-12.1-11.7-17.5c-0.8-1-0.9-1.8-0.3-3
                                              c2.4-4.7,4.7-9.4,7.1-14.1c0.6-1.2,0.6-1.9-0.4-2.9c-3.2-3.1-6.4-6.3-9.5-9.5c-1-1-1.8-1.2-3.1-0.5c-4.6,2.4-9.3,4.7-13.9,7.1
                                              c-0.9,0.5-1.7,0.9-2.8,0c-6-4.8-12.4-9-19.2-12.7c-0.8-0.4-1.2-0.9-1.1-1.9c0.3-4.8,0.5-9.6,1-14.4c0.2-1.6-0.4-2.1-1.6-2.6
                                              c-4-1.6-8-3.1-12-4.9c-1.5-0.6-2.4-0.6-3.4,0.7c-2.9,3.6-6,7.1-9,10.6c-0.7,0.8-1.2,1.2-2.4,0.8c-6.4-1.8-12.9-3.1-19.5-3.8
                                              c-1.9-0.2-2.6-1-3.1-2.6c-1.3-4.3-2.9-8.6-4.2-13c-0.4-1.4-1-1.9-2.5-1.9c-4.4,0.1-8.8,0.1-13.2,0c-1.5,0-2,0.6-2.5,1.9
                                              c-1.4,4.5-3,8.9-4.4,13.4c-0.4,1.3-0.9,1.9-2.4,2.1c-6.4,0.7-12.6,1.8-18.8,3.6c-1.5,0.4-2.5,0.2-3.5-1c-3.2-4-6.6-7.8-9.9-11.8
                                              c-0.9-1.1-1.7-1.3-3-0.7c-4,1.7-8.1,3.4-12.2,4.9c-1.5,0.5-1.9,1.3-1.8,2.8c0.4,5.1,0.6,10.2,1.1,15.3c0.1,1.5-0.3,2.3-1.6,3
                                              c-6.2,3.4-12.1,7.2-17.5,11.7c-1.1,0.9-2,0.9-3.2,0.3c-4.7-2.4-9.4-4.7-14.1-7.1c-1.1-0.6-1.8-0.5-2.7,0.4c-3.2,3.3-6.4,6.5-9.7,9.7
                                              c-1,1-1,1.7-0.4,2.9c2.4,4.6,4.6,9.3,7.1,13.9c0.7,1.3,0.6,2.2-0.3,3.4c-4.2,5.2-8,10.8-11.2,16.7c-0.8,1.4-1.7,1.8-3.2,1.7
                                              c-5.5-0.4-11-0.7-16.5-1.1c-1.4-0.1-2,0.4-2.5,1.6c-1.6,4-3.1,8-4.9,12c-0.7,1.6-0.3,2.6,1,3.6c4.2,3.5,8.3,7,12.5,10.5
                                              c0.9,0.7,1.3,1.4,0.9,2.6c-1.7,6-2.9,12.1-3.6,18.3c-0.2,1.7-1,2.3-2.4,2.7c-5.1,1.6-10.1,3.4-15.3,4.9c-1.8,0.5-2.3,1.4-2.3,3.2
                                              c0.2,4.2,0.2,8.5,0,12.7c-0.1,1.7,0.6,2.3,2.1,2.8c5.3,1.7,10.6,3.5,15.9,5.2c1.1,0.4,1.7,0.8,1.8,2.1c0.7,6,1.8,11.8,3.4,17.6
                                              c0.4,1.6,0.1,2.5-1.1,3.5c-4.2,3.5-8.3,7.1-12.5,10.5c-1,0.8-1.1,1.5-0.6,2.6c1.7,4.1,3.4,8.3,5,12.4c0.5,1.4,1.2,1.8,2.7,1.7
                                              c5.4-0.4,10.8-0.7,16.3-1.1c1.4-0.1,2.2,0.3,2.8,1.6c3.4,6.3,7.3,12.2,11.8,17.7c0.8,1,0.9,1.8,0.3,3c-2.4,4.7-4.7,9.4-7.2,14.1
                                              c-0.6,1.2-0.5,1.9,0.5,2.9c3.3,3.2,6.5,6.4,9.7,9.7c0.9,0.9,1.6,1,2.7,0.4c4.7-2.4,9.4-4.7,14.1-7.1c1.2-0.6,2-0.6,3.2,0.3
                                              c5.3,4.3,11,8,16.9,11.3c1.3,0.7,1.8,1.6,1.7,3c-0.4,5.8-0.7,11.7-1.1,17.5c-0.1,1.4,0.3,2,1.6,2.4c4,1.5,8.1,3.1,12,4.9
                                              c1.7,0.8,2.7,0.4,3.8-1c3.5-4.3,7.2-8.5,10.8-12.9c0.9-1,1.6-1.4,3-1c5.8,1.6,11.7,2.7,17.6,3.4c1.4,0.2,2.1,0.6,2.5,2
                                              c1.6,5.3,3.5,10.4,5.1,15.7c0.6,1.9,1.4,2.7,3.5,2.6c3.9-0.2,7.8-0.2,11.8,0c2.2,0.1,3-0.7,3.6-2.7c1.5-5.2,3.4-10.3,5-15.5
                                              c0.5-1.5,1.2-1.9,2.6-2.1c5.9-0.7,11.7-1.7,17.4-3.4c1.9-0.6,2.9,0,4,1.4c3.2,3.9,6.5,7.7,9.7,11.6c0.8,1,1.5,1.1,2.6,0.7
                                              c4.2-1.8,8.4-3.5,12.7-5.1c1.4-0.5,1.6-1.3,1.5-2.5c-0.4-5.1-0.6-10.2-1-15.3c-0.1-1.7,0.5-2.6,1.9-3.3c6.1-3.3,11.9-7.2,17.3-11.5
                                              c1-0.8,1.8-0.9,2.9-0.3c4.7,2.4,9.4,4.7,14.1,7.2c1.3,0.7,2.1,0.5,3-0.5c3.1-3.2,6.1-6.3,9.3-9.3c1.2-1.1,1.1-1.9,0.4-3.3
                                              c-2.4-4.6-4.6-9.3-7-13.9c-0.6-1.1-0.6-1.9,0.2-3c4.7-5.8,8.7-12,12.3-18.6c0.6-1.2,1.3-1.5,2.6-1.4c4.1,0.4,8.1,0.6,12.2,0.9
                                              c0,0,0,0,0,0c0.5,0,1-0.1,1.4,0.1c2.3,0.7,3.2-0.4,3.9-2.4c1.3-3.8,2.9-7.5,4.5-11.1c0.7-1.5,0.5-2.4-0.8-3.5
                                              c-3.7-3-7.2-6.1-10.8-9.1c-1.1-0.9-1.5-1.8-1.1-3.3c1.7-5.8,2.9-11.8,3.5-17.8c0.2-2.1,1-3,3-3.6c4.3-1.3,8.5-2.8,12.8-4.1
                                              c1.2-0.4,1.8-0.9,1.7-2.3C1002.5,479.8,1002.5,475.2,1002.6,470.7z M851.1,516.5c-21.5,0-39-17.6-39.1-39.1
                                              c0-21.4,17.7-39.1,39.1-39.1c21.6,0,39.2,17.7,39.1,39.3C890.2,499.1,872.7,516.5,851.1,516.5z"/>
    <path  class='rotateR' fill="#4B77BE" d="M320.6,654.5c0-1.5-0.6-2.1-1.9-2.5c-4.5-1.4-8.9-3-13.4-4.4c-1.2-0.4-1.9-0.9-2-2.3
                                              c-0.7-6.6-1.9-13.1-3.8-19.5c-0.4-1.3-0.2-2.2,0.9-3.1c3.8-3.1,7.4-6.3,11.2-9.4c1.2-0.9,1.5-1.8,0.9-3.2c-1.7-4-3.4-8.1-4.9-12.2
                                              c-0.6-1.5-1.4-1.8-2.9-1.7c-4.9,0.4-9.7,0.6-14.6,1c-1.6,0.1-2.3-0.4-3-1.7c-3.4-6.2-7.2-12.1-11.7-17.5c-0.8-1-0.9-1.8-0.3-3
                                              c2.4-4.7,4.7-9.4,7.1-14.1c0.6-1.2,0.6-1.9-0.4-2.9c-3.2-3.1-6.4-6.3-9.5-9.5c-1-1-1.8-1.2-3.1-0.5c-4.6,2.4-9.3,4.7-13.9,7.1
                                              c-0.9,0.5-1.7,0.9-2.8,0c-6-4.8-12.4-9-19.2-12.7c-0.8-0.4-1.2-0.9-1.1-1.9c0.3-4.8,0.5-9.6,1-14.4c0.2-1.6-0.4-2.1-1.6-2.6
                                              c-4-1.6-8-3.1-12-4.9c-1.5-0.6-2.4-0.6-3.4,0.7c-2.9,3.6-6,7.1-9,10.6c-0.7,0.8-1.2,1.2-2.4,0.8c-6.4-1.8-12.9-3.1-19.5-3.8
                                              c-1.9-0.2-2.6-1-3.1-2.6c-1.3-4.3-2.9-8.6-4.2-13c-0.4-1.4-1-1.9-2.5-1.9c-4.4,0.1-8.8,0.1-13.2,0c-1.5,0-2,0.6-2.5,1.9
                                              c-1.4,4.5-3,8.9-4.4,13.4c-0.4,1.3-0.9,1.9-2.4,2.1c-6.4,0.7-12.6,1.8-18.8,3.6c-1.5,0.4-2.5,0.2-3.5-1c-3.2-4-6.6-7.8-9.9-11.8
                                              c-0.9-1.1-1.7-1.3-3-0.7c-4,1.7-8.1,3.4-12.2,4.9c-1.5,0.5-1.9,1.3-1.8,2.8c0.4,5.1,0.6,10.2,1.1,15.3c0.1,1.5-0.3,2.3-1.6,3
                                              c-6.2,3.4-12.1,7.2-17.5,11.7c-1.1,0.9-2,0.9-3.2,0.3c-4.7-2.4-9.4-4.7-14.1-7.1c-1.1-0.6-1.8-0.5-2.7,0.4c-3.2,3.3-6.4,6.5-9.7,9.7
                                              c-1,1-1,1.7-0.4,2.9c2.4,4.6,4.6,9.3,7.1,13.9c0.7,1.3,0.6,2.2-0.3,3.4c-4.2,5.2-8,10.8-11.2,16.7c-0.8,1.4-1.7,1.8-3.2,1.7
                                              c-5.5-0.4-11-0.7-16.5-1.1c-1.4-0.1-2,0.4-2.5,1.6c-1.6,4-3.1,8-4.9,12c-0.7,1.6-0.3,2.6,1,3.6c4.2,3.5,8.3,7,12.5,10.5
                                              c0.9,0.7,1.3,1.4,0.9,2.6c-1.7,6-2.9,12.1-3.6,18.3c-0.2,1.7-1,2.3-2.4,2.7c-5.1,1.6-10.1,3.4-15.3,4.9c-1.8,0.5-2.3,1.4-2.3,3.2
                                              c0.2,4.2,0.2,8.5,0,12.7c-0.1,1.7,0.6,2.3,2.1,2.8c5.3,1.7,10.6,3.5,15.9,5.2c1.1,0.4,1.7,0.8,1.8,2.1c0.7,6,1.8,11.8,3.4,17.6
                                              c0.4,1.6,0.1,2.5-1.1,3.5c-4.2,3.5-8.3,7.1-12.5,10.5c-1,0.8-1.1,1.5-0.6,2.6c1.7,4.1,3.4,8.3,5,12.4c0.5,1.4,1.2,1.8,2.7,1.7
                                              c5.4-0.4,10.8-0.7,16.3-1.1c1.4-0.1,2.2,0.3,2.8,1.6c3.4,6.3,7.3,12.2,11.8,17.7c0.8,1,0.9,1.8,0.3,3c-2.4,4.7-4.7,9.4-7.2,14.1
                                              c-0.6,1.2-0.5,1.9,0.5,2.9c3.3,3.2,6.5,6.4,9.7,9.7c0.9,0.9,1.6,1,2.7,0.4c4.7-2.4,9.4-4.7,14.1-7.1c1.2-0.6,2-0.6,3.2,0.3
                                              c5.3,4.3,11,8,16.9,11.3c1.3,0.7,1.8,1.6,1.7,3c-0.4,5.8-0.7,11.7-1.1,17.5c-0.1,1.4,0.3,2,1.6,2.4c4,1.5,8.1,3.1,12,4.9
                                              c1.7,0.8,2.7,0.4,3.8-1c3.5-4.3,7.2-8.5,10.8-12.9c0.9-1,1.6-1.4,3-1c5.8,1.6,11.7,2.7,17.6,3.4c1.4,0.2,2.1,0.6,2.5,2
                                              c1.6,5.3,3.5,10.4,5.1,15.7c0.6,1.9,1.4,2.7,3.5,2.6c3.9-0.2,7.8-0.2,11.8,0c2.2,0.1,3-0.7,3.6-2.7c1.5-5.2,3.4-10.3,5-15.5
                                              c0.5-1.5,1.2-1.9,2.6-2.1c5.9-0.7,11.7-1.7,17.4-3.4c1.9-0.6,2.9,0,4,1.4c3.2,3.9,6.5,7.7,9.7,11.6c0.8,1,1.5,1.1,2.6,0.7
                                              c4.2-1.8,8.4-3.5,12.7-5.1c1.4-0.5,1.6-1.3,1.5-2.5c-0.4-5.1-0.6-10.2-1-15.3c-0.1-1.7,0.5-2.6,1.9-3.3c6.1-3.3,11.9-7.2,17.3-11.5
                                              c1-0.8,1.8-0.9,2.9-0.3c4.7,2.4,9.4,4.7,14.1,7.2c1.3,0.7,2.1,0.5,3-0.5c3.1-3.2,6.1-6.3,9.3-9.3c1.2-1.1,1.1-1.9,0.4-3.3
                                              c-2.4-4.6-4.6-9.3-7-13.9c-0.6-1.1-0.6-1.9,0.2-3c4.7-5.8,8.7-12,12.3-18.6c0.6-1.2,1.3-1.5,2.6-1.4c4.1,0.4,8.1,0.6,12.2,0.9
                                              c0,0,0,0,0,0c0.5,0,1-0.1,1.4,0.1c2.3,0.7,3.2-0.4,3.9-2.4c1.3-3.8,2.9-7.5,4.5-11.1c0.7-1.5,0.5-2.4-0.8-3.5
                                              c-3.7-3-7.2-6.1-10.8-9.1c-1.1-0.9-1.5-1.8-1.1-3.3c1.7-5.8,2.9-11.8,3.5-17.8c0.2-2.1,1-3,3-3.6c4.3-1.3,8.5-2.8,12.8-4.1
                                              c1.2-0.4,1.8-0.9,1.7-2.3C320.5,663.6,320.5,659,320.6,654.5z M169.1,700.3c-21.5,0-39-17.6-39.1-39.1c0-21.4,17.7-39.1,39.1-39.1
                                              c21.6,0,39.2,17.7,39.1,39.3C208.2,682.9,190.7,700.3,169.1,700.3z"/>
    <path  class='rotateL' fill="#4B77BE" d="M716.8,393.8c-1.7-4-3.4-8.1-4.9-12.2c-0.5-1.3-1.2-1.8-2.6-1.7c-6,0.5-12,0.8-17.9,1.2
                                              c-1.3,0.1-2.3-0.1-3.1-1.2c-2.8-4-6.3-7.5-10.1-10.5c-1.4-1.1-1.7-2.2-1.6-3.9c0.5-5.8,0.8-11.6,1.3-17.4c0.1-1.3-0.3-2-1.6-2.5
                                              c-4.2-1.6-8.3-3.3-12.4-5c-1.4-0.6-2.1-0.4-3,0.8c-3.6,4.4-7.3,8.7-11,13c-0.6,0.8-1.2,1.7-2.5,1.4c-5.3-1-10.7-1-16-0.3
                                              c-1.6,0.2-2.7-0.3-3.7-1.5c-3.7-4.5-7.5-8.9-11.2-13.4c-0.8-1-1.5-1.3-2.8-0.8c-4.1,1.8-8.2,3.5-12.4,5c-1.4,0.5-1.8,1.2-1.7,2.7
                                              c0.4,5.5,0.7,11,1,16.8c-0.1,1.3,0.6,2.9-1.2,4.2c-4.4,3.2-8.1,7-11.3,11.3c-0.8,1.1-1.6,1.4-3,1.3c-5.6-0.5-11.2-0.7-16.7-1.2
                                              c-1.8-0.1-2.5,0.5-3.1,2.1c-1.4,3.7-2.8,7.5-4.5,11.1c-0.9,1.9-0.6,3,1,4.4c4.3,3.4,8.4,7.1,12.7,10.6c1,0.8,1.3,1.6,1.1,2.9
                                              c-0.8,4.9-0.6,9.9,0.1,14.8c0.2,1.6-0.2,2.6-1.5,3.6c-4,3.3-7.9,6.7-11.9,10c-1,0.9-1.3,1.6-0.7,2.8c1.7,4,3.4,8.1,4.9,12.2
                                              c0.5,1.5,1.3,1.9,2.8,1.8c5.4-0.4,10.8-0.7,16.3-1c1.1-0.1,1.9,0,2.7,1c3.5,4.6,7.5,8.7,12.2,12.1c1,0.7,1.3,1.5,1.2,2.8
                                              c-0.5,5.6-0.7,11.2-1.1,16.7c-0.1,1.7,0.4,2.4,2,2.9c4,1.5,8.1,3.1,12,4.9c1.5,0.7,2.2,0.3,3.2-0.9c3.7-4.4,7.4-8.8,11.1-13.2
                                              c0.8-0.9,1.5-1.2,2.8-1.1c4.8,0.4,9.6,0.6,14.3-0.2c1.4-0.2,2.2,0.2,3.1,1.2c3.6,4.3,7.2,8.5,10.8,12.9c0.8,1,1.5,1.1,2.6,0.7
                                              c4.2-1.8,8.4-3.5,12.7-5.1c1.2-0.5,1.7-1,1.5-2.4c-0.5-5.6-0.7-11.2-1.1-16.7c-0.1-1.5,0.2-2.5,1.5-3.4c4-3,7.6-6.6,10.7-10.6
                                              c0.9-1.1,1.7-1.6,3.2-1.5c5.7,0.4,11.3,0.7,17,1.1c1.6,0.1,2.4-0.3,3-1.9c1.5-4,3.1-8,4.9-12c0.6-1.5,0.3-2.2-0.9-3.2
                                              c-4.5-3.6-8.8-7.4-13.2-11.1c-0.8-0.7-1.3-1.3-1.1-2.4c0.8-4.7,0.5-9.4,0.3-14.1c-0.1-1.3,0.2-2.1,1.2-2.9c4.7-3.9,9.4-8,14.1-11.9
                                              C717.3,395.9,717.4,395.1,716.8,393.8z M637.2,453.7c-18.9-0.2-34.9-16.5-34.7-35.7c0.1-19.9,16.2-36,35.6-35.7
                                              c19.9,0.3,35.9,16.2,35.8,35.7C673.7,438.1,657.6,453.8,637.2,453.7z"/>
    <path  class='rotateL' fill="#4B77BE" d="M923.6,191.6c-4.5-1.7-8.9-3.6-13.3-5.4c-1.2-0.5-1.8-1.1-1.8-2.4c-0.2-6.5-1-12.9-2.4-19.2
                                              c-0.4-1.8,0.1-2.8,1.5-3.8c3.8-2.7,7.4-5.5,11.2-8.2c1.3-0.9,1.7-1.8,1.2-3.4c-1.4-4-2.8-8-4-12.1c-0.5-1.8-1.4-2.3-3.2-2.2
                                              c-4.8,0.1-9.6,0-14.4,0c-1.5,0-2.1-0.6-2.7-1.8c-3-6.4-6.4-12.5-10.5-18.3c-0.8-1.2-0.7-2,0-3.2c2.7-4.5,5.3-9.1,8-13.6
                                              c0.6-1.1,0.6-1.7-0.3-2.7c-3-3.3-6-6.7-8.8-10.1c-1-1.2-1.9-1.3-3.3-0.7c-4.7,2.1-9.4,4-14.1,6.1c-1.1,0.5-1.9,0.6-3-0.3
                                              c-5.5-5.1-11.5-9.6-17.9-13.6c-1.1-0.7-1.3-1.3-1.1-2.5c0.6-3.8,1-7.6,1.6-12c0,0,0-0.3,0.1-0.6c0.4-1.8,0.7-3.2-1.7-4.2
                                              c-3.9-1.6-7.7-3.6-11.4-5.5c-1.3-0.7-2.1-0.5-3.1,0.5c-3.2,3.4-6.6,6.8-9.8,10.2c-0.8,0.8-1.4,1-2.5,0.6c-6.4-2.3-13-4-19.7-5.2
                                              c-1.4-0.2-1.8-0.8-2.1-2.1c-1.1-4.6-2.4-9.1-3.5-13.7c-0.3-1.4-0.9-2.1-2.5-2.2c-4.4-0.2-8.8-0.5-13.2-0.9c-1.4-0.1-2,0.3-2.4,1.6
                                              c-1.8,4.5-3.7,9-5.5,13.5c-0.4,1.1-1,1.5-2.3,1.6c-6.5,0.3-13,1-19.5,2.4c-1.4,0.3-2.2-0.1-3-1.3c-2.8-4-5.8-7.8-8.6-11.8
                                              c-1.1-1.6-2.2-2.1-4.1-1.4c-3.8,1.4-7.7,2.7-11.6,3.8c-1.6,0.5-2.3,1.2-2.2,3c0.1,4.9,0,9.8,0.1,14.6c0,1.8-0.5,2.8-2.3,3.6
                                              c-6.3,2.9-12.2,6.3-17.8,10.3c-1.2,0.8-2,0.8-3.2,0.1c-4.4-2.7-8.8-5.2-13.2-7.8c-1.4-0.9-2.3-0.7-3.5,0.4c-3.2,2.9-6.4,5.8-9.7,8.5
                                              c-1.1,1-1.2,1.8-0.7,3.1c2.1,4.8,4,9.6,6.1,14.3c0.6,1.3,0.4,2.1-0.5,3.1c-4.6,4.9-8.7,10.3-12.3,15.9c-0.9,1.5-1.9,1.8-3.5,1.6
                                              c-5.4-0.8-10.8-1.4-16.2-2.2c-1.5-0.2-2.1,0.3-2.7,1.5c-1.8,3.9-3.7,7.8-5.6,11.6c-0.8,1.5-0.5,2.4,0.7,3.5
                                              c3.9,3.7,7.7,7.5,11.6,11.2c1,0.9,1.4,1.7,0.9,3.1c-2.1,5.9-3.7,11.9-4.8,18c-0.3,1.5-0.9,1.9-2.3,2.3c-5.4,1.3-10.8,2.8-16.2,4.1
                                              c-1.4,0.3-1.9,0.9-2,2.4c-0.2,4.5-0.5,8.9-0.9,13.4c-0.1,1.4,0.3,2.1,1.6,2.6c5.1,2,10.2,4.2,15.3,6.2c1.4,0.5,2.1,1.1,2.2,2.8
                                              c0.2,5.7,0.9,11.5,2.1,17.1c0.4,1.9-0.2,2.9-1.6,3.9c-4.2,3-8.2,6.1-12.4,9.1c-1.3,0.9-1.7,1.8-1.1,3.4c1.4,4,2.8,8,4,12.1
                                              c0.5,1.5,1.1,2.2,2.8,2.1c5.2-0.1,10.4,0.1,15.6,0c1.8,0,2.7,0.5,3.5,2.1c2.8,6.3,6.3,12.2,10.2,17.9c0.8,1.2,0.9,2.1,0.1,3.4
                                              c-2.7,4.4-5.3,9-8,13.4c-0.7,1.1-0.7,1.9,0.2,2.9c3.1,3.4,6.1,6.8,9,10.3c0.8,1,1.5,1.1,2.6,0.6c4.9-2.1,9.9-4.1,14.8-6.3
                                              c1.1-0.5,1.8-0.4,2.7,0.4c5.1,4.6,10.5,8.9,16.3,12.5c1.3,0.8,1.6,1.7,1.4,3.1c-0.8,5.6-1.4,11.3-2.2,16.9c-0.2,1.6,0.1,2.5,1.6,3.2
                                              c3.9,1.8,7.8,3.6,11.6,5.6c1.4,0.7,2.2,0.5,3.3-0.6c3.9-4.2,8-8.3,12-12.5c1-1,1.7-1.2,3.1-0.7c5.6,2,11.3,3.5,17.1,4.5
                                              c1.7,0.3,2.2,1,2.6,2.5c1.4,5.5,2.9,11,4.2,16.5c0.3,1.4,1,1.9,2.4,2c4.4,0.2,8.8,0.5,13.2,0.9c1.5,0.1,2.1-0.4,2.6-1.7
                                              c2.1-5.4,4.3-10.6,6.4-16c0.5-1.3,1.1-1.8,2.6-1.9c6.1-0.3,12.3-1,18.3-2.3c1.4-0.3,2.2,0.1,3,1.2c2.9,4.1,6,8.1,8.9,12.2
                                              c1,1.4,1.8,1.8,3.5,1.2c3.9-1.4,7.8-2.7,11.8-3.9c1.6-0.5,2.3-1.2,2.3-3c-0.1-5.1,0-10.2,0-15.3c0-1.4,0.5-2.1,1.8-2.7
                                              c6.4-3,12.5-6.4,18.3-10.5c1.3-0.9,2.1-0.8,3.4,0c4.4,2.7,9,5.3,13.4,8c1.2,0.7,1.9,0.7,2.9-0.2c3.4-3.1,6.8-6.1,10.3-9
                                              c1-0.8,1.1-1.5,0.6-2.6c-2.1-4.9-4.2-9.9-6.2-14.8c-0.4-0.9-0.7-1.6,0.2-2.6c5.2-5.7,9.8-11.8,13.9-18.3c0.5-0.9,1.1-1.2,2.1-1
                                              c5,0.7,10,1.2,15,2c1.4,0.2,2-0.1,2.6-1.3c1.9-4.1,3.8-8.1,5.8-12.1c0.7-1.3,0.4-2.1-0.6-3.1c-3.5-3.3-6.9-6.7-10.4-10
                                              c-1.1-1-1.3-1.9-0.8-3.3c2.1-6,3.7-12.1,4.8-18.3c0.2-1.4,0.9-2,2.2-2.4c4.6-1.1,9.1-2.4,13.7-3.5c1.3-0.3,2-0.8,2.1-2.3
                                              c0.2-4.6,0.5-9.1,0.9-13.6C925.3,192.7,924.8,192.1,923.6,191.6z M772.4,266c-40.7,0-73.7-33-73.7-73.7s33-73.7,73.7-73.7
                                              s73.7,33,73.7,73.7S813.1,266,772.4,266z"/>
    <path  class='rotateL' fill="#4B77BE" d="M577.8,553.3c-4.2-2-8.3-4-12.4-6c-1.1-0.5-1.6-1.1-1.6-2.4c0.2-6.2-0.1-12.4-1-18.6
                                              c-0.3-1.7,0.3-2.7,1.7-3.5c3.8-2.3,7.5-4.8,11.3-7.1c1.3-0.8,1.8-1.6,1.3-3.1c-1.1-3.9-2.2-7.8-3-11.8c-0.4-1.8-1.2-2.3-2.9-2.4
                                              c-4.6-0.2-9.2-0.7-13.8-0.9c-1.4-0.1-2-0.7-2.5-1.9c-2.4-6.3-5.3-12.4-8.9-18.2c-0.7-1.2-0.6-2,0.2-3.1c2.9-4.1,5.7-8.4,8.6-12.5
                                              c0.7-1,0.7-1.6-0.1-2.6c-2.7-3.4-5.3-6.8-7.8-10.3c-0.9-1.3-1.8-1.3-3.1-0.9c-4.6,1.7-9.3,3.2-13.9,4.9c-1.1,0.4-1.9,0.5-2.8-0.5
                                              c-5-5.3-10.4-10-16.3-14.2c-1-0.7-1.1-1.4-0.8-2.5c0.8-3.6,1.5-7.2,2.3-11.4c0,0,0-0.3,0.1-0.6c0.5-1.7,0.8-3-1.3-4.1
                                              c-3.6-1.8-7.1-3.9-10.6-6c-1.2-0.7-2-0.7-3,0.3c-3.3,3.1-6.7,6-10.1,9.1c-0.8,0.7-1.4,0.9-2.4,0.4c-6-2.6-12.2-4.7-18.5-6.3
                                              c-1.3-0.3-1.7-0.9-1.9-2.1c-0.8-4.5-1.7-8.9-2.4-13.3c-0.2-1.4-0.7-2.1-2.3-2.3c-4.2-0.4-8.4-1-12.6-1.7c-1.3-0.2-1.9,0.2-2.4,1.4
                                              c-2,4.2-4.1,8.4-6.1,12.6c-0.5,1.1-1.1,1.4-2.3,1.4c-6.3-0.1-12.6,0.1-18.8,1c-1.4,0.2-2.1-0.3-2.8-1.4c-2.5-4-5.1-7.9-7.5-11.9
                                              c-1-1.6-2-2.2-3.9-1.6c-3.7,1.1-7.5,2-11.4,2.9c-1.6,0.4-2.3,1-2.3,2.7c-0.2,4.7-0.7,9.3-0.9,14c-0.1,1.8-0.7,2.7-2.4,3.3
                                              c-6.2,2.3-12.1,5.2-17.8,8.7c-1.2,0.7-2,0.6-3.1-0.2c-4-2.8-8.1-5.5-12.1-8.4c-1.3-0.9-2.2-0.9-3.4,0.1c-3.2,2.6-6.5,5.1-9.9,7.5
                                              c-1.2,0.8-1.3,1.6-0.8,2.9c1.7,4.7,3.2,9.4,4.9,14.1c0.5,1.3,0.2,2.1-0.7,3c-4.7,4.4-9,9.3-12.8,14.5c-1,1.4-2,1.6-3.5,1.3
                                              c-5.1-1.1-10.2-2-15.3-3.1c-1.4-0.3-2.1,0.1-2.7,1.3c-2,3.6-4,7.2-6.2,10.8c-0.9,1.4-0.6,2.3,0.4,3.4c3.5,3.8,6.9,7.6,10.4,11.4
                                              c0.9,0.9,1.3,1.8,0.7,3.1c-2.4,5.5-4.3,11.2-5.8,16.9c-0.4,1.4-1,1.8-2.3,2c-5.3,0.9-10.5,2-15.8,2.9c-1.4,0.2-1.9,0.8-2.1,2.2
                                              c-0.5,4.3-1.1,8.5-1.7,12.8c-0.2,1.4,0.1,2,1.4,2.6c4.8,2.3,9.5,4.7,14.3,6.9c1.3,0.6,2,1.2,1.9,2.9c-0.2,5.5,0.1,11,0.9,16.5
                                              c0.3,1.9-0.3,2.8-1.8,3.7c-4.2,2.6-8.3,5.3-12.5,7.9c-1.3,0.8-1.7,1.6-1.3,3.1c1.1,3.9,2.1,7.8,3,11.8c0.3,1.5,0.9,2.2,2.6,2.2
                                              c5,0.3,9.9,0.7,14.9,1c1.7,0.1,2.6,0.7,3.2,2.3c2.3,6.2,5.2,12.1,8.6,17.8c0.7,1.2,0.8,2.1-0.1,3.3c-2.9,4-5.6,8.2-8.5,12.3
                                              c-0.7,1.1-0.8,1.8,0,2.8c2.7,3.4,5.4,6.9,7.9,10.4c0.7,1,1.4,1.1,2.5,0.7c4.8-1.7,9.7-3.3,14.6-5.1c1.1-0.4,1.8-0.3,2.6,0.6
                                              c4.6,4.8,9.5,9.2,14.8,13.1c1.2,0.9,1.5,1.7,1.2,3.1c-1.1,5.3-2.1,10.7-3.2,16c-0.3,1.5-0.1,2.4,1.3,3.1c3.7,1.9,7.2,4,10.8,6.1
                                              c1.3,0.8,2.1,0.6,3.2-0.4c4.1-3.8,8.2-7.4,12.3-11.1c1-0.9,1.7-1,3-0.5c5.2,2.3,10.6,4.1,16.1,5.4c1.6,0.4,2.1,1.1,2.3,2.6
                                              c0.9,5.4,2,10.7,2.9,16.1c0.2,1.4,0.8,1.9,2.2,2c4.2,0.5,8.4,1,12.6,1.7c1.4,0.2,2-0.2,2.6-1.5c2.4-5,4.9-9.9,7.2-14.9
                                              c0.6-1.2,1.2-1.6,2.6-1.6c5.9,0.1,11.8-0.2,17.6-1c1.4-0.2,2.1,0.3,2.8,1.4c2.6,4.1,5.2,8.1,7.7,12.3c0.8,1.4,1.6,1.8,3.3,1.4
                                              c3.8-1.1,7.7-2.1,11.6-3c1.6-0.4,2.3-1,2.4-2.7c0.2-4.9,0.7-9.8,1-14.7c0.1-1.3,0.6-2,1.9-2.5c6.3-2.4,12.4-5.3,18.2-8.8
                                              c1.3-0.8,2.1-0.6,3.2,0.2c4.1,2.9,8.2,5.6,12.3,8.5c1.1,0.7,1.7,0.8,2.8,0c3.4-2.7,6.9-5.4,10.4-8c1-0.7,1.1-1.4,0.7-2.5
                                              c-1.7-4.8-3.3-9.7-5-14.6c-0.3-0.9-0.5-1.6,0.3-2.4c5.4-5.1,10.2-10.6,14.5-16.6c0.6-0.8,1.1-1.1,2.1-0.8c4.7,1,9.5,1.9,14.2,2.9
                                              c1.3,0.3,1.9,0,2.5-1.1c2.1-3.8,4.2-7.5,6.4-11.2c0.7-1.2,0.6-2-0.4-3c-3.1-3.4-6.2-6.9-9.3-10.2c-1-1.1-1.1-1.9-0.5-3.3
                                              c2.4-5.6,4.3-11.3,5.8-17.2c0.3-1.4,1-1.9,2.3-2.1c4.5-0.8,8.9-1.7,13.3-2.4c1.3-0.2,2-0.6,2.1-2.1c0.5-4.3,1.1-8.7,1.8-13
                                              C579.3,554.5,579,553.9,577.8,553.3z M428.1,614.6c-39-2.7-68.5-36.5-65.8-75.5c2.7-39,36.5-68.5,75.5-65.8s68.5,36.5,65.8,75.5
                                              S467.1,617.3,428.1,614.6z"/>
    <path  class='rotateR' fill="#4B77BE" d="M337.6,395.8c-1.7-4-3.4-8.1-4.9-12.2c-0.5-1.3-1.2-1.8-2.6-1.7c-6,0.5-12,0.8-17.9,1.2
                                              c-1.3,0.1-2.3-0.1-3.1-1.2c-2.8-4-6.3-7.5-10.1-10.5c-1.4-1.1-1.7-2.2-1.6-3.9c0.5-5.8,0.8-11.6,1.3-17.4c0.1-1.3-0.3-2-1.6-2.5
                                              c-4.2-1.6-8.3-3.3-12.4-5c-1.4-0.6-2.1-0.4-3,0.8c-3.6,4.4-7.3,8.7-11,13c-0.6,0.8-1.2,1.7-2.5,1.4c-5.3-1-10.7-1-16-0.3
                                              c-1.6,0.2-2.7-0.3-3.7-1.5c-3.7-4.5-7.5-8.9-11.2-13.4c-0.8-1-1.5-1.3-2.8-0.8c-4.1,1.8-8.2,3.5-12.4,5c-1.4,0.5-1.8,1.2-1.7,2.7
                                              c0.4,5.5,0.7,11,1,16.8c-0.1,1.3,0.6,2.9-1.2,4.2c-4.4,3.2-8.1,7-11.3,11.3c-0.8,1.1-1.6,1.4-3,1.3c-5.6-0.5-11.2-0.7-16.7-1.2
                                              c-1.8-0.1-2.5,0.5-3.1,2.1c-1.4,3.7-2.8,7.5-4.5,11.1c-0.9,1.9-0.6,3,1,4.4c4.3,3.4,8.4,7.1,12.7,10.6c1,0.8,1.3,1.6,1.1,2.9
                                              c-0.8,4.9-0.6,9.9,0.1,14.8c0.2,1.6-0.2,2.6-1.5,3.6c-4,3.3-7.9,6.7-11.9,10c-1,0.9-1.3,1.6-0.7,2.8c1.7,4,3.4,8.1,4.9,12.2
                                              c0.5,1.5,1.3,1.9,2.8,1.8c5.4-0.4,10.8-0.7,16.3-1c1.1-0.1,1.9,0,2.7,1c3.5,4.6,7.5,8.7,12.2,12.1c1,0.7,1.3,1.5,1.2,2.8
                                              c-0.5,5.6-0.7,11.2-1.1,16.7c-0.1,1.7,0.4,2.4,2,2.9c4,1.5,8.1,3.1,12,4.9c1.5,0.7,2.2,0.3,3.2-0.9c3.7-4.4,7.4-8.8,11.1-13.2
                                              c0.8-0.9,1.5-1.2,2.8-1.1c4.8,0.4,9.6,0.6,14.3-0.2c1.4-0.2,2.2,0.2,3.1,1.2c3.6,4.3,7.2,8.5,10.8,12.9c0.8,1,1.5,1.1,2.6,0.7
                                              c4.2-1.8,8.4-3.5,12.7-5.1c1.2-0.5,1.7-1,1.5-2.4c-0.5-5.6-0.7-11.2-1.1-16.7c-0.1-1.5,0.2-2.5,1.5-3.4c4-3,7.6-6.6,10.7-10.6
                                              c0.9-1.1,1.7-1.6,3.2-1.5c5.7,0.4,11.3,0.7,17,1.1c1.6,0.1,2.4-0.3,3-1.9c1.5-4,3.1-8,4.9-12c0.6-1.5,0.3-2.2-0.9-3.2
                                              c-4.5-3.6-8.8-7.4-13.2-11.1c-0.8-0.7-1.3-1.3-1.1-2.4c0.8-4.7,0.5-9.4,0.3-14.1c-0.1-1.3,0.2-2.1,1.2-2.9c4.7-3.9,9.4-8,14.1-11.9
                                              C338,397.9,338.1,397.1,337.6,395.8z"/>
</svg>
