<svg version="1" xmlns="http://www.w3.org/2000/svg" viewBox="0 0 600 600" enable-background="new 0 0 600 600"><circle fill="#ECF0F1" cx="300" cy="300" r="182.7"/><g fill="#DC3023"><path d="M288.4 442.8l35.4-35.4V210.7l-35.4 35.4zM135.1 407.4l35.4 35.4V246.1l-35.4-35.4zM256.5 275.1l86.4-86.3h-31.1l-71.6 71.6-108.6-108.5h-50l139 139.1 50.1-.1-15.8-15.8zM379.5 448.1l-23.8-23.7V292.3l23.8 23.7zM482.5 424.4l-23.8 23.7V316l23.8-23.7zM400.9 335.5l-58-58h20.9l48.1 48.1 72.9-72.9h33.6L425 346.1h-33.6l10.6-10.6z"/></g><path opacity=".1" fill="#446CB3" d="M600 600H0L600 0z"/></svg>