<?xml version="1.0" encoding="utf-8"?>
<!-- Generator: Adobe Illustrator 18.1.1, SVG Export Plug-In . SVG Version: 6.00 Build 0)  -->
<svg version="1.1" id="Calque_1" xmlns="http://www.w3.org/2000/svg" xmlns:xlink="http://www.w3.org/1999/xlink" x="0px" y="0px"
	 viewBox="0 0 50 50" enable-background="new 0 0 50 50" xml:space="preserve">
<path fill="#DC3023" d="M32.6,29.7c-2.2-0.2-4.1,0.5-5.6,2.2c-1.9,2.1-1,4.5,1.7,5.1c3.4,0.7,6.6-1.9,6.7-5.4c0-3.2,0-6.3,0-9.5
	s0-6.4,0-9.5c0-0.7,0-1.2-0.9-1.1c-5,0.4-10,0.9-15,1.2c-1,0.1-1.1,0.6-1.1,1.4c0,5.2,0,10.3,0,15.5c0,1.2-0.1,1.7-1.5,1.5
	c-2.2-0.2-4.1,0.7-5.5,2.4c-0.8,1-1,2.1-0.5,3.2c0.5,1.1,1.5,1.6,2.7,1.7c3.7,0.3,6.4-2.1,6.4-5.9c0-4.4,0-8.9,0-13.3
	c0-0.9,0.2-1.2,1.1-1.3c3.8-0.3,7.6-0.6,11.5-1c1-0.1,1.2,0.2,1.2,1.2c0,3.5,0,7,0,10.5C33.8,29.5,33.6,29.8,32.6,29.7z"/>
</svg>
